<svg xmlns="http://www.w3.org/2000/svg" xmlns:xlink="http://www.w3.org/1999/xlink" viewBox="0 0 299.209 188.417"><defs><style>.cls-1{isolation:isolate;}.cls-2{fill:url(#linear-gradient);}.cls-3{fill:#d1d4fc;}.cls-4{fill:#b2b8fa;}.cls-5{fill:#e0e3fd;}.cls-43,.cls-6{fill:#c1c6fb;}.cls-7{fill:#fafaff;}.cls-8{fill:#4d5068;}.cls-10,.cls-9{fill:#fff;}.cls-10{opacity:0;}.cls-11{fill:#fdfdff;opacity:0.024;}.cls-12{fill:#fbfcff;opacity:0.049;}.cls-13{fill:#f9faff;opacity:0.073;}.cls-14{fill:#f7f8ff;opacity:0.098;}.cls-15{fill:#f6f6fe;opacity:0.122;}.cls-16{fill:#f4f5fe;opacity:0.146;}.cls-17{fill:#f2f3fe;opacity:0.171;}.cls-18,.cls-51{fill:#f0f1fe;}.cls-18{opacity:0.195;}.cls-19{fill:#eeeffe;opacity:0.22;}.cls-20{fill:#eceefe;opacity:0.244;}.cls-21{fill:#eaecfe;opacity:0.268;}.cls-22{fill:#e8eafe;opacity:0.293;}.cls-23{fill:#e7e8fd;opacity:0.317;}.cls-24{fill:#e5e7fd;opacity:0.341;}.cls-25{fill:#e3e5fd;opacity:0.366;}.cls-26{fill:#e1e3fd;opacity:0.39;}.cls-27{fill:#dfe2fd;opacity:0.415;}.cls-28{fill:#dde0fd;opacity:0.439;}.cls-29{fill:#dbdefd;opacity:0.463;}.cls-30{fill:#d9dcfd;opacity:0.488;}.cls-31{fill:#d8dbfc;opacity:0.512;}.cls-32{fill:#d6d9fc;opacity:0.537;}.cls-33{fill:#d4d7fc;opacity:0.561;}.cls-34{fill:#d2d5fc;opacity:0.585;}.cls-35{fill:#d0d4fc;opacity:0.61;}.cls-36{fill:#ced2fc;opacity:0.634;}.cls-37{fill:#ccd0fc;opacity:0.659;}.cls-38{fill:#cacffc;opacity:0.683;}.cls-39{fill:#c9cdfb;opacity:0.707;}.cls-40{fill:#c7cbfb;opacity:0.732;}.cls-41{fill:#c5c9fb;opacity:0.756;}.cls-42{fill:#c3c8fb;opacity:0.78;}.cls-43{opacity:0.805;}.cls-44{fill:#bfc4fb;opacity:0.829;}.cls-45{fill:#bdc2fb;opacity:0.854;}.cls-46{fill:#bbc1fb;opacity:0.878;}.cls-47{fill:#babffa;opacity:0.902;}.cls-48{fill:#b8bdfa;opacity:0.927;}.cls-49{fill:#b6bbfa;opacity:0.951;}.cls-50{fill:#b4bafa;opacity:0.976;}.cls-52{fill:#536dfe;}.cls-53{fill:#ffdfcc;}.cls-54{fill:#e55151;}.cls-55{mix-blend-mode:multiply;}.cls-56{fill:#ff5f00;}.cls-57{fill:#ffdfd6;}.cls-58{fill:#ffcebd;}.cls-59{opacity:0.15;}.cls-60{fill:#19103a;}.cls-61{fill:#30334f;opacity:0.3;}.cls-62{fill:#ffbba1;}.cls-63{fill:#191c3c;}.cls-64{fill:#a7a9ac;opacity:0.1;}</style><linearGradient id="linear-gradient" x1="17.349" y1="212.572" x2="264.348" y2="52.573" gradientUnits="userSpaceOnUse"><stop offset="0" stop-color="#dfe1fd"/><stop offset="0.454" stop-color="#ebecfe"/><stop offset="1" stop-color="#f4f5fe"/></linearGradient></defs><title>description-icon-3</title><g class="cls-1"><g id="Bg"><path class="cls-2" d="M293.509,129.327c5.5,8.781,8.206,19.733,2.628,28.063-4.8,7.174-14.327,10.048-19.137,17.218-2.43,3.621-3.709,8.358-7.5,10.507-2.33,1.32-5.145,1.355-7.822,1.355l-242.153.024c-2.706,0-5.518-.022-7.958-1.194-2.927-1.405-4.879-4.26-6.327-7.167a40.233,40.233,0,0,1,5.029-42.707c5.92-7.08,14.329-12.084,18.9-20.1,3.979-6.984,4.514-15.317,5.829-23.247,1.666-10.048,5.79-20.291,15.468-24.616C62.064,62.278,73.7,57.9,82.713,48.49c9.73-10.165,15.217-24.632,27.315-31.82,11.6-6.89,26.347-5.225,39.267-1.353s25.442,9.757,38.892,10.761c16.491,1.231,33.543-4.96,49.327-.024a37.007,37.007,0,0,1,23.519,22.784c5.28,15.178.224,32.69,6.431,47.513,4.646,11.1,14.781,18.742,22.455,28.006A46.526,46.526,0,0,1,293.509,129.327Z"/></g><g id="Graphics"><g id="Layer_6" data-name="Layer 6"><path class="cls-3" d="M70.577,79.6c-14.357,8.89-9.89,29.678-9.7,44.046q0.32,23.762.64,47.524a0.742,0.742,0,0,1-1.482,0q-0.383-28.4-.765-56.8c-0.18-13.368-2.467-27.989,10.556-36.053a0.742,0.742,0,0,1,.748,1.28h0Z"/><path class="cls-3" d="M62.6,86.836A18.1,18.1,0,0,1,64.92,82.9a19.26,19.26,0,0,1,5.607-4.1l0.3,0.16A17.793,17.793,0,0,1,72,88.575a10.681,10.681,0,0,1-5.521,7.682c-2.163,1.04-4.719,1.176-6.737,2.474C59.17,94.632,60.831,90.576,62.6,86.836Z"/><path class="cls-3" d="M47.566,61.621c14.259,5.656,11.19,27.286,11.765,39.475,0.974,20.671,1.5,41.342,1.366,62.037a0.742,0.742,0,0,1-1.482,0q0.169-25.811-.891-51.607c-0.326-7.769-.716-15.536-1.084-23.3-0.426-9.018-.011-21.184-10.068-25.173-0.876-.348-0.494-1.782.394-1.429h0Z"/><path class="cls-3" d="M57.327,86.5c0.026-.071.044-0.145,0.069-0.217a6.7,6.7,0,0,1,.577,1.09Z"/><path class="cls-3" d="M46.754,62.88a0.732,0.732,0,0,1,1.089-.492,15.576,15.576,0,0,1,9.887,9.88A21.46,21.46,0,0,1,57.4,86.282c-1.772-2.8-5.372-4.2-7.893-6.518C45.028,75.644,44.341,68.463,46.754,62.88Z"/><path class="cls-4" d="M53.228,163.151h12.93a5.822,5.822,0,0,1,5.822,5.822v18.968a0,0,0,0,1,0,0H47.406a0,0,0,0,1,0,0V168.973A5.822,5.822,0,0,1,53.228,163.151Z" transform="translate(119.386 351.092) rotate(180)"/><path class="cls-3" d="M59.047,133.719c0.223-5.728.483-12.512-3.771-17-3.321-3.5-11.838-5.92-16.612-6.044a0.742,0.742,0,0,1,0-1.482c3.641,0.094,7.439,1.538,10.868,2.7,2.523,0.857,4.91,1.8,6.792,3.776,4.57,4.788,4.444,11.9,4.205,18.05a0.742,0.742,0,0,1-1.482,0h0Z"/><path class="cls-3" d="M37.065,108.595a0.463,0.463,0,0,1,.363-0.1l5.376,0.046a18.955,18.955,0,0,1,4.624.419c3.031,0.788,5.484,3.027,7.4,5.5l0.558,0.085c-2.8.892-5.542,2.063-8.462,2.367s-6.155-.436-7.984-2.732a11.122,11.122,0,0,1-1.926-5.2A0.462,0.462,0,0,1,37.065,108.595Z"/><path class="cls-5" d="M277.065,132.665a12.986,12.986,0,0,0-1.021-5.051,27.535,27.535,0,0,0-5.318,24.139l1.607,1.493a16.694,16.694,0,0,0,4.648-9.674A49.7,49.7,0,0,0,277.065,132.665Z"/><path class="cls-5" d="M291.722,142.031a0.847,0.847,0,0,0-.47-0.219A12.257,12.257,0,0,0,276.32,153.78l1.083,1.308c2.285,0.623,4.674-.542,6.57-1.961a23.382,23.382,0,0,0,7.745-10.216A0.876,0.876,0,0,0,291.722,142.031Z"/><path class="cls-5" d="M256.246,141.834c-2.43-1.974-5.257-3.9-8.382-3.713a0.994,0.994,0,0,0-.865.391c-0.341.648,0.752,1.135,0.964,1.836a2.633,2.633,0,0,1-.161,1.253,4.084,4.084,0,0,0,.378,2.277,17.892,17.892,0,0,0,18.59,10.757l0.951-1.493A84.408,84.408,0,0,0,256.246,141.834Z"/><path class="cls-5" d="M265.2,153.594c5.451,5.176,6.151,12.857,5.211,19.943-0.2,1.543,2.223,1.528,2.426,0,1.024-7.719-.03-16.064-5.922-21.658a1.214,1.214,0,0,0-1.715,1.715h0Z"/><path class="cls-5" d="M270.526,151.134c1.153,6.813-.317,13.7.411,20.542,0.163,1.536,2.591,1.553,2.426,0-0.752-7.07.695-14.141-.5-21.187-0.26-1.536-2.6-.885-2.339.645h0Z"/><path class="cls-5" d="M277.635,150.652a34.167,34.167,0,0,0-4.957,9.8c-1.015,3.819-.725,8.116-0.9,12.04-0.07,1.561,2.356,1.557,2.426,0,0.165-3.7-.1-7.8.813-11.395,0.836-3.281,2.848-6.421,4.713-9.22,0.868-1.3-1.232-2.519-2.095-1.224h0Z"/><path class="cls-4" d="M280.368,187.767h-13.54a1.226,1.226,0,0,1-1.185-.912l-4.609-17.4a1.226,1.226,0,0,1,1.185-1.54h22.759a1.226,1.226,0,0,1,1.185,1.54l-4.609,17.4A1.226,1.226,0,0,1,280.368,187.767Z"/><path class="cls-6" d="M275.428,130.235c-1.8,6.8-1.818,13.883-3.46,20.711a0.175,0.175,0,0,0,.338.093c1.642-6.828,1.657-13.916,3.46-20.711a0.175,0.175,0,0,0-.338-0.093h0Z"/><path class="cls-6" d="M277.657,152.988a23.182,23.182,0,0,1,12.017-9.51c0.212-.074.12-0.413-0.093-0.338a23.571,23.571,0,0,0-12.227,9.671,0.176,0.176,0,0,0,.3.177h0Z"/><path class="cls-6" d="M248.674,140.291a14.053,14.053,0,0,0,5.411,6.336c3.458,2.423,7.906,3.616,11.075,6.334,0.2,0.171.492-.118,0.291-0.291-2.205-1.891-5.013-2.671-7.51-4.1-3.584-2.046-7.284-4.407-8.87-8.393-0.1-.243-0.494-0.137-0.4.109h0Z"/><path id="_Rectangle_" data-name="&lt;Rectangle&gt;" class="cls-7" d="M80.622,25.065H238.043a7.13,7.13,0,0,1,7.13,7.13V188.379a0,0,0,0,1,0,0H73.492a0,0,0,0,1,0,0V32.2A7.13,7.13,0,0,1,80.622,25.065Z"/><path id="_Path_" data-name="&lt;Path&gt;" class="cls-8" d="M245.174,46.91v-15.9a5.949,5.949,0,0,0-5.949-5.949H79.441a5.949,5.949,0,0,0-5.949,5.949v15.9H245.174Z"/><circle id="_Path_2" data-name="&lt;Path&gt;" class="cls-9" cx="86.501" cy="35.987" r="1.873"/><circle id="_Path_3" data-name="&lt;Path&gt;" class="cls-9" cx="94.906" cy="35.987" r="1.873"/><circle id="_Path_4" data-name="&lt;Path&gt;" class="cls-9" cx="103.31" cy="35.987" r="1.873"/><circle class="cls-5" cx="82.375" cy="58.132" r="1.506"/><circle class="cls-5" cx="82.375" cy="66.976" r="1.506"/><circle class="cls-5" cx="82.375" cy="75.821" r="1.506"/><circle class="cls-5" cx="82.375" cy="84.665" r="1.506"/><circle class="cls-5" cx="82.375" cy="93.509" r="1.506"/><circle class="cls-5" cx="82.375" cy="102.353" r="1.506"/><path class="cls-10" d="M73.492,149.059h55.821a3.52,3.52,0,0,0,3.52-3.52v-31.5a3.52,3.52,0,0,0-3.52-3.52H73.492v38.535Z"/><path class="cls-11" d="M73.492,148.885h55.64a3.508,3.508,0,0,0,3.508-3.508V114.032a3.508,3.508,0,0,0-3.508-3.508H73.492v38.361Z"/><path class="cls-12" d="M73.492,148.711H128.95a3.5,3.5,0,0,0,3.5-3.5V114.021a3.5,3.5,0,0,0-3.5-3.5H73.492v38.187Z"/><path class="cls-13" d="M73.492,148.537h55.277a3.485,3.485,0,0,0,3.486-3.486V114.009a3.485,3.485,0,0,0-3.486-3.486H73.492v38.013Z"/><path class="cls-14" d="M73.492,148.364h55.1a3.474,3.474,0,0,0,3.474-3.474V114a3.474,3.474,0,0,0-3.474-3.474h-55.1v37.84Z"/><path class="cls-15" d="M73.492,148.19h54.914a3.463,3.463,0,0,0,3.463-3.463V113.987a3.463,3.463,0,0,0-3.463-3.463H73.492V148.19Z"/><path class="cls-16" d="M73.492,148.016h54.733a3.451,3.451,0,0,0,3.451-3.451v-30.59a3.451,3.451,0,0,0-3.451-3.451H73.492v37.492Z"/><path class="cls-17" d="M73.492,147.842h54.551a3.44,3.44,0,0,0,3.44-3.44V113.964a3.44,3.44,0,0,0-3.44-3.44H73.492v37.318Z"/><path class="cls-18" d="M73.492,147.668h54.37a3.428,3.428,0,0,0,3.428-3.428V113.952a3.428,3.428,0,0,0-3.428-3.428H73.492v37.144Z"/><path class="cls-19" d="M73.492,147.495H127.68a3.417,3.417,0,0,0,3.417-3.417V113.941a3.417,3.417,0,0,0-3.417-3.417H73.492v36.971Z"/><path class="cls-20" d="M73.492,147.321H127.5a3.405,3.405,0,0,0,3.405-3.405V113.929a3.405,3.405,0,0,0-3.405-3.405H73.492v36.8Z"/><path class="cls-21" d="M73.492,147.147h53.825a3.394,3.394,0,0,0,3.394-3.394V113.918a3.394,3.394,0,0,0-3.394-3.394H73.492v36.623Z"/><path class="cls-22" d="M73.492,146.973h53.644a3.383,3.383,0,0,0,3.382-3.383V113.906a3.383,3.383,0,0,0-3.382-3.383H73.492v36.449Z"/><path class="cls-23" d="M73.492,146.8h53.463a3.371,3.371,0,0,0,3.371-3.371V113.9a3.371,3.371,0,0,0-3.371-3.371H73.492V146.8Z"/><path class="cls-24" d="M73.492,146.626h53.281a3.36,3.36,0,0,0,3.36-3.36V113.884a3.36,3.36,0,0,0-3.36-3.36H73.492v36.1Z"/><path class="cls-25" d="M73.492,146.452h53.1a3.348,3.348,0,0,0,3.348-3.348V113.872a3.348,3.348,0,0,0-3.348-3.348h-53.1v35.928Z"/><path class="cls-26" d="M73.492,146.278H126.41a3.337,3.337,0,0,0,3.337-3.337v-29.08a3.337,3.337,0,0,0-3.337-3.337H73.492v35.754Z"/><path class="cls-27" d="M73.492,146.1h52.737a3.325,3.325,0,0,0,3.325-3.325v-28.93a3.325,3.325,0,0,0-3.325-3.325H73.492V146.1Z"/><path class="cls-28" d="M73.492,145.93h52.555a3.314,3.314,0,0,0,3.314-3.314V113.838a3.314,3.314,0,0,0-3.314-3.314H73.492V145.93Z"/><path class="cls-29" d="M73.492,145.757h52.374a3.3,3.3,0,0,0,3.3-3.3V113.826a3.3,3.3,0,0,0-3.3-3.3H73.492v35.233Z"/><path class="cls-30" d="M73.492,145.583h52.193a3.291,3.291,0,0,0,3.291-3.291V113.815a3.291,3.291,0,0,0-3.291-3.291H73.492v35.059Z"/><path class="cls-31" d="M73.492,145.409H125.5a3.28,3.28,0,0,0,3.28-3.28V113.8a3.28,3.28,0,0,0-3.28-3.28H73.492v34.885Z"/><path class="cls-32" d="M73.492,145.235h51.83a3.268,3.268,0,0,0,3.268-3.268V113.792a3.268,3.268,0,0,0-3.268-3.268H73.492v34.711Z"/><path class="cls-33" d="M73.492,145.062H125.14A3.257,3.257,0,0,0,128.4,141.8V113.781a3.257,3.257,0,0,0-3.257-3.257H73.492v34.538Z"/><path class="cls-34" d="M73.492,144.888h51.467a3.245,3.245,0,0,0,3.245-3.245V113.769a3.245,3.245,0,0,0-3.245-3.245H73.492v34.364Z"/><path class="cls-35" d="M73.492,144.714h51.285a3.234,3.234,0,0,0,3.234-3.234V113.758a3.234,3.234,0,0,0-3.234-3.234H73.492v34.19Z"/><path class="cls-36" d="M73.492,144.54h51.1a3.222,3.222,0,0,0,3.222-3.222V113.746a3.222,3.222,0,0,0-3.222-3.222h-51.1V144.54Z"/><path class="cls-37" d="M73.492,144.366h50.923a3.211,3.211,0,0,0,3.211-3.211V113.735a3.211,3.211,0,0,0-3.211-3.211H73.492v33.842Z"/><path class="cls-38" d="M73.492,144.193h50.741a3.2,3.2,0,0,0,3.2-3.2v-27.27a3.2,3.2,0,0,0-3.2-3.2H73.492v33.669Z"/><path class="cls-39" d="M73.492,144.019h50.56a3.188,3.188,0,0,0,3.188-3.188V113.712a3.188,3.188,0,0,0-3.188-3.188H73.492v33.495Z"/><path class="cls-40" d="M73.492,143.845H123.87a3.177,3.177,0,0,0,3.177-3.177V113.7a3.177,3.177,0,0,0-3.177-3.177H73.492v33.321Z"/><path class="cls-41" d="M73.492,143.671h50.2a3.165,3.165,0,0,0,3.165-3.165V113.689a3.165,3.165,0,0,0-3.165-3.165h-50.2v33.147Z"/><path class="cls-42" d="M73.492,143.5h50.015a3.154,3.154,0,0,0,3.154-3.154V113.678a3.154,3.154,0,0,0-3.154-3.154H73.492V143.5Z"/><path class="cls-43" d="M73.492,143.324h49.834a3.142,3.142,0,0,0,3.142-3.142V113.666a3.142,3.142,0,0,0-3.142-3.142H73.492v32.8Z"/><path class="cls-44" d="M73.492,143.15h49.653a3.131,3.131,0,0,0,3.131-3.131V113.655a3.131,3.131,0,0,0-3.131-3.131H73.492V143.15Z"/><path class="cls-45" d="M73.492,142.976h49.471a3.119,3.119,0,0,0,3.119-3.119V113.643a3.119,3.119,0,0,0-3.119-3.119H73.492v32.452Z"/><path class="cls-46" d="M73.492,142.8h49.29a3.108,3.108,0,0,0,3.108-3.108V113.632a3.108,3.108,0,0,0-3.108-3.108H73.492V142.8Z"/><path class="cls-47" d="M73.492,142.629H122.6a3.1,3.1,0,0,0,3.1-3.1V113.62a3.1,3.1,0,0,0-3.1-3.1H73.492v32.1Z"/><path class="cls-48" d="M73.492,142.455h48.927a3.085,3.085,0,0,0,3.085-3.085V113.609a3.085,3.085,0,0,0-3.085-3.085H73.492v31.931Z"/><path class="cls-49" d="M73.492,142.281h48.746a3.074,3.074,0,0,0,3.074-3.074V113.6a3.074,3.074,0,0,0-3.074-3.074H73.492v31.757Z"/><path class="cls-50" d="M73.492,142.107h48.564a3.062,3.062,0,0,0,3.062-3.062V113.586a3.062,3.062,0,0,0-3.062-3.062H73.492v31.583Z"/><path class="cls-4" d="M73.492,141.933h48.383a3.051,3.051,0,0,0,3.051-3.051V113.575a3.051,3.051,0,0,0-3.051-3.051H73.492v31.409Z"/><rect class="cls-9" x="63.376" y="106.278" width="64.494" height="37.91" rx="3.463" ry="3.463"/><rect class="cls-51" x="69.691" y="110.52" width="25.932" height="2.309"/><rect class="cls-52" x="69.691" y="115.486" width="12.966" height="2.309"/><path class="cls-5" d="M66.833,138.867c2.12-2.875,4.4-6.567,6.829-9.188a5.67,5.67,0,0,1,3.069-2.069c1.757-.265,3.306,1.073,4.6,2.288,1.551,1.452,3.254,2.921,5.343,3.31,2.573,0.479,5.121-.776,7.416-2.033a17.34,17.34,0,0,0,5.454-4.049c1.369-1.716,2.136-3.956,3.9-5.26a1.882,1.882,0,0,1,2.813.326c1.223,1.257,1.661,3.051,2.294,4.686s1.7,3.332,3.41,3.718c2.226,0.5,4.241-1.456,5.374-3.437s2.016-4.3,3.992-5.445a2.028,2.028,0,0,1,2.005-.193,2.552,2.552,0,0,1,.876,2.067l0.884,9.646c0.123,1.336.213,4.538-.561,5.633h-57.7Z"/><rect class="cls-9" x="88.388" y="151.757" width="134.753" height="32.182" rx="2.011" ry="2.011"/><rect class="cls-5" x="94.043" y="158.439" width="31.747" height="19.798"/><polygon class="cls-4" points="98.951 165.722 94.067 172.774 94.043 178.238 106.616 178.238 98.951 165.722"/><polygon class="cls-9" points="99.724 169.396 100.163 170.122 100.937 169.004 98.951 165.722 96.7 168.973 97.396 170.122 97.928 169.353 98.78 170.761 99.724 169.396"/><polygon class="cls-4" points="104.911 175.516 108.626 169.98 113.74 178.238 106.603 178.238 104.911 175.516"/><circle class="cls-3" cx="116.415" cy="165.182" r="3.486"/><polygon class="cls-9" points="109.444 173.654 109.883 174.38 110.657 173.262 108.626 169.98 106.42 173.23 107.115 174.38 107.647 173.611 108.499 175.019 109.444 173.654"/><rect class="cls-51" x="127.605" y="158.782" width="88.47" height="1.858"/><rect class="cls-51" x="127.605" y="163.324" width="88.47" height="1.858"/><rect class="cls-51" x="127.605" y="167.866" width="88.47" height="1.858"/><rect class="cls-53" x="127.605" y="172.408" width="33.637" height="1.859"/><path id="_Compound_Path_" data-name="&lt;Compound Path&gt;" class="cls-54" d="M77.117,183.067h1.45a0.532,0.532,0,0,0,.531-0.532l0-1.85a0.532,0.532,0,0,0-.532-0.531H77.43a0.447,0.447,0,0,1-.416-0.3q-0.06-.159-0.13-0.314a0.447,0.447,0,0,1,.083-0.5l0.8-.8a0.532,0.532,0,0,0,0-.752l-1.309-1.307a0.532,0.532,0,0,0-.752,0l-0.809.809a0.439,0.439,0,0,1-.484.093c-0.115-.049-0.24-0.1-0.348-0.141a0.437,0.437,0,0,1-.278-0.408v-1.147a0.532,0.532,0,0,0-.532-0.532h-1.85a0.532,0.532,0,0,0-.532.532v1.135a0.446,0.446,0,0,1-.3.415q-0.167.063-.329,0.137a0.446,0.446,0,0,1-.5-0.081l-0.806-.8a0.531,0.531,0,0,0-.752,0l-1.3,1.312a0.532,0.532,0,0,0,0,.752L67.7,179.06a0.439,0.439,0,0,1,.094.484c-0.049.115-.1,0.24-0.14,0.347a0.437,0.437,0,0,1-.408.279l-1.147,0a0.532,0.532,0,0,0-.53.533l0,1.85a0.532,0.532,0,0,0,.533.53l1.135,0a0.448,0.448,0,0,1,.416.3q0.06,0.159.131,0.313a0.447,0.447,0,0,1-.082.5l-0.8.8a0.532,0.532,0,0,0,0,.752l1.311,1.305a0.531,0.531,0,0,0,.752,0l0.808-.811a0.439,0.439,0,0,1,.484-0.094c0.115,0.049.24,0.1,0.348,0.141a0.437,0.437,0,0,1,.279.408l0,1.147a0.531,0.531,0,0,0,.533.531l1.85,0a0.531,0.531,0,0,0,.531-0.532l0-1.135a0.447,0.447,0,0,1,.3-0.416q0.159-.06.314-0.131a0.447,0.447,0,0,1,.5.083l0.8,0.8a0.532,0.532,0,0,0,.752,0l1.306-1.31a0.532,0.532,0,0,0,0-.752l-0.81-.808a0.439,0.439,0,0,1-.093-0.484C76.989,183.416,77.111,183.086,77.117,183.067Zm-7.361-1.925a2.621,2.621,0,1,1,1.632,2.916A2.621,2.621,0,0,1,69.755,181.142Z"/><rect class="cls-52" x="248.173" y="175.56" width="12.381" height="12.381" rx="2.612" ry="2.612"/><path class="cls-9" d="M251.12,182.119v0.018l1.677,0.55v0.933l-2.685-1.094v-0.808l2.685-1.094v0.929Z"/><path class="cls-9" d="M254.091,184.152h-1.036l1.51-4.8H255.6Z"/><path class="cls-9" d="M257.606,182.132v-0.018l-1.662-.553v-0.93l2.67,1.094v0.808l-2.67,1.094V182.7Z"/><circle id="_Path_5" data-name="&lt;Path&gt;" class="cls-5" cx="120.267" cy="71.725" r="7.83"/><g id="_Group_" data-name="&lt;Group&gt;"><polygon id="_Path_6" data-name="&lt;Path&gt;" class="cls-9" points="119.231 74.898 116.511 72.178 118.065 70.624 119.231 71.791 122.468 68.552 124.022 70.106 119.231 74.898"/></g><g class="cls-55"><path class="cls-10" d="M254.037,49.689H155.374a4.089,4.089,0,0,0-4.089,4.089V98.644a4.089,4.089,0,0,0,4.089,4.089h98.663V49.689Z"/><path class="cls-11" d="M254.037,49.689H155.652a4.078,4.078,0,0,0-4.078,4.078V98.39a4.078,4.078,0,0,0,4.078,4.078h98.385V49.689Z"/><path class="cls-12" d="M254.037,49.689H155.931a4.066,4.066,0,0,0-4.066,4.066V98.136a4.066,4.066,0,0,0,4.066,4.066h98.106V49.689Z"/><path class="cls-13" d="M254.037,49.689H156.21a4.055,4.055,0,0,0-4.055,4.055V97.882a4.055,4.055,0,0,0,4.055,4.055h97.827V49.689Z"/><path class="cls-14" d="M254.037,49.689H156.488a4.043,4.043,0,0,0-4.043,4.043v43.9a4.043,4.043,0,0,0,4.043,4.043h97.549V49.689Z"/><path class="cls-15" d="M254.037,49.689h-97.27a4.032,4.032,0,0,0-4.032,4.032V97.373a4.032,4.032,0,0,0,4.032,4.031h97.27V49.689Z"/><path class="cls-16" d="M254.037,49.689H157.046a4.02,4.02,0,0,0-4.02,4.02V97.119a4.02,4.02,0,0,0,4.02,4.02h96.992V49.689Z"/><path class="cls-17" d="M254.037,49.689H157.324a4.008,4.008,0,0,0-4.008,4.008V96.865a4.008,4.008,0,0,0,4.008,4.008h96.713V49.689Z"/><path class="cls-18" d="M254.037,49.689H157.6a4,4,0,0,0-4,4V96.611a4,4,0,0,0,4,4h96.434V49.689Z"/><path class="cls-19" d="M254.037,49.689H157.881a3.985,3.985,0,0,0-3.985,3.985V96.357a3.985,3.985,0,0,0,3.985,3.985h96.156V49.689Z"/><path class="cls-20" d="M254.037,49.689H158.16a3.974,3.974,0,0,0-3.974,3.974V96.1a3.974,3.974,0,0,0,3.974,3.974h95.877V49.689Z"/><path class="cls-21" d="M254.037,49.689h-95.6a3.962,3.962,0,0,0-3.962,3.962v42.2a3.962,3.962,0,0,0,3.962,3.962h95.6V49.689Z"/><path class="cls-22" d="M254.037,49.689h-95.32a3.951,3.951,0,0,0-3.951,3.951V95.595a3.951,3.951,0,0,0,3.951,3.951h95.32V49.689Z"/><path class="cls-23" d="M254.037,49.689H159a3.939,3.939,0,0,0-3.939,3.939V95.341A3.939,3.939,0,0,0,159,99.28h95.041V49.689Z"/><path class="cls-24" d="M254.037,49.689H159.275a3.928,3.928,0,0,0-3.928,3.928v41.47a3.928,3.928,0,0,0,3.928,3.928h94.762V49.689Z"/><path class="cls-25" d="M254.037,49.689H159.553a3.916,3.916,0,0,0-3.916,3.916V94.832a3.916,3.916,0,0,0,3.916,3.916h94.484V49.689Z"/><path class="cls-26" d="M254.037,49.689H159.832a3.9,3.9,0,0,0-3.9,3.9V94.578a3.9,3.9,0,0,0,3.9,3.9h94.205V49.689Z"/><path class="cls-27" d="M254.037,49.689H160.111a3.893,3.893,0,0,0-3.893,3.893V94.324a3.893,3.893,0,0,0,3.893,3.893h93.927V49.689Z"/><path class="cls-28" d="M254.037,49.689H160.389a3.881,3.881,0,0,0-3.881,3.881v40.5a3.881,3.881,0,0,0,3.881,3.881h93.648V49.689Z"/><path class="cls-29" d="M254.037,49.689H160.668a3.87,3.87,0,0,0-3.87,3.87V93.816a3.87,3.87,0,0,0,3.87,3.87h93.369v-48Z"/><path class="cls-30" d="M254.037,49.689H160.947a3.858,3.858,0,0,0-3.858,3.858V93.562a3.858,3.858,0,0,0,3.858,3.858h93.091V49.689Z"/><path class="cls-31" d="M254.037,49.689H161.225a3.847,3.847,0,0,0-3.847,3.847V93.308a3.847,3.847,0,0,0,3.847,3.847h92.812V49.689Z"/><path class="cls-32" d="M254.037,49.689H161.5a3.835,3.835,0,0,0-3.835,3.835v39.53a3.835,3.835,0,0,0,3.835,3.835h92.533v-47.2Z"/><path class="cls-33" d="M254.037,49.689H161.782a3.824,3.824,0,0,0-3.824,3.824V92.8a3.824,3.824,0,0,0,3.824,3.824h92.255V49.689Z"/><path class="cls-34" d="M254.037,49.689H162.061a3.812,3.812,0,0,0-3.812,3.812V92.546a3.812,3.812,0,0,0,3.812,3.812h91.976V49.689Z"/><path class="cls-35" d="M254.037,49.689h-91.7a3.8,3.8,0,0,0-3.8,3.8v38.8a3.8,3.8,0,0,0,3.8,3.8h91.7v-46.4Z"/><path class="cls-36" d="M254.037,49.689H162.618a3.789,3.789,0,0,0-3.789,3.789v38.56a3.789,3.789,0,0,0,3.789,3.789h91.419V49.689Z"/><path class="cls-37" d="M254.037,49.689H162.9a3.777,3.777,0,0,0-3.777,3.778V91.783a3.777,3.777,0,0,0,3.777,3.777h91.14V49.689Z"/><path class="cls-38" d="M254.037,49.689H163.176a3.766,3.766,0,0,0-3.766,3.766V91.529a3.766,3.766,0,0,0,3.766,3.766h90.861V49.689Z"/><path class="cls-39" d="M254.037,49.689H163.454a3.754,3.754,0,0,0-3.754,3.754V91.275a3.754,3.754,0,0,0,3.754,3.754h90.583V49.689Z"/><path class="cls-40" d="M254.037,49.689h-90.3a3.743,3.743,0,0,0-3.743,3.743v37.59a3.743,3.743,0,0,0,3.743,3.743h90.3V49.689Z"/><path class="cls-41" d="M254.037,49.689H164.012a3.731,3.731,0,0,0-3.731,3.731V90.767a3.731,3.731,0,0,0,3.731,3.731h90.026V49.689Z"/><path class="cls-42" d="M254.037,49.689H164.29a3.72,3.72,0,0,0-3.72,3.72v37.1a3.72,3.72,0,0,0,3.72,3.72h89.747V49.689Z"/><path class="cls-43" d="M254.037,49.689H164.569a3.708,3.708,0,0,0-3.708,3.708V90.259a3.708,3.708,0,0,0,3.708,3.708h89.468V49.689Z"/><path class="cls-44" d="M254.037,49.689h-89.19a3.7,3.7,0,0,0-3.7,3.7V90a3.7,3.7,0,0,0,3.7,3.7h89.19V49.689Z"/><path class="cls-45" d="M254.037,49.689H165.126a3.685,3.685,0,0,0-3.685,3.685V89.751a3.685,3.685,0,0,0,3.685,3.685h88.911V49.689Z"/><path class="cls-46" d="M254.037,49.689H165.4a3.674,3.674,0,0,0-3.673,3.674V89.5A3.674,3.674,0,0,0,165.4,93.17h88.632V49.689Z"/><path class="cls-47" d="M254.037,49.689H165.683a3.662,3.662,0,0,0-3.662,3.662V89.242a3.662,3.662,0,0,0,3.662,3.662h88.354V49.689Z"/><path class="cls-48" d="M254.037,49.689H165.962a3.65,3.65,0,0,0-3.65,3.65V88.988a3.65,3.65,0,0,0,3.65,3.65h88.075V49.689Z"/><path class="cls-49" d="M254.037,49.689h-87.8a3.639,3.639,0,0,0-3.639,3.639V88.734a3.639,3.639,0,0,0,3.639,3.639h87.8V49.689Z"/><path class="cls-50" d="M254.037,49.689H166.519a3.627,3.627,0,0,0-3.627,3.627V88.48a3.627,3.627,0,0,0,3.627,3.627h87.518V49.689Z"/><path class="cls-4" d="M254.037,49.689H166.8a3.616,3.616,0,0,0-3.616,3.616V88.226a3.616,3.616,0,0,0,3.616,3.616h87.239V49.689Z"/></g><rect class="cls-9" x="160.273" y="47.983" width="108.82" height="46.509" rx="4.305" ry="4.305"/><rect class="cls-51" x="166.562" y="54.442" width="1.982" height="33.59"/><rect class="cls-51" x="171.647" y="54.442" width="1.982" height="33.59"/><rect class="cls-51" x="176.733" y="54.442" width="1.982" height="33.59"/><rect class="cls-51" x="181.819" y="54.442" width="1.982" height="33.59"/><rect class="cls-51" x="186.904" y="54.442" width="1.982" height="33.59"/><rect class="cls-51" x="191.99" y="54.442" width="1.982" height="33.59"/><rect class="cls-56" x="166.562" y="73.246" width="1.982" height="14.786"/><rect class="cls-56" x="171.647" y="67.104" width="1.982" height="20.928"/><rect class="cls-56" x="176.733" y="63.981" width="1.982" height="24.051"/><rect class="cls-56" x="181.819" y="67.104" width="1.982" height="20.928"/><rect class="cls-56" x="186.904" y="60.962" width="1.982" height="27.07"/><rect class="cls-56" x="191.99" y="57.631" width="1.982" height="30.402"/><circle class="cls-3" cx="211.088" cy="60.14" r="5.494"/><rect class="cls-51" x="219.54" y="55.516" width="44.429" height="1.48"/><rect class="cls-51" x="219.54" y="59.824" width="44.429" height="1.48"/><rect class="cls-57" x="219.54" y="64.132" width="18.612" height="1.48"/><circle class="cls-3" cx="211.088" cy="81.377" r="5.494"/><rect class="cls-51" x="219.54" y="76.752" width="44.429" height="1.48"/><rect class="cls-51" x="219.54" y="81.06" width="44.429" height="1.48"/><rect class="cls-57" x="219.54" y="85.368" width="18.612" height="1.48"/><path class="cls-58" d="M216.567,85.182a6.921,6.921,0,0,0,2.042-4.711h6.2s0.122,3.913,1.6,4.711h-9.847Z"/><path class="cls-58" d="M206.668,92.422l-12.8,3.711a3.108,3.108,0,0,1-1.483.061l-13.538-2.746L177.8,90.829l-0.163.055a1.4,1.4,0,0,0-.953,1.327v0.771l-0.849.391-2.7.632-0.684.447h-2.521l0.907,0.831a0.921,0.921,0,0,0,.485.231l6.06,0.909,2.78,0.5,10.935,4.486a3.668,3.668,0,0,0,2.278.166L207.322,98.1Z"/><path class="cls-58" d="M235.45,92.422l12.8,3.711a3.108,3.108,0,0,0,1.483.061l13.538-2.746,1.047-2.618,0.163,0.055a1.4,1.4,0,0,1,.953,1.327v0.771l0.849,0.391,2.7,0.632,0.684,0.447h2.521l-0.907.831a0.92,0.92,0,0,1-.485.231l-6.06.909-2.78.5-10.935,4.486a3.669,3.669,0,0,1-2.278.166L234.8,98.1Z"/><path class="cls-58" d="M221.844,71.637a2.632,2.632,0,0,0-1.393-1.766l0.95-.782a4.889,4.889,0,0,0-1.232.175,7.763,7.763,0,0,0-1.138.514,1.772,1.772,0,0,0-1.142.915L217,72.567a4.538,4.538,0,0,0-.541,2.166l-0.078,1.112a4.255,4.255,0,0,0,.3,2.209,4.43,4.43,0,0,0,1.108,2.182,3.888,3.888,0,0,0,2.243.914,0.931,0.931,0,0,0,.533-0.124,1.044,1.044,0,0,0,.32-0.442A16.685,16.685,0,0,0,222,73.95,7.791,7.791,0,0,0,221.844,71.637Z"/><rect class="cls-58" x="231.451" y="182.071" width="4.304" height="3.602" transform="translate(467.205 367.745) rotate(180)"/><path class="cls-54" d="M234.879,184.551h-3.5l-0.656,1.969v0.948a0.948,0.948,0,0,0,.948.948h3.647l3.866-1.459v-0.667a3.405,3.405,0,0,0-1.41-2.759l-2.018-1.46v2.334Z"/><path class="cls-8" d="M231.669,187.1h3.647l3.792-1.431a3.378,3.378,0,0,1,.074.618v0.667l-3.866,1.459h-3.647a0.948,0.948,0,0,1-.948-0.948v-0.948l0.046-.138A0.935,0.935,0,0,0,231.669,187.1Z"/><rect class="cls-58" x="209.054" y="182.071" width="4.303" height="3.602"/><path class="cls-8" d="M210.918,124.921s-0.919,6.262-1.634,12.311a33.614,33.614,0,0,0-.23,3.952V183.02h4.3s3.325-14.574,4-24.289a51.793,51.793,0,0,1,1.184-7.649l4.52-20.35v-4.978Z"/><path class="cls-8" d="M233.923,126.519s0.965,5.4,1.687,11.505a19.781,19.781,0,0,1,.139,2.321V183.02l-4.3.077s-3.681-14-4.136-24.675a30.4,30.4,0,0,0-.743-5.034l-4.827-16.434v-11.2Z"/><path class="cls-54" d="M209.929,184.551h3.5l0.656,1.969v0.948a0.948,0.948,0,0,1-.948.948h-3.647l-3.866-1.459v-0.667a3.406,3.406,0,0,1,1.41-2.759l2.019-1.46v2.334Z"/><path class="cls-8" d="M213.139,187.1h-3.647l-3.792-1.431a3.37,3.37,0,0,0-.074.618v0.667l3.866,1.459h3.647a0.948,0.948,0,0,0,.948-0.948v-0.948l-0.046-.138A0.935,0.935,0,0,1,213.139,187.1Z"/><path class="cls-52" d="M226.413,84.771l4.819,1.5c1.761,0.547,10.859,7.15,10.859,7.15l-2.7,6.668-5.829-2.113,1.234,32.154c-3.745-3.164-16.041,4.745-25.741-1.236,0,0,4.449-20.561,1.459-30.335l-6.8,1.414-3.166-6.757,4.4-2.753a18.568,18.568,0,0,0,2.172-1.539A15.012,15.012,0,0,1,212.489,86l4.078-1.229h9.847Z"/><path class="cls-8" d="M227.551,75.242a8.833,8.833,0,0,1,.136-2.042,5.085,5.085,0,0,0-.535-2.807,6.2,6.2,0,0,0-1.369-1.9,6.346,6.346,0,0,0-4.3-1.2,3.682,3.682,0,0,0-1.367.209c-0.338.139-.636,0.368-0.985,0.477-0.231.072-.476,0.089-0.711,0.145a3.605,3.605,0,0,0-.909.388,2.335,2.335,0,0,0-.8.642,3.8,3.8,0,0,0-.052,3.1c0.131,0.309.32,0.59,0.447,0.9,0.462,1.133.039,2.449,0.348,3.633a22.146,22.146,0,0,0,1.069,2.3,7.049,7.049,0,0,0,.6,1.485c0.611,0.894,1.684,1,2.651,1.208a17.831,17.831,0,0,0,3.532.67c2.169,0.04,1.7-1.942,2.375-3.346a6.721,6.721,0,0,0,.48-0.954C228.442,77.183,227.7,76.235,227.551,75.242Z"/><path class="cls-58" d="M137.4,28.178l-5.261,4.134-1.48,17.948v3.876a1.028,1.028,0,0,0,.359.78h0a1.028,1.028,0,0,0,.669.247h2.343v2.347a0.622,0.622,0,0,0,.621.622h0a0.622,0.622,0,0,0,.621-0.633L135.2,53.592l0.432-.046a0.691,0.691,0,0,0,.607-0.806l-0.133-.759a1.352,1.352,0,0,0-.45-0.966l-0.74-.662-0.885-1.388,2-12.49,5.119-3.546Z"/><path class="cls-58" d="M185.7,26.567l18.885,16.589,4.9,2.387h3.007a0.694,0.694,0,0,1,.694.694h0a0.694,0.694,0,0,1-.694.694h-8.575a2.115,2.115,0,0,1-1.8-1.012l-0.4-.653L186.727,34.718l-5.742-3.335Z"/><path class="cls-52" d="M165.192,13.809l8.113,2.891a10.163,10.163,0,0,1,2.894,1.6l9.91,7.841L180.5,31.881s-5.746-3.364-5.983-2.832c-0.615,1.379-1.034,12.269-1.034,12.269l0.74,5.589H150.253l0.494-5.836L148.425,30.03l-7.012,3.357-4.46-5.78,9.993-9.474a8.495,8.495,0,0,1,2.365-1.585l6.1-2.739h9.782Z"/><g class="cls-59"><polygon class="cls-60" points="150.4 45.17 173.991 45.17 174.221 46.907 150.253 46.907 150.4 45.17"/></g><path class="cls-58" d="M160.367,22.367h0a3.978,3.978,0,0,0,3.978-3.978V14.734h-7.956v3.654A3.978,3.978,0,0,0,160.367,22.367Z"/><path class="cls-54" d="M154.06,6.08c0.048-.435.062-1.317,0.149-1.746a5.515,5.515,0,0,1,1.422-2.47,3.927,3.927,0,0,1,.919-0.9,7.382,7.382,0,0,1,4.177-.954,7.2,7.2,0,0,1,1.613.331c0.121,0.036,1.46.865,1.215,0.989a1.672,1.672,0,0,1,1.784.425,6.562,6.562,0,0,1,1.542,2.708l0.525,1.408a1.873,1.873,0,0,1,.15,1.316c-0.073.184-.2,0.341-0.285,0.522a3.188,3.188,0,0,0-.024,1.528,3.369,3.369,0,0,1-.589,2.106,12.88,12.88,0,0,1-1.448,1.245l0.215-.069c-1.768,1.1-4.007.983-6.085,0.826l-2.953-.224a2.124,2.124,0,0,1-1.467-.5,4.059,4.059,0,0,1-.536-1.513c-0.232-.679-0.787-1.219-0.973-1.912C153.129,8.147,153.941,7.162,154.06,6.08Z"/><path class="cls-58" d="M160.314,18.342h0a4.9,4.9,0,0,0,4.9-4.9V6.593H155.41v6.846A4.9,4.9,0,0,0,160.314,18.342Z"/><path class="cls-54" d="M154.2,6.82a4.185,4.185,0,0,1,2.5-2.08,10.829,10.829,0,0,1,3.3-.451,8.1,8.1,0,0,1,1.7.088,8.741,8.741,0,0,1,1.938.7l1.329,0.6a2.773,2.773,0,0,1,1.125.752,2.5,2.5,0,0,1,.047,2.335l-0.172.136c-1.319-.175-2.291-1.267-3.212-2.226a0.383,0.383,0,0,0-.181-0.126,0.4,0.4,0,0,0-.266.074,12.157,12.157,0,0,1-4.622,1.152c-1.192.128-2.552,0.188-3.419-.641a0.28,0.28,0,0,1-.092-0.135A0.287,0.287,0,0,1,154.2,6.82Z"/><path class="cls-54" d="M165.235,14.177a8.706,8.706,0,0,0,.024-3.006,13.521,13.521,0,0,0-.813,1.748,1.644,1.644,0,0,1-1.492,1.033c-0.76-.087-1.172-0.939-1.843-1.3a1.979,1.979,0,0,0-1.355-.152,4.005,4.005,0,0,0-1.266.563,2.268,2.268,0,0,1-1.634.565,1.407,1.407,0,0,1-.85-0.738,8.1,8.1,0,0,1-.415-1.082,0.235,0.235,0,0,0-.154-0.172,5.492,5.492,0,0,0,.038,3.811,5.035,5.035,0,0,0,2.471,2.852,5.8,5.8,0,0,0,2.906.505,4.587,4.587,0,0,0,2.014-.535,4.718,4.718,0,0,0,1.875-2.384A8.637,8.637,0,0,0,165.235,14.177Z"/><rect class="cls-58" x="32.483" y="177.976" width="5.443" height="5.879" transform="translate(70.41 361.83) rotate(180)"/><rect class="cls-58" x="2.605" y="176.713" width="5.443" height="5.879" transform="translate(-38.588 353.937) rotate(-164.159)"/><polygon class="cls-52" points="28.235 131.818 38.2 151.614 38.592 180.712 31.907 180.712 31.268 156.265 21.052 141.671 28.235 131.818"/><polygon class="cls-61" points="29.03 133.396 26.525 138.114 26.037 148.792 21.052 141.671 28.235 131.818 29.03 133.396"/><path class="cls-52" d="M28.235,131.818l0.262,0.521-3.067,5.776-7.715,18.25a11.089,11.089,0,0,1-2.116,3.258h0L8.171,180.289l-5.9-.636,3.771-16.06A26,26,0,0,1,9.4,155.229a3.8,3.8,0,0,0,.709-1.882l2.736-16.912L12.379,134.6a7.687,7.687,0,0,1,.376-4.88l0.721-1.7Z"/><path class="cls-62" d="M38.592,105.307l7.318,9.822a1.348,1.348,0,0,0,.938.58l11.718,1.559a1.281,1.281,0,0,0,1.343-.71l2.053-4.258v-2.781a1.461,1.461,0,0,1,1.414-1.46h0v8.255l-1.954,2.852a1.211,1.211,0,0,1-.9.523l-14.427,1.144a2.206,2.206,0,0,1-1.826-.736l-12.36-13.954Z"/><rect class="cls-58" x="35.924" y="97.295" width="5.336" height="5.519" transform="translate(18.283 205.352) rotate(-147.991)"/><path class="cls-58" d="M44.814,88.948v2.1s-0.052,2.506,1.073,3.538l-0.8.2,0.008,0.8a3.6,3.6,0,0,1-3.6,3.641H39.118a2.728,2.728,0,0,1-2.582-1.847l-1.985-5.815,0.79-3.375S42.153,85.878,44.814,88.948Z"/><path class="cls-8" d="M40.4,108.606l-1.607-3.922,0.6-.875-5.661-3.754-4.63,1.695a3.158,3.158,0,0,0-1.695,1.468l-6.363,12.692a2.666,2.666,0,0,1-.188.318l-8.013,11.626,16.979,5.093,1.256-8.737a2.719,2.719,0,0,1,.568-1.149l8.014-9.574Z"/><path class="cls-8" d="M48.484,187.415l-0.254-.609a5.229,5.229,0,0,0-2.41-2.626L41.3,182.522,38.239,180.6v1.639l-3.5-.066-1.433-.8-1.005.013v6.029H48.484Z"/><rect class="cls-63" x="31.424" y="187.415" width="17.475" height="0.961" transform="translate(80.323 375.792) rotate(180)"/><path class="cls-8" d="M15.27,187.727l-0.2-.856a3.586,3.586,0,0,0-1.349-1.844l-3.674-2.442L7.729,180.22,7.38,181.68l-3.106-.806-1.105-1.018-0.9-.2-1.287,5.369,12.659,3.034Z"/><polygon class="cls-63" points="0 185.692 10.762 188.271 12.114 187.689 0.205 184.836 0 185.692"/><polygon class="cls-63" points="15.599 188.303 10.762 188.368 10.762 187.42 15.599 187.422 15.599 188.303"/><path class="cls-54" d="M37.406,84.406a4.753,4.753,0,0,1,2.5.17,12.548,12.548,0,0,0,1.386.642,8.677,8.677,0,0,0,1.855.014,4.193,4.193,0,0,1,1.19.1,1.416,1.416,0,0,1,.919.711,2.108,2.108,0,0,1,.089,1.089A4.041,4.041,0,0,1,45,89a2.034,2.034,0,0,1-1.324.734,2.294,2.294,0,0,0-.674.3c-0.675.493-.674,1.588-1.358,2.068-0.468.328-1.169,0.3-1.518,0.748a2.951,2.951,0,0,0-.286,1.328,1.84,1.84,0,0,1-1.1,1.346,1.289,1.289,0,0,0-.431.218,0.745,0.745,0,0,0-.186.361c-0.2.769,0.133,1.691-.36,2.313a4.858,4.858,0,0,1-1.326.761c-0.554.384-.425,0.724-0.444,1.393a2.705,2.705,0,0,0,1.386,2.836,12.367,12.367,0,0,0-1.405-.52,25.976,25.976,0,0,0,.382,3.35,4.137,4.137,0,0,1-1.4-1.651,1.308,1.308,0,0,0-1.111-.842,3.92,3.92,0,0,1-.625,1,4.653,4.653,0,0,0-1.094-1.88,14.881,14.881,0,0,1-.959,1.271,1.867,1.867,0,0,0-.543,1.478,4.486,4.486,0,0,0-.565-1.541,9.576,9.576,0,0,1-4.171,2.74,5.627,5.627,0,0,1,1.054-3.03,4.78,4.78,0,0,0,.7-1.8,5.787,5.787,0,0,1-.167-1.517c0.258-1.026,1.638-1.481,1.841-2.52,0.09-.462-0.081-0.952.046-1.406a4.078,4.078,0,0,1,.85-1.195,4.1,4.1,0,0,0,.6-1.889,5.925,5.925,0,0,1,.584-1.322c0.434-1.051-.833-2.262.495-3.08a4.773,4.773,0,0,0,.624-0.357,1.975,1.975,0,0,0,.465-0.766,11.123,11.123,0,0,1,1.081-1.949,1.7,1.7,0,0,1,.544-0.557,3.262,3.262,0,0,1,.716-0.209,7.649,7.649,0,0,0,1.124-.5A4.435,4.435,0,0,1,37.406,84.406Z"/><path class="cls-64" d="M32.019,108.012c0.971,0.451,1.954,1.265,1.7,2.3,1.166,0.317,1.4,1.453,2.614,2.144a0.464,0.464,0,0,1,.162.608l0.721,0.323a0.405,0.405,0,0,1,.2.469,4.769,4.769,0,0,1,1.1,1.008l-0.6.714a4.922,4.922,0,0,0-1.376-1.677,2.92,2.92,0,0,1-.738-0.861c-0.439-.16-0.482.559-0.537,0.139a0.576,0.576,0,0,1,.067-0.368c-0.716-.665-1.081-1.279-1.872-1.282-0.323,0-.337-0.257-0.137-0.547,0.642-.932-0.912-2.549-1.414-2.782C31.379,107.95,31.494,107.769,32.019,108.012Z"/><path class="cls-58" d="M40.4,108.606l5.509,7.983a1.348,1.348,0,0,0,.938.58l11.718,1.559a1.281,1.281,0,0,0,1.343-.71l2.053-4.258v-2.781a1.461,1.461,0,0,1,1.414-1.46h0v8.255l-1.954,2.852a1.211,1.211,0,0,1-.9.523l-14.427,1.144a2.206,2.206,0,0,1-1.826-.736l-9.4-10.111Z"/><path class="cls-64" d="M28.445,122.848c-0.2-.327.12-0.046,0.5,0.079a7.536,7.536,0,0,0,.845.174,1.222,1.222,0,0,0,1.31-.611,0.061,0.061,0,0,1,.012-0.019c-0.289-.1-1.293-0.858-1.6-0.935-0.569-.145-0.553-0.286.013-0.173,1,0.2,1.979.437,2.958,0.7l-0.838,1a2.707,2.707,0,0,0-.491.931l-0.1-.042c0.028,0.04.048,0.082,0.073,0.122-0.013.047-.038,0.09-0.048,0.137L30.7,126.815a0.422,0.422,0,0,1-.213-0.263l-0.416-1.393a0.413,0.413,0,0,1,.31-0.533C29.895,123.91,28.951,123.671,28.445,122.848Z"/><path class="cls-64" d="M23.363,116.921c-1.338-1-.843.075-1.333-0.193,0.07,0.125.746,0.858,0.816,0.983,0.19,0.34-.73.167-1.117,0.057-0.033-.009-0.066-0.015-0.1-0.023,0.055,0.044.006,0.406,0.061,0.453,0.384,0.324.059,0.5-.335,0.433A3.548,3.548,0,0,0,19,118.92l1.553-2.254a0.261,0.261,0,0,0,.225-0.327l0.078-.114a2.667,2.667,0,0,0,.188-0.319l0.273-.545c0.154,0.076.251-.158,0.177-0.354l1.341-2.675a0.419,0.419,0,0,1,.038.487,2.1,2.1,0,0,0-.287,2.259,9.887,9.887,0,0,0,1.431,1.807C24.343,117.251,23.8,117.246,23.363,116.921Z"/><circle class="cls-9" cx="35.831" cy="184.836" r="1.167"/><circle class="cls-9" cx="3.903" cy="183.669" r="1.167"/><path class="cls-58" d="M136.446,183.84l-3.241,1.441-5.18,1.326a1.465,1.465,0,0,0-1.144,1.429h0L142,187.972l-0.371-2.65-2.16-1.481h-3.024Z"/><path class="cls-8" d="M134.953,186.449l-1.748-1.168-5.074.858a2.176,2.176,0,0,0-1.25,1.9h0L142,187.972l-0.371-2.65-1.234,1.08-2.156-.018C137.244,186.571,135.844,186.935,134.953,186.449Z"/><polygon class="cls-58" points="141.004 185.321 136.446 184.168 136.446 177.882 141.004 177.882 141.004 185.321"/><path class="cls-8" d="M173.182,166.505s-28.881-10.442-32.246-9.148c0,0-4.307,0-5.222,6.854l0.167,14.8h5.661l1.493-11.3a1.2,1.2,0,0,1,1.73-.681l17.455,9.725Z"/><path class="cls-8" d="M157.735,169.154l-17.461,10.758a3.509,3.509,0,0,0-1.668,2.988v1.033a4.1,4.1,0,0,0,4.1,4.1l23.727-1.172v-6.911s7.272-2.832,6.911-8.886Z"/><polygon class="cls-58" points="167.711 179.338 179.642 188.036 179.642 188.036 166.436 186.864 166.436 179.953 167.711 179.338"/><path class="cls-8" d="M167.711,179.338l-1.275.615v2.962h0a2.66,2.66,0,0,1,2.5.1l5.872,4.476a2.673,2.673,0,0,0,1.62.547h3.217Z"/><path class="cls-58" d="M155.946,129.228s2.82,5.4.648,8.608l7.683-.712-3.071-9.771Z"/><path class="cls-8" d="M162.01,126.563a6.519,6.519,0,0,0-.656-1.765,11.645,11.645,0,0,0-3.293-4.632,21.49,21.49,0,0,1-2.1-1.4l-0.453.276-0.834.144a2.516,2.516,0,0,0-1.879,1.5,2.163,2.163,0,0,0,.477,2.314,6.087,6.087,0,0,0,1.3.787,5.64,5.64,0,0,1,2.239,2.3,8.412,8.412,0,0,0,.554,1.027,4.869,4.869,0,0,0,3.16,1.518,1.332,1.332,0,0,0,.671.019,0.946,0.946,0,0,0,.412-0.3A2.2,2.2,0,0,0,162.01,126.563Z"/><path class="cls-58" d="M161.753,124.455a32.2,32.2,0,0,0-2.06-3.3,2.19,2.19,0,0,0-1.9-1.095,17.4,17.4,0,0,0-2.784-.091l-0.144.2a12.338,12.338,0,0,0-.589,2.046c-0.15.739-1.248,2.492-1.324,3.247-0.011.112,0.978,0.224,0.967,0.336-0.037.4-.07,0.8-0.1,1.2a2.387,2.387,0,0,0,.035,1.231,2.614,2.614,0,0,0,1.216,1.8,3.335,3.335,0,0,0,2.46.043,11.119,11.119,0,0,0,3.205-1.49,3.158,3.158,0,0,0,1.645-2.351A3.623,3.623,0,0,0,161.753,124.455Z"/><path class="cls-9" d="M167.6,139.583c-1.6,4.945,7.356,31.545,7.356,31.545-3.826,5.06-13.056-2.036-19.006-.74,0,0,.063-11.169-2.19-16.168l-3.032-4.94a3.235,3.235,0,0,1,.144-3.6l5.726-7.844,8.2-3.112a1.727,1.727,0,0,1,1.937.506h0A4.589,4.589,0,0,1,167.6,139.583Z"/><path class="cls-8" d="M169.1,138.9c0.143-3.675-1.175-7.265-1.271-10.941-0.075-2.854.508-6.022-1.185-8.321-1.4-1.9-3.95-2.55-6.306-2.594a8.639,8.639,0,0,0-3.393.5,5.572,5.572,0,0,0-1.779,1.195,0.881,0.881,0,0,0-.445.889,1.875,1.875,0,0,0,.99.736c0.425,0.163.889,0.2,1.327,0.322,1.04,0.3,1.111,1.065,1.25,2.01a28.035,28.035,0,0,1,.289,3.344,8.363,8.363,0,0,0,.095,1.313,2.773,2.773,0,0,0,.191.629,5.343,5.343,0,0,0,1.652,1.762,3.426,3.426,0,0,1,1.3,1.652c0.174,0.785-.13,1.633.083,2.452,0.343,1.32,1.525,2.216,2.388,3.273a10.326,10.326,0,0,1,2.081,5.631c0.183,2.023,1.847,4.53,2.176,6.077C169.96,145.657,168.96,142.376,169.1,138.9Z"/><path class="cls-58" d="M130.169,144.725l13.434,10.4a2.034,2.034,0,0,0,1.99.284l16.637-6.554a2.97,2.97,0,0,0,1.478-4.257h0a2.97,2.97,0,0,0-3.747-1.231l-15.537,6.728-12.5-7.5-1.123-1.577-2.551-1.72-0.373-.1v1.183l0.2,0.06,0.258,0.717-2.781-.487-3.755-.688a0.807,0.807,0,0,0,0,.774l3.125,0.975-0.029.344-3.669-.946a0.823,0.823,0,0,0,0,.8l3.684,1.118-0.087.427-3.338-.8a0.563,0.563,0,0,0,0,.545l3.2,1.018a0.293,0.293,0,0,1-.014.272l-2.882-.5a0.436,0.436,0,0,0,.015.732l5.375,0.761a3.223,3.223,0,0,0,1.739-.236Z"/><path class="cls-9" d="M164.573,144a3.188,3.188,0,0,0-4.021-1.321l-8.534,2.94c-0.8,1.752,3.2,4.371,2.869,7.153l8.1-4.2A3.187,3.187,0,0,0,164.573,144Z"/><g id="_Group_2" data-name="&lt;Group&gt;"><g id="_Group_3" data-name="&lt;Group&gt;"><circle id="_Path_7" data-name="&lt;Path&gt;" class="cls-52" cx="190.867" cy="183.807" r="4.332"/></g><g id="_Group_4" data-name="&lt;Group&gt;"><path id="_Path_8" data-name="&lt;Path&gt;" class="cls-9" d="M192.438,186.292l-1.495-.761a0.1,0.1,0,0,0-.093,0l-1.474.8a0.1,0.1,0,0,1-.146-0.1l0.262-1.657a0.1,0.1,0,0,0-.03-0.088l-1.216-1.155a0.1,0.1,0,0,1,.053-0.17l1.657-.263a0.1,0.1,0,0,0,.074-0.055l0.723-1.514a0.1,0.1,0,0,1,.178,0l0.762,1.494a0.1,0.1,0,0,0,.076.054l1.663,0.22a0.1,0.1,0,0,1,.057.169l-1.186,1.186a0.1,0.1,0,0,0-.028.088l0.3,1.649A0.1,0.1,0,0,1,192.438,186.292Z"/></g></g><g id="_Group_5" data-name="&lt;Group&gt;"><g id="_Group_6" data-name="&lt;Group&gt;"><g id="_Group_7" data-name="&lt;Group&gt;"><rect id="_Rectangle_2" data-name="&lt;Rectangle&gt;" class="cls-54" x="281.731" y="181.464" width="8.946" height="6.744" rx="1.855" ry="1.855"/></g></g><g id="_Group_8" data-name="&lt;Group&gt;"><g id="_Group_9" data-name="&lt;Group&gt;"><polygon id="_Path_9" data-name="&lt;Path&gt;" class="cls-9" points="288.008 184.836 284.401 186.918 284.401 182.753 288.008 184.836 284.401 186.918 284.401 182.753 288.008 184.836"/></g></g></g></g></g></g></svg>