<svg xmlns="http://www.w3.org/2000/svg" xmlns:xlink="http://www.w3.org/1999/xlink" viewBox="0 0 297.926 189.688"><defs><style>.cls-1{isolation:isolate;}.cls-2{fill:url(#linear-gradient);}.cls-3{fill:#e0e3fd;}.cls-4{fill:#d1d4fc;}.cls-5{fill:#b2b8fa;}.cls-6{fill:#f3f4fe;}.cls-53,.cls-7{fill:#c1c6fb;}.cls-8{fill:#ffcebd;}.cls-9{fill:#e55151;}.cls-10,.cls-143{fill:#191c3c;}.cls-11{fill:#5f4dee;}.cls-12,.cls-20{fill:#fff;}.cls-13{fill:#4d5068;}.cls-14,.cls-17{fill:#231f20;}.cls-14{opacity:0.15;}.cls-15{fill:#474963;}.cls-16{fill:#75778a;}.cls-143,.cls-17{opacity:0.3;}.cls-18,.cls-28{fill:#f0f1fe;}.cls-19{mix-blend-mode:multiply;}.cls-20,.cls-64{opacity:0;}.cls-21,.cls-66{fill:#fdfdff;}.cls-21,.cls-65{opacity:0.024;}.cls-22,.cls-68{fill:#fbfcff;}.cls-22,.cls-67{opacity:0.049;}.cls-23,.cls-70{fill:#f9faff;}.cls-23,.cls-69{opacity:0.073;}.cls-24,.cls-72{fill:#f7f8ff;}.cls-24,.cls-71{opacity:0.098;}.cls-25,.cls-74{fill:#f6f6fe;}.cls-25,.cls-73{opacity:0.122;}.cls-26,.cls-76{fill:#f4f5fe;}.cls-26,.cls-75{opacity:0.146;}.cls-27,.cls-78{fill:#f2f3fe;}.cls-27,.cls-77{opacity:0.171;}.cls-28,.cls-79{opacity:0.195;}.cls-29,.cls-81{fill:#eeeffe;}.cls-29,.cls-80{opacity:0.22;}.cls-30,.cls-83{fill:#eceefe;}.cls-30,.cls-82{opacity:0.244;}.cls-31,.cls-85{fill:#eaecfe;}.cls-31,.cls-84{opacity:0.268;}.cls-32,.cls-87{fill:#e8eafe;}.cls-32,.cls-86{opacity:0.293;}.cls-33,.cls-89{fill:#e7e8fd;}.cls-33,.cls-88{opacity:0.317;}.cls-34,.cls-91{fill:#e5e7fd;}.cls-34,.cls-90{opacity:0.341;}.cls-35,.cls-93{fill:#e3e5fd;}.cls-35,.cls-92{opacity:0.366;}.cls-36,.cls-95{fill:#e1e3fd;}.cls-36,.cls-94{opacity:0.39;}.cls-37,.cls-97{fill:#dfe2fd;}.cls-37,.cls-96{opacity:0.415;}.cls-38,.cls-99{fill:#dde0fd;}.cls-38,.cls-98{opacity:0.439;}.cls-101,.cls-39{fill:#dbdefd;}.cls-100,.cls-39{opacity:0.463;}.cls-103,.cls-40{fill:#d9dcfd;}.cls-102,.cls-40{opacity:0.488;}.cls-105,.cls-41{fill:#d8dbfc;}.cls-104,.cls-41{opacity:0.512;}.cls-107,.cls-42{fill:#d6d9fc;}.cls-106,.cls-42{opacity:0.537;}.cls-109,.cls-43{fill:#d4d7fc;}.cls-108,.cls-43{opacity:0.561;}.cls-111,.cls-44{fill:#d2d5fc;}.cls-110,.cls-44{opacity:0.585;}.cls-113,.cls-45{fill:#d0d4fc;}.cls-112,.cls-45{opacity:0.61;}.cls-115,.cls-46{fill:#ced2fc;}.cls-114,.cls-46{opacity:0.634;}.cls-117,.cls-47{fill:#ccd0fc;}.cls-116,.cls-47{opacity:0.659;}.cls-119,.cls-48{fill:#cacffc;}.cls-118,.cls-48{opacity:0.683;}.cls-121,.cls-49{fill:#c9cdfb;}.cls-120,.cls-49{opacity:0.707;}.cls-123,.cls-50{fill:#c7cbfb;}.cls-122,.cls-50{opacity:0.732;}.cls-125,.cls-51{fill:#c5c9fb;}.cls-124,.cls-51{opacity:0.756;}.cls-127,.cls-52{fill:#c3c8fb;}.cls-126,.cls-52{opacity:0.78;}.cls-128,.cls-53{opacity:0.805;}.cls-130,.cls-54{fill:#bfc4fb;}.cls-129,.cls-54{opacity:0.829;}.cls-132,.cls-55{fill:#bdc2fb;}.cls-131,.cls-55{opacity:0.854;}.cls-134,.cls-56{fill:#bbc1fb;}.cls-133,.cls-56{opacity:0.878;}.cls-136,.cls-57{fill:#babffa;}.cls-135,.cls-57{opacity:0.902;}.cls-138,.cls-58{fill:#b8bdfa;}.cls-137,.cls-58{opacity:0.927;}.cls-140,.cls-59{fill:#b6bbfa;}.cls-139,.cls-59{opacity:0.951;}.cls-142,.cls-60{fill:#b4bafa;}.cls-141,.cls-60{opacity:0.976;}.cls-61{fill:#ffdfd6;}.cls-62{fill:#717386;}.cls-63{fill:#3a3c4e;}.cls-144{fill:#ef6767;}</style><linearGradient id="linear-gradient" x1="16.066" y1="214.99" x2="263.065" y2="54.991" gradientUnits="userSpaceOnUse"><stop offset="0" stop-color="#dfe1fd"/><stop offset="0.454" stop-color="#ebecfe"/><stop offset="1" stop-color="#f4f5fe"/></linearGradient></defs><title>description-icon-1</title><g class="cls-1"><g id="Graphics"><g id="Layer_8" data-name="Layer 8"><path class="cls-2" d="M292.227,131.746c5.5,8.781,8.206,19.733,2.628,28.063-4.8,7.174-14.327,10.048-19.137,17.218-2.43,3.621-3.709,8.358-7.5,10.507-2.33,1.32-5.145,1.355-7.822,1.355l-242.153.024c-2.706,0-5.518-.022-7.958-1.194-2.927-1.405-4.879-4.26-6.327-7.167a40.233,40.233,0,0,1,5.029-42.707c5.92-7.08,14.329-12.083,18.9-20.1C31.86,110.759,32.4,102.426,33.71,94.5,35.376,84.448,39.5,74.2,49.178,69.88c11.6-5.184,23.242-9.56,32.252-18.972,9.73-10.166,15.217-24.632,27.315-31.82,11.6-6.89,26.347-5.225,39.267-1.353S173.454,27.493,186.9,28.5c16.491,1.231,33.543-4.96,49.327-.024A37.007,37.007,0,0,1,259.75,51.256c5.28,15.178.224,32.69,6.431,47.513,4.646,11.1,14.781,18.742,22.455,28.006A46.526,46.526,0,0,1,292.227,131.746Z"/></g><g id="Layer_6" data-name="Layer 6"><rect class="cls-3" x="174.343" y="114.758" width="63.825" height="74.808" rx="3.34" ry="3.34"/><rect class="cls-4" x="179.422" y="120.566" width="53.667" height="17.333" rx="1.813" ry="1.813"/><rect class="cls-4" x="179.422" y="143.399" width="53.667" height="17.333" rx="1.813" ry="1.813"/><rect class="cls-4" x="179.422" y="166.233" width="53.667" height="17.333" rx="1.813" ry="1.813"/><circle class="cls-3" cx="206.256" cy="129.233" r="1.833"/><circle class="cls-3" cx="206.256" cy="152.162" r="1.833"/><circle class="cls-3" cx="206.256" cy="175.091" r="1.833"/><path class="cls-4" d="M58.5,80.66c-14.357,8.89-9.89,29.678-9.7,44.046q0.32,23.762.64,47.524a0.742,0.742,0,0,1-1.482,0q-0.383-28.4-.765-56.8c-0.18-13.368-2.467-27.989,10.556-36.053a0.742,0.742,0,0,1,.748,1.28h0Z"/><path class="cls-4" d="M50.525,87.891a18.1,18.1,0,0,1,2.316-3.934,19.26,19.26,0,0,1,5.607-4.1l0.3,0.16a17.793,17.793,0,0,1,1.172,9.617A10.681,10.681,0,0,1,54.4,97.313c-2.163,1.04-4.719,1.176-6.737,2.474C47.091,95.687,48.751,91.631,50.525,87.891Z"/><path class="cls-4" d="M35.486,62.676c14.259,5.656,11.19,27.286,11.765,39.475,0.974,20.671,1.5,41.341,1.366,62.037a0.742,0.742,0,0,1-1.482,0q0.169-25.811-.891-51.607c-0.326-7.769-.716-15.536-1.084-23.3-0.426-9.018-.011-21.184-10.068-25.173-0.876-.348-0.494-1.782.394-1.429h0Z"/><path class="cls-4" d="M45.247,87.554c0.026-.071.044-0.145,0.069-0.217a6.7,6.7,0,0,1,.577,1.09Z"/><path class="cls-4" d="M34.674,63.935a0.732,0.732,0,0,1,1.089-.492,15.576,15.576,0,0,1,9.887,9.88,21.46,21.46,0,0,1-.333,14.014c-1.772-2.8-5.372-4.2-7.893-6.519C32.949,76.7,32.262,69.519,34.674,63.935Z"/><path class="cls-5" d="M41.148,164.207h12.93a5.822,5.822,0,0,1,5.822,5.822V189a0,0,0,0,1,0,0H35.326a0,0,0,0,1,0,0V170.028A5.822,5.822,0,0,1,41.148,164.207Z" transform="translate(95.227 353.202) rotate(180)"/><path class="cls-4" d="M46.968,134.774c0.223-5.728.483-12.512-3.771-17-3.321-3.5-11.838-5.92-16.612-6.044a0.742,0.742,0,0,1,0-1.482c3.641,0.094,7.439,1.538,10.868,2.7,2.523,0.856,4.91,1.8,6.792,3.776,4.57,4.788,4.444,11.9,4.205,18.05a0.742,0.742,0,0,1-1.482,0h0Z"/><path class="cls-4" d="M24.986,109.65a0.463,0.463,0,0,1,.363-0.1l5.376,0.046a18.955,18.955,0,0,1,4.624.419c3.03,0.788,5.484,3.027,7.4,5.5l0.558,0.085c-2.8.892-5.542,2.063-8.462,2.367s-6.155-.436-7.984-2.732a11.122,11.122,0,0,1-1.926-5.2A0.462,0.462,0,0,1,24.986,109.65Z"/><g id="_Group_" data-name="&lt;Group&gt;"><g id="_Group_2" data-name="&lt;Group&gt;"><g id="_Group_3" data-name="&lt;Group&gt;"><path id="_Path_" data-name="&lt;Path&gt;" class="cls-3" d="M212.9,104.1H202.892v3.042a8.623,8.623,0,0,0,2.277,5.838h0V114.5h5.451v-1.518h0a8.623,8.623,0,0,0,2.277-5.838V104.1Z"/></g></g><g id="_Group_4" data-name="&lt;Group&gt;"><g id="_Group_5" data-name="&lt;Group&gt;"><path id="_Path_2" data-name="&lt;Path&gt;" class="cls-6" d="M210.839,104.1v3.042a8.623,8.623,0,0,1-2.277,5.838h0V114.5h1.176v-1.518h0a8.623,8.623,0,0,0,2.277-5.838V104.1h-1.176Z"/></g></g><g id="_Group_6" data-name="&lt;Group&gt;"><g id="_Group_7" data-name="&lt;Group&gt;"><g id="_Group_8" data-name="&lt;Group&gt;"><path id="_Path_3" data-name="&lt;Path&gt;" class="cls-3" d="M203.975,110.429h-1.646a2.714,2.714,0,1,1,0-5.428h1.058v1.15h-1.058a1.564,1.564,0,1,0,0,3.128h1.646v1.15Z"/></g></g></g><path id="_Path_4" data-name="&lt;Path&gt;" class="cls-4" d="M204.414,104.124v2.6a0.753,0.753,0,0,0,.753.753h0a0.753,0.753,0,0,0,.753-0.753v-0.1a0.641,0.641,0,0,1,.64-0.641h0a0.64,0.64,0,0,1,.64.641v4.247a0.736,0.736,0,0,0,.736.736h0a0.736,0.736,0,0,0,.736-0.736v-1.763a0.722,0.722,0,0,1,.722-0.722h0a0.75,0.75,0,0,0,.75-0.75v-3.513h-5.732Z"/></g><path class="cls-3" d="M273.255,141.31a11.256,11.256,0,0,0-.885-4.378,23.868,23.868,0,0,0-4.61,20.924l1.393,1.294a14.47,14.47,0,0,0,4.029-8.385A43.082,43.082,0,0,0,273.255,141.31Z"/><path class="cls-3" d="M285.959,149.429a0.734,0.734,0,0,0-.407-0.19,10.624,10.624,0,0,0-12.943,10.375l0.939,1.134c1.981,0.54,4.051-.469,5.695-1.7a20.268,20.268,0,0,0,6.714-8.856A0.759,0.759,0,0,0,285.959,149.429Z"/><path class="cls-3" d="M255.209,149.258c-2.106-1.711-4.557-3.384-7.266-3.219a0.861,0.861,0,0,0-.75.339c-0.3.561,0.652,0.984,0.836,1.591a2.282,2.282,0,0,1-.14,1.086,3.54,3.54,0,0,0,.328,1.974,15.509,15.509,0,0,0,16.114,9.324l0.824-1.294A73.172,73.172,0,0,0,255.209,149.258Z"/><path class="cls-3" d="M262.972,159.452c4.725,4.487,5.332,11.144,4.517,17.287-0.177,1.337,1.927,1.324,2.1,0,0.888-6.691-.026-13.924-5.133-18.773a1.052,1.052,0,0,0-1.487,1.487h0Z"/><path class="cls-3" d="M267.587,157.32c1,5.906-.275,11.872.356,17.806,0.142,1.332,2.246,1.346,2.1,0-0.652-6.129.6-12.257-.431-18.365-0.225-1.331-2.252-.767-2.028.559h0Z"/><path class="cls-3" d="M273.749,156.9a29.613,29.613,0,0,0-4.3,8.494c-0.88,3.311-.628,7.035-0.78,10.436a1.052,1.052,0,0,0,2.1,0c0.143-3.205-.089-6.762.705-9.877a27.463,27.463,0,0,1,4.085-7.992c0.752-1.129-1.068-2.183-1.816-1.061h0Z"/><path class="cls-5" d="M276.118,189.073H264.382a1.063,1.063,0,0,1-1.027-.791l-4-15.082a1.063,1.063,0,0,1,1.027-1.335h19.728a1.063,1.063,0,0,1,1.027,1.335l-4,15.082A1.063,1.063,0,0,1,276.118,189.073Z"/><path class="cls-7" d="M271.836,139.2c-1.563,5.891-1.576,12.034-3,17.952a0.152,0.152,0,0,0,.293.081c1.423-5.918,1.436-12.062,3-17.952a0.152,0.152,0,0,0-.293-0.081h0Z"/><path class="cls-7" d="M273.768,158.927a20.1,20.1,0,0,1,10.417-8.243c0.183-.064.1-0.358-0.081-0.293a20.431,20.431,0,0,0-10.6,8.383,0.152,0.152,0,0,0,.262.153h0Z"/><path class="cls-7" d="M248.645,147.92a12.182,12.182,0,0,0,4.69,5.493c3,2.1,6.853,3.135,9.6,5.49,0.173,0.149.427-.1,0.252-0.252-1.911-1.639-4.346-2.315-6.51-3.55-3.107-1.773-6.314-3.82-7.689-7.275-0.084-.211-0.429-0.119-0.344.095h0Z"/><rect class="cls-8" x="227.357" y="175.423" width="4.657" height="7.091" transform="translate(459.371 357.937) rotate(180)"/><path class="cls-9" d="M232.642,180.688a29.085,29.085,0,0,0,1.072,5.476,3.129,3.129,0,0,1,.366.911v2.613H223.063V188.3a2.971,2.971,0,0,1,.588-1.768c0.937-1.269,3.725-3.892,3.287-5.844h5.7Z"/><path class="cls-10" d="M232.616,180.688h0.026l-0.013.071C232.626,180.736,232.619,180.71,232.616,180.688Z"/><path class="cls-10" d="M234.08,187.8v1.884H223.063V188.3a2.935,2.935,0,0,1,.044-0.5H234.08Z"/><rect class="cls-10" x="227.723" y="182.174" width="3.035" height="0.68" rx="0.271" ry="0.271" transform="translate(458.481 365.028) rotate(-180)"/><rect class="cls-10" x="227.357" y="183.691" width="3.035" height="0.68" rx="0.271" ry="0.271" transform="translate(457.749 368.063) rotate(-180)"/><rect class="cls-8" x="257.653" y="175.423" width="4.657" height="7.091" transform="translate(519.964 357.937) rotate(180)"/><path class="cls-11" d="M249.6,115.127c-1.3,3.207-9.181,31.063-9.181,31.063l-7.106,33.372h-6.94l3.581-37.87,2.616-40.211,15.044,1.79,2.721,7.45Z"/><polygon class="cls-11" points="265.361 109.055 264.927 142.656 263.274 179.562 256.664 179.562 254.001 150.138 247.609 115.49 247.609 103.271 264.101 104.785 265.361 109.055"/><path class="cls-8" d="M248.539,60.9h9.915V47.842H247.609C250.123,51.106,248.539,60.9,248.539,60.9Z"/><path class="cls-12" d="M264.1,107.54c-0.322,7.734-25.339-4.731-30.793-1.836l6.61-45.492s6.056-2.408,8.621-.526c3.535,2.594,9.915,0,9.915,0l4.453,1.767S264.376,100.93,264.1,107.54Z"/><path class="cls-9" d="M248.99,52.721s1.8,30.026-13.055,49.035c0,0-4.539,11.222-8.212,11.773,0,0-3.834-9.732.848-17.419,2.876-4.722,8.43-15.067,8.76-20.586l0.945-15.839Z"/><path class="cls-9" d="M258.455,52.721S254.115,72.393,254,82.445c-0.092,8.171,12.6,35.42,12.6,35.42s7.833-8.175,3.7-17.624c-2.723-6.229-5.762-11.154-5.375-15.245l-0.1-28.117Z"/><path class="cls-8" d="M244.173,45.366a17.024,17.024,0,0,1,.725-3.887,3.15,3.15,0,0,0-1.136-.244,0.517,0.517,0,0,1-.322-0.856c1.206-1.343,3.415-3.539,3.783-4.343a6.387,6.387,0,0,1,.718-1.335,10.1,10.1,0,0,0,.565-0.992,1.768,1.768,0,0,1,1.21-.952,4.1,4.1,0,0,1,1.483.166,27.692,27.692,0,0,1,5.949,1.857,11.555,11.555,0,0,1,2.071,1.2,6.278,6.278,0,0,1,2.047,2.817,11.211,11.211,0,0,1,.015,5.97,5.147,5.147,0,0,1-.432,1.405A4.476,4.476,0,0,1,259.13,47.8c-1.181.725-2.408,1.369-3.646,1.991a13.466,13.466,0,0,1-2.284.975,13.119,13.119,0,0,1-3.989.32,6.321,6.321,0,0,1-3.034-.6,4.014,4.014,0,0,1-1.72-2.255A7.72,7.72,0,0,1,244.173,45.366Z"/><path class="cls-13" d="M247.245,27.073a12.941,12.941,0,0,0,6.894,2.494,36.564,36.564,0,0,1,7.327,1.18c1.456,0.494,3.722,1.408,4.421,2.9,0.979,2.091.821,5.194,0.285,7.371a10.972,10.972,0,0,1-2.288,4.5,12.452,12.452,0,0,1-4.347,2.914c-0.139.068-.276,0.138-0.413,0.212a2.111,2.111,0,0,1-.431.25c-0.277.057-.339-0.42-0.337-0.635a2.432,2.432,0,0,1,.381-1.191,7.178,7.178,0,0,1,.706-0.864,4.941,4.941,0,0,0,.723-2.905,3.683,3.683,0,0,0-.094-1.485,1.4,1.4,0,0,0-1.037-.977,1.857,1.857,0,0,0-1.41.587,7.55,7.55,0,0,0-1.866,2.468q-0.041-1.307-.081-2.614a6.391,6.391,0,0,0-.225-1.784c-0.244-.751-0.774-1.487-0.586-2.254a8.052,8.052,0,0,0,.358-1.02,1.36,1.36,0,0,0-.79-1.253,5.035,5.035,0,0,0-1.513-.4c-0.809-.143-1.571-0.411-2.357-0.627a4.965,4.965,0,0,1-2.046-.979,3.945,3.945,0,0,1-1.133-2.067,10.716,10.716,0,0,1-.2-2.381A11.631,11.631,0,0,1,247.245,27.073Z"/><path class="cls-8" d="M277,74.122l5.327,13.74a4.852,4.852,0,0,1-.375,4.282L265.018,113.7l-3-4.51,10.859-17.183a5.137,5.137,0,0,0-.115-4.685L267.5,78.07S273.877,80.442,277,74.122Z"/><path class="cls-8" d="M262.014,109.192l-1.939.345-1.34,1.234a1.208,1.208,0,0,0-.092,1.683l0.4,0.456-0.6.96a1.108,1.108,0,0,0,.081,1.287l1.873,2.3a1.108,1.108,0,0,0,1.444.242l2.03-1.26a1.9,1.9,0,0,0,.862-1.25l0.29-1.486Z"/><path class="cls-9" d="M262.938,180.688a6.575,6.575,0,0,0,1.623,5.476,1.385,1.385,0,0,1,.366.911v2.613H254.461V188.3a2.972,2.972,0,0,1,.588-1.768c0.937-1.269,2.623-3.892,2.186-5.844h5.7Z"/><path class="cls-10" d="M262.912,180.688h0.026l-0.013.071C262.922,180.736,262.915,180.71,262.912,180.688Z"/><path class="cls-10" d="M264.927,187.8v1.884H254.461V188.3a2.935,2.935,0,0,1,.044-0.5h10.422Z"/><rect class="cls-10" x="258.019" y="182.174" width="3.035" height="0.68" rx="0.271" ry="0.271" transform="translate(519.074 365.028) rotate(180)"/><rect class="cls-10" x="257.653" y="183.691" width="3.035" height="0.68" rx="0.271" ry="0.271" transform="translate(518.341 368.063) rotate(-180)"/><path class="cls-9" d="M258.455,52.721l6.907,4.509,3.078,1.464a8.646,8.646,0,0,1,4.342,4.669l5.549,12.625c-6,1.163-6.243,6.58-10.515,5.57l-6.132-14.6-3.229-7.276V52.721Z"/><path class="cls-9" d="M248.99,52.721l-6.923,2.971-3.86,1.008a8.194,8.194,0,0,0-5.395,4.551l-6.444,12.81c4.131,0,8.425,5.535,9.089,4.467l7.918-13.886Z"/><path class="cls-14" d="M246.8,49.735a1.944,1.944,0,0,1,.96-1.934h0a1.04,1.04,0,0,0,.46-0.548l0.611-1.688a2.833,2.833,0,0,0,.138-1.38l-0.195-1.309a1.092,1.092,0,0,0-1.529-.835l-2.227,1.005-1.374,1.348-0.009.019a9.021,9.021,0,0,0,.293,3.519,4.479,4.479,0,0,0,1.919,2.516,4.217,4.217,0,0,0,1.1.417Z"/><path class="cls-8" d="M227.129,74.584l15.044-24.178V46.364a1.885,1.885,0,0,1,.565-1.346l1.7-1.662,2-.9a0.979,0.979,0,0,1,1.371.748l0.174,1.173a2.538,2.538,0,0,1-.124,1.237L247.3,47.127a0.933,0.933,0,0,1-.412.491h0a1.743,1.743,0,0,0-.86,1.734l0.147,1.138,2.653,0.524-3.324,2.558L234.672,78.54a4.27,4.27,0,0,1-5.73,2.167h0A4.271,4.271,0,0,1,227.129,74.584Z"/><path class="cls-10" d="M170.583,186.321l0.008,0a0.488,0.488,0,0,0,.664-0.187l15.432-27.483a0.488,0.488,0,0,0-.186-0.665l-0.008,0a0.487,0.487,0,0,0-.664.186L170.4,185.657A0.488,0.488,0,0,0,170.583,186.321Z"/><path class="cls-15" d="M133.468,186.1H172.96A1.041,1.041,0,0,1,174,187.139v1.2a1.042,1.042,0,0,1-1.042,1.042H133.467a1.041,1.041,0,0,1-1.041-1.041v-1.2a1.042,1.042,0,0,1,1.042-1.042Z" transform="translate(306.326 375.563) rotate(-179.969)"/><path class="cls-10" d="M132.426,187.615a1.5,1.5,0,0,1,.371-0.966,1.528,1.528,0,0,0,1.526,1.522l38.517,0.021A1.5,1.5,0,0,0,174,187.63v0.235a1.529,1.529,0,0,1-1.529,1.528l-38.517-.021a1.529,1.529,0,0,1-1.528-1.53v-0.228Z"/><rect class="cls-16" x="143.19" y="186.971" width="3.022" height="1.159"/><rect class="cls-16" x="139.609" y="186.969" width="3.022" height="1.159"/><rect class="cls-16" x="165.033" y="186.983" width="3.022" height="1.159"/><rect class="cls-8" x="23.546" y="154.12" width="6.235" height="9.087" transform="translate(-86.766 44.563) rotate(-35.292)"/><path class="cls-11" d="M22.928,158.782L10.4,160.109,7.654,161.65a1.829,1.829,0,0,1-2.389-.537L4.18,159.581l17.672-12.509a2.185,2.185,0,0,1,3.046.521l0.976,1.379a11.216,11.216,0,0,1,1.94,4.839l0.2,1.369h0a2.483,2.483,0,0,0-3.461-.592l-1.036.733a2.483,2.483,0,0,0-.592,3.461h0Z"/><path class="cls-13" d="M22.856,148.552L5.519,160.823a0.766,0.766,0,0,1-1.068-.183l-0.59-.834,17.962-12.714a2.2,2.2,0,0,1,3.075.5l0.976,1.379c0.012,0.017.021,0.036,0.032,0.053A2.2,2.2,0,0,0,22.856,148.552Z"/><polygon class="cls-13" points="53.868 185.331 52.089 181.081 29.77 156.76 24.02 161.062 45.269 189.463 49.305 187.549 53.868 185.331"/><rect class="cls-8" x="50.221" y="151.731" width="6.235" height="9.087" transform="translate(35.382 -7.873) rotate(12.602)"/><path class="cls-11" d="M50.746,153.583l-9.388-8.409-2.981-1a1.829,1.829,0,0,1-1.2-2.133l0.41-1.832,21.129,4.724a2.185,2.185,0,0,1,1.655,2.609L60,149.192a11.216,11.216,0,0,1-2.289,4.684l-0.88,1.068h0a2.483,2.483,0,0,0-1.881-2.965l-1.239-.277a2.483,2.483,0,0,0-2.965,1.881h0Z"/><path class="cls-13" d="M58.323,146.678l-20.828-4.7a0.775,0.775,0,0,1-.586-0.925l0.221-.989,21.583,4.869a2.185,2.185,0,0,1,1.656,2.609L60,149.192c0,0.02-.013.039-0.017,0.059A2.183,2.183,0,0,0,58.323,146.678Z"/><path class="cls-17" d="M49.371,178.118l-7.739-8.433-3.947,9.64,7.578,10.129h0.026l4.017-1.905,4.563-2.217-1.779-4.251-1.305-1.423a1.119,1.119,0,0,1-1.466-1.348Z"/><path class="cls-13" d="M83.3,169.065l-2.555.229a47.964,47.964,0,0,0-17.564,5.069l-10.267,5.251a1.126,1.126,0,0,1-1.6-1.3l6.518-23.525h-8.1L39.581,179.578a7.169,7.169,0,0,0,6.783,9.883l39.17-.315Z"/><path class="cls-11" d="M124.233,174.029l-3.9,6.323a6.105,6.105,0,0,1-8,2.223l-1.948-1.005-11.65,5.158a18.047,18.047,0,0,1-6.471,1.526l-9.608,1.274s-5.245-12.8-1.081-20.9h0a32.21,32.21,0,0,0,27.79-5.749l8.148-6.326Z"/><polygon class="cls-8" points="133.912 162.437 125.463 168.622 124.233 163.112 130.31 157.384 133.912 162.437"/><path class="cls-8" d="M128.275,159.355c-0.075-2.366,1.679-3.555,3.413-4.4a23.454,23.454,0,0,1,12.3-2.263l1.006,0.244a8.506,8.506,0,0,1-.764,3.611,9.272,9.272,0,0,0,.079,4.639,0.2,0.2,0,0,1-.18.28,14.26,14.26,0,0,0-2.346.163c-0.222.368-.38,0.771-0.57,1.157a5.567,5.567,0,0,1-.849,1.371c-1.112,1.2-2.99,1.186-4.608.959-2.289-.322-4.652-0.956-6.224-2.727A4.857,4.857,0,0,1,128.275,159.355Z"/><path class="cls-8" d="M126.843,165.822l2.664,15.366a1.93,1.93,0,0,0,1.642,1.582l22.92,2.492,4.864,0.769,4.443,1.164,3.51,0.112h0a1.9,1.9,0,0,1-1.6,1.995H162.7L156.532,189l-27.963.69a4.657,4.657,0,0,1-4.494-3.013l-7.606-20.185Z"/><path class="cls-9" d="M106.42,164.849a12.2,12.2,0,0,1,2.525-3.536,16.731,16.731,0,0,1,3.291-2.827c1.775-1.1,3.563-1.41,5.154-2.823a17.06,17.06,0,0,0,3.685-4.649c0.49-.909.9-1.863,1.436-2.745a12.5,12.5,0,0,1,8.029-5.4,26.361,26.361,0,0,1,5.684-.879,20.341,20.341,0,0,1,6.441,1.141,10.543,10.543,0,0,1,4.128,2.163,5.072,5.072,0,0,1,1.19,5.222,5.5,5.5,0,0,1-.9,2c-1.644,2.178-5.16,2.3-7.631,2.85-1.526.337-3.134-.15-4.606,0.46a9.724,9.724,0,0,0-3.2,2.781,25.882,25.882,0,0,0-3.654,4.753c-0.52.951-.918,1.962-1.361,2.951a17.719,17.719,0,0,1-5.915,7.7,10.357,10.357,0,0,1-10.746.608C106.705,172.706,104.953,168.337,106.42,164.849Z"/><rect id="_Rectangle_" data-name="&lt;Rectangle&gt;" class="cls-12" x="106.758" y="36.047" width="76.607" height="92.263" rx="2.858" ry="2.858"/><path id="_Path_5" data-name="&lt;Path&gt;" class="cls-13" d="M183.365,45.795V38.7a2.654,2.654,0,0,0-2.654-2.654h-71.3a2.654,2.654,0,0,0-2.654,2.654v7.093h76.607Z"/><circle id="_Path_6" data-name="&lt;Path&gt;" class="cls-12" cx="112.563" cy="40.921" r="0.836"/><circle id="_Path_7" data-name="&lt;Path&gt;" class="cls-12" cx="116.313" cy="40.921" r="0.836"/><circle id="_Path_8" data-name="&lt;Path&gt;" class="cls-12" cx="120.063" cy="40.921" r="0.836"/><circle class="cls-3" cx="122.004" cy="90.542" r="6.833"/><circle class="cls-3" cx="122.004" cy="109.192" r="6.833"/><rect class="cls-18" x="136.813" y="86.125" width="38.012" height="1.417"/><rect class="cls-18" x="136.813" y="91.708" width="21" height="1.417"/><rect class="cls-18" x="136.813" y="104.958" width="38.012" height="1.417"/><rect class="cls-18" x="136.813" y="110.542" width="21" height="1.417"/><g class="cls-19"><path class="cls-20" d="M180.818,35.974H162.641V69.4a4.938,4.938,0,0,0,4.938,4.938h15.786V38.521A2.547,2.547,0,0,0,180.818,35.974Z"/><path class="cls-21" d="M180.836,35.974H162.782V69.311a4.9,4.9,0,0,0,4.9,4.9h15.679V38.5A2.529,2.529,0,0,0,180.836,35.974Z"/><path class="cls-22" d="M180.853,35.974H162.922V69.226a4.871,4.871,0,0,0,4.871,4.871h15.572V38.486A2.512,2.512,0,0,0,180.853,35.974Z"/><path class="cls-23" d="M180.87,35.974H163.063V69.141a4.838,4.838,0,0,0,4.838,4.838h15.465V38.469A2.5,2.5,0,0,0,180.87,35.974Z"/><path class="cls-24" d="M180.887,35.974H163.2V69.056a4.8,4.8,0,0,0,4.8,4.8h15.358V38.452A2.478,2.478,0,0,0,180.887,35.974Z"/><path class="cls-25" d="M180.9,35.974H163.343v33a4.771,4.771,0,0,0,4.771,4.771h15.251V38.434A2.46,2.46,0,0,0,180.9,35.974Z"/><path class="cls-26" d="M180.922,35.974H163.484V68.887a4.737,4.737,0,0,0,4.737,4.737h15.144V38.417A2.443,2.443,0,0,0,180.922,35.974Z"/><path class="cls-27" d="M180.939,35.974H163.624V68.8a4.7,4.7,0,0,0,4.7,4.7h15.037V38.4A2.426,2.426,0,0,0,180.939,35.974Z"/><path class="cls-28" d="M180.956,35.974H163.765V68.718a4.67,4.67,0,0,0,4.67,4.67h14.93V38.383A2.409,2.409,0,0,0,180.956,35.974Z"/><path class="cls-29" d="M180.974,35.974H163.9V68.633a4.637,4.637,0,0,0,4.637,4.637h14.823v-34.9A2.391,2.391,0,0,0,180.974,35.974Z"/><path class="cls-30" d="M180.991,35.974H164.045V68.548a4.6,4.6,0,0,0,4.6,4.6h14.716v-34.8A2.374,2.374,0,0,0,180.991,35.974Z"/><path class="cls-31" d="M181.008,35.974H164.186V68.463a4.57,4.57,0,0,0,4.57,4.57h14.609v-34.7A2.357,2.357,0,0,0,181.008,35.974Z"/><path class="cls-32" d="M181.025,35.974h-16.7v32.4a4.536,4.536,0,0,0,4.536,4.536h14.5v-34.6A2.34,2.34,0,0,0,181.025,35.974Z"/><path class="cls-33" d="M181.043,35.974H164.466v32.32a4.5,4.5,0,0,0,4.5,4.5h14.4V38.3A2.322,2.322,0,0,0,181.043,35.974Z"/><path class="cls-34" d="M181.06,35.974H164.607V68.209a4.47,4.47,0,0,0,4.47,4.47h14.288v-34.4A2.305,2.305,0,0,0,181.06,35.974Z"/><path class="cls-35" d="M181.077,35.974h-16.33v32.15a4.436,4.436,0,0,0,4.436,4.436h14.181v-34.3A2.288,2.288,0,0,0,181.077,35.974Z"/><path class="cls-36" d="M181.094,35.974H164.888V68.04a4.4,4.4,0,0,0,4.4,4.4h14.075v-34.2A2.271,2.271,0,0,0,181.094,35.974Z"/><path class="cls-37" d="M181.112,35.974H165.028V67.955a4.369,4.369,0,0,0,4.369,4.369h13.968v-34.1A2.253,2.253,0,0,0,181.112,35.974Z"/><path class="cls-38" d="M181.129,35.974h-15.96v31.9a4.336,4.336,0,0,0,4.336,4.336h13.861v-34A2.236,2.236,0,0,0,181.129,35.974Z"/><path class="cls-39" d="M181.146,35.974H165.309V67.786a4.3,4.3,0,0,0,4.3,4.3h13.754v-33.9A2.219,2.219,0,0,0,181.146,35.974Z"/><path class="cls-40" d="M181.163,35.974H165.449V67.7a4.269,4.269,0,0,0,4.269,4.269h13.647V38.176A2.2,2.2,0,0,0,181.163,35.974Z"/><path class="cls-41" d="M181.181,35.974H165.59V67.616a4.235,4.235,0,0,0,4.235,4.235h13.54V38.158A2.184,2.184,0,0,0,181.181,35.974Z"/><path class="cls-42" d="M181.2,35.974H165.73V67.532a4.2,4.2,0,0,0,4.2,4.2h13.433V38.141A2.167,2.167,0,0,0,181.2,35.974Z"/><path class="cls-43" d="M181.215,35.974H165.87V67.447a4.168,4.168,0,0,0,4.168,4.168h13.326V38.124A2.15,2.15,0,0,0,181.215,35.974Z"/><path class="cls-44" d="M181.232,35.974H166.011V67.362a4.135,4.135,0,0,0,4.135,4.135h13.219V38.107A2.132,2.132,0,0,0,181.232,35.974Z"/><path class="cls-45" d="M181.25,35.974h-15.1v31.3a4.1,4.1,0,0,0,4.1,4.1h13.112V38.089A2.115,2.115,0,0,0,181.25,35.974Z"/><path class="cls-46" d="M181.267,35.974H166.292V67.193a4.068,4.068,0,0,0,4.068,4.068h13.005V38.072A2.1,2.1,0,0,0,181.267,35.974Z"/><path class="cls-47" d="M181.284,35.974H166.432V67.108a4.035,4.035,0,0,0,4.035,4.035h12.9V38.055A2.081,2.081,0,0,0,181.284,35.974Z"/><path class="cls-48" d="M181.3,35.974H166.572V67.023a4,4,0,0,0,4,4h12.791V38.038A2.063,2.063,0,0,0,181.3,35.974Z"/><path class="cls-49" d="M181.319,35.974H166.713V66.938a3.968,3.968,0,0,0,3.968,3.968h12.684V38.02A2.046,2.046,0,0,0,181.319,35.974Z"/><path class="cls-50" d="M181.336,35.974H166.853v30.88a3.934,3.934,0,0,0,3.934,3.934h12.577V38A2.029,2.029,0,0,0,181.336,35.974Z"/><path class="cls-51" d="M181.353,35.974h-14.36V66.769a3.9,3.9,0,0,0,3.9,3.9h12.47V37.986A2.012,2.012,0,0,0,181.353,35.974Z"/><path class="cls-52" d="M181.37,35.974H167.134v30.71A3.867,3.867,0,0,0,171,70.552h12.363V37.969A1.994,1.994,0,0,0,181.37,35.974Z"/><path class="cls-53" d="M181.388,35.974H167.274V66.6a3.834,3.834,0,0,0,3.834,3.834h12.257V37.951A1.977,1.977,0,0,0,181.388,35.974Z"/><path class="cls-54" d="M181.4,35.974h-13.99V66.515a3.8,3.8,0,0,0,3.8,3.8h12.15V37.934A1.96,1.96,0,0,0,181.4,35.974Z"/><path class="cls-55" d="M181.422,35.974H167.555V66.43a3.767,3.767,0,0,0,3.767,3.767h12.043V37.917A1.943,1.943,0,0,0,181.422,35.974Z"/><path class="cls-56" d="M181.439,35.974H167.7V66.345a3.734,3.734,0,0,0,3.734,3.734h11.936V37.9A1.925,1.925,0,0,0,181.439,35.974Z"/><path class="cls-57" d="M181.457,35.974H167.836V66.261a3.7,3.7,0,0,0,3.7,3.7h11.829V37.882A1.908,1.908,0,0,0,181.457,35.974Z"/><path class="cls-58" d="M181.474,35.974h-13.5v30.2a3.667,3.667,0,0,0,3.667,3.667h11.722V37.865A1.891,1.891,0,0,0,181.474,35.974Z"/><path class="cls-59" d="M181.491,35.974H168.117V66.091a3.633,3.633,0,0,0,3.633,3.633h11.615V37.848A1.874,1.874,0,0,0,181.491,35.974Z"/><path class="cls-60" d="M181.508,35.974H168.257V66.007a3.6,3.6,0,0,0,3.6,3.6h11.508V37.831A1.856,1.856,0,0,0,181.508,35.974Z"/><path class="cls-5" d="M181.526,35.974H168.4V65.922a3.566,3.566,0,0,0,3.566,3.566h11.4V37.813A1.839,1.839,0,0,0,181.526,35.974Z"/></g><rect class="cls-12" x="167.763" y="22.275" width="55.3" height="48.256" rx="5.147" ry="5.147"/><path class="cls-13" d="M218.458,22.275h-46.09a4.6,4.6,0,0,0-4.6,4.6v5.243h55.3V26.88A4.6,4.6,0,0,0,218.458,22.275Z"/><circle class="cls-12" cx="173.982" cy="27.199" r="0.844"/><circle class="cls-12" cx="177.646" cy="27.199" r="0.844"/><circle class="cls-12" cx="177.646" cy="27.199" r="0.844"/><circle class="cls-12" cx="181.311" cy="27.199" r="0.844"/><circle class="cls-4" cx="178.49" cy="45.032" r="6.596"/><rect class="cls-18" x="188.64" y="41.479" width="30.204" height="1.777"/><rect class="cls-18" x="188.64" y="46.652" width="30.204" height="1.777"/><rect class="cls-61" x="188.64" y="51.825" width="11.326" height="1.777"/><path class="cls-11" d="M267.513,9.058a9.058,9.058,0,1,0-14.01,7.579v5.78h9.9v-5.78A9.045,9.045,0,0,0,267.513,9.058Z"/><polygon id="_Path_9" data-name="&lt;Path&gt;" class="cls-13" points="264.049 22.821 260.755 25.575 255.853 25.575 252.861 22.821 252.861 18.494 264.049 18.494 264.049 22.821"/><rect id="_Rectangle_2" data-name="&lt;Rectangle&gt;" class="cls-62" x="252.374" y="18.889" width="12.137" height="0.83" rx="0.365" ry="0.365"/><rect id="_Rectangle_3" data-name="&lt;Rectangle&gt;" class="cls-62" x="252.374" y="20.275" width="12.137" height="0.83" rx="0.365" ry="0.365"/><rect id="_Rectangle_4" data-name="&lt;Rectangle&gt;" class="cls-62" x="252.374" y="21.662" width="12.137" height="0.83" rx="0.365" ry="0.365"/><path id="_Rectangle_5" data-name="&lt;Rectangle&gt;" class="cls-63" d="M255.712,25.446h5.082a0,0,0,0,1,0,0v0.2a1.43,1.43,0,0,1-1.43,1.43h-2.222a1.43,1.43,0,0,1-1.43-1.43v-0.2A0,0,0,0,1,255.712,25.446Z"/><polygon class="cls-12" points="257.889 11.422 255.569 9.103 256.277 8.396 257.889 10.008 261.417 6.48 262.124 7.186 257.889 11.422"/><path class="cls-20" d="M133.263,54.256H106.758V84.768h26.505a3.55,3.55,0,0,0,3.55-3.55V57.806A3.55,3.55,0,0,0,133.263,54.256Z"/><path class="cls-21" d="M133.125,54.256H106.758V84.608h26.367a3.531,3.531,0,0,0,3.531-3.531V57.787A3.531,3.531,0,0,0,133.125,54.256Z"/><path class="cls-22" d="M132.986,54.256H106.758V84.449h26.228a3.513,3.513,0,0,0,3.513-3.513V57.769A3.513,3.513,0,0,0,132.986,54.256Z"/><path class="cls-23" d="M132.848,54.256h-26.09V84.29h26.09a3.494,3.494,0,0,0,3.494-3.494V57.75A3.494,3.494,0,0,0,132.848,54.256Z"/><path class="cls-24" d="M132.709,54.256H106.758V84.13h25.951a3.476,3.476,0,0,0,3.476-3.476V57.732A3.476,3.476,0,0,0,132.709,54.256Z"/><path class="cls-25" d="M132.571,54.256H106.758V83.971h25.813a3.457,3.457,0,0,0,3.457-3.457v-22.8A3.457,3.457,0,0,0,132.571,54.256Z"/><path class="cls-26" d="M132.432,54.256H106.758V83.812h25.674a3.438,3.438,0,0,0,3.438-3.439V57.695A3.438,3.438,0,0,0,132.432,54.256Z"/><path class="cls-27" d="M132.294,54.256H106.758v29.4h25.536a3.42,3.42,0,0,0,3.42-3.42V57.676A3.42,3.42,0,0,0,132.294,54.256Z"/><path class="cls-28" d="M132.156,54.256h-25.4V83.493h25.4a3.4,3.4,0,0,0,3.4-3.4V57.657A3.4,3.4,0,0,0,132.156,54.256Z"/><path class="cls-29" d="M132.017,54.256H106.758V83.333h25.259A3.383,3.383,0,0,0,135.4,79.95V57.639A3.383,3.383,0,0,0,132.017,54.256Z"/><path class="cls-30" d="M131.879,54.256H106.758V83.174h25.121a3.364,3.364,0,0,0,3.364-3.364V57.62A3.364,3.364,0,0,0,131.879,54.256Z"/><path class="cls-31" d="M131.74,54.256H106.758V83.015H131.74a3.346,3.346,0,0,0,3.346-3.346V57.6A3.346,3.346,0,0,0,131.74,54.256Z"/><path class="cls-32" d="M131.6,54.256H106.758v28.6H131.6a3.327,3.327,0,0,0,3.327-3.327V57.583A3.327,3.327,0,0,0,131.6,54.256Z"/><path class="cls-33" d="M131.463,54.256H106.758V82.7h24.705a3.309,3.309,0,0,0,3.309-3.309V57.565A3.309,3.309,0,0,0,131.463,54.256Z"/><path class="cls-34" d="M131.325,54.256H106.758V82.536h24.567a3.29,3.29,0,0,0,3.29-3.29v-21.7A3.29,3.29,0,0,0,131.325,54.256Z"/><path class="cls-35" d="M131.186,54.256H106.758V82.377h24.428a3.272,3.272,0,0,0,3.272-3.272V57.528A3.272,3.272,0,0,0,131.186,54.256Z"/><path class="cls-36" d="M131.048,54.256h-24.29V82.218h24.29a3.253,3.253,0,0,0,3.253-3.253V57.509A3.253,3.253,0,0,0,131.048,54.256Z"/><path class="cls-37" d="M130.909,54.256H106.758v27.8h24.151a3.235,3.235,0,0,0,3.234-3.235V57.491A3.235,3.235,0,0,0,130.909,54.256Z"/><path class="cls-38" d="M130.771,54.256H106.758V81.9h24.013a3.216,3.216,0,0,0,3.216-3.216V57.472A3.216,3.216,0,0,0,130.771,54.256Z"/><path class="cls-39" d="M130.633,54.256H106.758V81.74h23.875a3.2,3.2,0,0,0,3.2-3.2V57.453A3.2,3.2,0,0,0,130.633,54.256Z"/><path class="cls-40" d="M130.494,54.256H106.758V81.58h23.736a3.179,3.179,0,0,0,3.179-3.179V57.435A3.179,3.179,0,0,0,130.494,54.256Z"/><path class="cls-41" d="M130.356,54.256h-23.6V81.421h23.6a3.16,3.16,0,0,0,3.16-3.16V57.416A3.16,3.16,0,0,0,130.356,54.256Z"/><path class="cls-42" d="M130.217,54.256H106.758V81.261h23.459a3.142,3.142,0,0,0,3.142-3.142V57.4A3.142,3.142,0,0,0,130.217,54.256Z"/><path class="cls-43" d="M130.079,54.256H106.758V81.1h23.321a3.123,3.123,0,0,0,3.123-3.123v-20.6A3.123,3.123,0,0,0,130.079,54.256Z"/><path class="cls-44" d="M129.94,54.256H106.758V80.943H129.94a3.1,3.1,0,0,0,3.1-3.1V57.361A3.1,3.1,0,0,0,129.94,54.256Z"/><path class="cls-45" d="M129.8,54.256H106.758V80.783H129.8a3.086,3.086,0,0,0,3.086-3.086V57.342A3.086,3.086,0,0,0,129.8,54.256Z"/><path class="cls-46" d="M129.663,54.256H106.758V80.624h22.905a3.068,3.068,0,0,0,3.068-3.068V57.324A3.068,3.068,0,0,0,129.663,54.256Z"/><path class="cls-47" d="M129.525,54.256H106.758V80.464h22.767a3.049,3.049,0,0,0,3.049-3.049V57.305A3.049,3.049,0,0,0,129.525,54.256Z"/><path class="cls-48" d="M129.386,54.256H106.758V80.305h22.628a3.031,3.031,0,0,0,3.031-3.031V57.287A3.031,3.031,0,0,0,129.386,54.256Z"/><path class="cls-49" d="M129.248,54.256h-22.49v25.89h22.49a3.012,3.012,0,0,0,3.012-3.012V57.268A3.012,3.012,0,0,0,129.248,54.256Z"/><path class="cls-50" d="M129.109,54.256H106.758v25.73h22.351a2.994,2.994,0,0,0,2.994-2.993V57.249A2.994,2.994,0,0,0,129.109,54.256Z"/><path class="cls-51" d="M128.971,54.256H106.758V79.827h22.213a2.975,2.975,0,0,0,2.975-2.975V57.231A2.975,2.975,0,0,0,128.971,54.256Z"/><path class="cls-52" d="M128.833,54.256H106.758V79.668h22.075a2.957,2.957,0,0,0,2.956-2.957v-19.5A2.956,2.956,0,0,0,128.833,54.256Z"/><path class="cls-53" d="M128.694,54.256H106.758V79.508h21.936a2.938,2.938,0,0,0,2.938-2.938V57.194A2.938,2.938,0,0,0,128.694,54.256Z"/><path class="cls-54" d="M128.556,54.256h-21.8V79.349h21.8a2.919,2.919,0,0,0,2.919-2.919V57.175A2.919,2.919,0,0,0,128.556,54.256Z"/><path class="cls-55" d="M128.417,54.256H106.758V79.189h21.659a2.9,2.9,0,0,0,2.9-2.9V57.157A2.9,2.9,0,0,0,128.417,54.256Z"/><path class="cls-56" d="M128.279,54.256H106.758V79.03h21.521a2.882,2.882,0,0,0,2.882-2.882V57.138A2.882,2.882,0,0,0,128.279,54.256Z"/><path class="cls-57" d="M128.14,54.256H106.758V78.871H128.14A2.864,2.864,0,0,0,131,76.007V57.12A2.864,2.864,0,0,0,128.14,54.256Z"/><path class="cls-58" d="M128,54.256H106.758V78.711H128a2.845,2.845,0,0,0,2.845-2.845V57.1A2.845,2.845,0,0,0,128,54.256Z"/><path class="cls-59" d="M127.863,54.256H106.758v24.3h21.105a2.827,2.827,0,0,0,2.827-2.827V57.083A2.827,2.827,0,0,0,127.863,54.256Z"/><path class="cls-60" d="M127.725,54.256H106.758V78.392h20.967a2.808,2.808,0,0,0,2.808-2.808V57.064A2.808,2.808,0,0,0,127.725,54.256Z"/><path class="cls-5" d="M127.586,54.256H106.758V78.233h20.828a2.79,2.79,0,0,0,2.79-2.79v-18.4A2.79,2.79,0,0,0,127.586,54.256Z"/><rect class="cls-12" x="81.44" y="49.764" width="50.635" height="29.763" rx="3.463" ry="3.463"/><circle id="_Path_10" data-name="&lt;Path&gt;" class="cls-9" cx="94.541" cy="64.645" r="8.194"/><path id="_Path_11" data-name="&lt;Path&gt;" class="cls-12" d="M97.563,65.108L92.29,68.152a0.534,0.534,0,0,1-.8-0.462V61.6a0.534,0.534,0,0,1,.8-0.462l5.273,3.044A0.534,0.534,0,0,1,97.563,65.108Z"/><rect class="cls-18" x="105.733" y="58.066" width="22.464" height="2"/><rect class="cls-18" x="105.733" y="63.645" width="22.464" height="2"/><rect class="cls-11" x="105.733" y="69.224" width="11.232" height="2"/><g class="cls-64"><path class="cls-12" d="M183.365,83.625H165.5a2.188,2.188,0,0,0-2.188,2.188v20.966a2.188,2.188,0,0,0,2.188,2.188h17.862V83.625Z"/></g><g class="cls-65"><path class="cls-66" d="M183.365,83.625H165.622a2.173,2.173,0,0,0-2.173,2.173v20.826a2.173,2.173,0,0,0,2.173,2.173h17.743V83.625Z"/></g><g class="cls-67"><path class="cls-68" d="M183.365,83.625H165.741a2.159,2.159,0,0,0-2.159,2.159V106.47a2.158,2.158,0,0,0,2.159,2.159h17.624v-25Z"/></g><g class="cls-69"><path class="cls-70" d="M183.365,83.625h-17.5a2.144,2.144,0,0,0-2.144,2.144v20.546a2.144,2.144,0,0,0,2.144,2.144h17.5V83.625Z"/></g><g class="cls-71"><path class="cls-72" d="M183.365,83.625H165.98a2.129,2.129,0,0,0-2.13,2.129v20.407a2.129,2.129,0,0,0,2.13,2.129h17.385V83.625Z"/></g><g class="cls-73"><path class="cls-74" d="M183.365,83.625H166.1a2.115,2.115,0,0,0-2.115,2.115v20.267a2.115,2.115,0,0,0,2.115,2.115h17.266v-24.5Z"/></g><g class="cls-75"><path class="cls-76" d="M183.365,83.625H166.218a2.1,2.1,0,0,0-2.1,2.1v20.127a2.1,2.1,0,0,0,2.1,2.1h17.147V83.625Z"/></g><g class="cls-77"><path class="cls-78" d="M183.365,83.625H166.337a2.086,2.086,0,0,0-2.086,2.086V105.7a2.086,2.086,0,0,0,2.086,2.086h17.028V83.625Z"/></g><g class="cls-79"><path class="cls-18" d="M183.365,83.625H166.456a2.071,2.071,0,0,0-2.071,2.071v19.847a2.071,2.071,0,0,0,2.071,2.071h16.909V83.625Z"/></g><g class="cls-80"><path class="cls-81" d="M183.365,83.625H166.575a2.057,2.057,0,0,0-2.056,2.057v19.707a2.056,2.056,0,0,0,2.057,2.056h16.789V83.625Z"/></g><g class="cls-82"><path class="cls-83" d="M183.365,83.625h-16.67a2.042,2.042,0,0,0-2.042,2.042v19.567a2.042,2.042,0,0,0,2.042,2.042h16.67V83.625Z"/></g><g class="cls-84"><path class="cls-85" d="M183.365,83.625H166.814a2.027,2.027,0,0,0-2.027,2.027V105.08a2.027,2.027,0,0,0,2.027,2.027h16.551V83.625Z"/></g><g class="cls-86"><path class="cls-87" d="M183.365,83.625H166.933a2.013,2.013,0,0,0-2.013,2.013v19.288a2.013,2.013,0,0,0,2.013,2.013h16.432V83.625Z"/></g><g class="cls-88"><path class="cls-89" d="M183.365,83.625H167.052a2,2,0,0,0-2,2v19.148a2,2,0,0,0,2,2h16.313V83.625Z"/></g><g class="cls-90"><path class="cls-91" d="M183.365,83.625H167.171a1.984,1.984,0,0,0-1.983,1.984v19.008a1.983,1.983,0,0,0,1.983,1.983h16.194V83.625Z"/></g><g class="cls-92"><path class="cls-93" d="M183.365,83.625H167.291a1.969,1.969,0,0,0-1.969,1.969v18.868a1.969,1.969,0,0,0,1.969,1.969h16.074V83.625Z"/></g><g class="cls-94"><path class="cls-95" d="M183.365,83.625H167.41a1.954,1.954,0,0,0-1.954,1.954v18.728a1.954,1.954,0,0,0,1.954,1.954h15.955V83.625Z"/></g><g class="cls-96"><path class="cls-97" d="M183.365,83.625H167.529a1.94,1.94,0,0,0-1.94,1.94v18.588a1.94,1.94,0,0,0,1.94,1.94h15.836V83.625Z"/></g><g class="cls-98"><path class="cls-99" d="M183.365,83.625H167.648a1.925,1.925,0,0,0-1.925,1.925V104a1.925,1.925,0,0,0,1.925,1.925h15.717v-22.3Z"/></g><g class="cls-100"><path class="cls-101" d="M183.365,83.625h-15.6a1.911,1.911,0,0,0-1.911,1.91v18.308a1.91,1.91,0,0,0,1.911,1.91h15.6V83.625Z"/></g><g class="cls-102"><path class="cls-103" d="M183.365,83.625H167.886a1.9,1.9,0,0,0-1.9,1.9v18.168a1.9,1.9,0,0,0,1.9,1.9h15.479V83.625Z"/></g><g class="cls-104"><path class="cls-105" d="M183.365,83.625H168.006a1.881,1.881,0,0,0-1.881,1.881v18.029a1.881,1.881,0,0,0,1.881,1.881h15.359V83.625Z"/></g><g class="cls-106"><path class="cls-107" d="M183.365,83.625h-15.24a1.867,1.867,0,0,0-1.867,1.867V103.38a1.867,1.867,0,0,0,1.867,1.867h15.24V83.625Z"/></g><g class="cls-108"><path class="cls-109" d="M183.365,83.625H168.244a1.852,1.852,0,0,0-1.852,1.852v17.749a1.852,1.852,0,0,0,1.852,1.852h15.121V83.625Z"/></g><g class="cls-110"><path class="cls-111" d="M183.365,83.625h-15a1.838,1.838,0,0,0-1.837,1.838v17.609a1.837,1.837,0,0,0,1.837,1.838h15V83.625Z"/></g><g class="cls-112"><path class="cls-113" d="M183.365,83.625H168.482a1.823,1.823,0,0,0-1.823,1.823v17.469a1.823,1.823,0,0,0,1.823,1.823h14.883V83.625Z"/></g><g class="cls-114"><path class="cls-115" d="M183.365,83.625H168.6a1.808,1.808,0,0,0-1.808,1.808v17.329a1.808,1.808,0,0,0,1.808,1.808h14.763V83.625Z"/></g><g class="cls-116"><path class="cls-117" d="M183.365,83.625H168.721a1.794,1.794,0,0,0-1.794,1.794v17.189a1.794,1.794,0,0,0,1.794,1.794h14.644V83.625Z"/></g><g class="cls-118"><path class="cls-119" d="M183.365,83.625H168.84a1.779,1.779,0,0,0-1.779,1.779v17.049a1.779,1.779,0,0,0,1.779,1.779h14.525V83.625Z"/></g><g class="cls-120"><path class="cls-121" d="M183.365,83.625H168.959a1.765,1.765,0,0,0-1.765,1.765V102.3a1.765,1.765,0,0,0,1.765,1.764h14.406V83.625Z"/></g><g class="cls-122"><path class="cls-123" d="M183.365,83.625H169.078a1.75,1.75,0,0,0-1.75,1.75v16.77a1.75,1.75,0,0,0,1.75,1.75h14.287V83.625Z"/></g><g class="cls-124"><path class="cls-125" d="M183.365,83.625H169.2a1.735,1.735,0,0,0-1.735,1.735v16.63a1.735,1.735,0,0,0,1.735,1.735h14.168v-20.1Z"/></g><g class="cls-126"><path class="cls-127" d="M183.365,83.625H169.316a1.721,1.721,0,0,0-1.721,1.721v16.49a1.721,1.721,0,0,0,1.721,1.721h14.048V83.625Z"/></g><g class="cls-128"><path class="cls-7" d="M183.365,83.625H169.436a1.706,1.706,0,0,0-1.706,1.706v16.35a1.706,1.706,0,0,0,1.706,1.706h13.929V83.625Z"/></g><g class="cls-129"><path class="cls-130" d="M183.365,83.625h-13.81a1.692,1.692,0,0,0-1.692,1.692v16.21a1.691,1.691,0,0,0,1.692,1.692h13.81V83.625Z"/></g><g class="cls-131"><path class="cls-132" d="M183.365,83.625H169.674A1.677,1.677,0,0,0,168,85.3v16.07a1.677,1.677,0,0,0,1.677,1.677h13.691V83.625Z"/></g><g class="cls-133"><path class="cls-134" d="M183.365,83.625H169.793a1.662,1.662,0,0,0-1.662,1.662v15.93a1.662,1.662,0,0,0,1.662,1.662h13.572V83.625Z"/></g><g class="cls-135"><path class="cls-136" d="M183.365,83.625H169.912a1.648,1.648,0,0,0-1.648,1.648v15.79a1.648,1.648,0,0,0,1.648,1.648h13.453V83.625Z"/></g><g class="cls-137"><path class="cls-138" d="M183.365,83.625H170.031a1.633,1.633,0,0,0-1.633,1.633v15.65a1.633,1.633,0,0,0,1.633,1.633h13.333V83.625Z"/></g><g class="cls-139"><path class="cls-140" d="M183.365,83.625H170.151a1.619,1.619,0,0,0-1.619,1.619v15.511a1.619,1.619,0,0,0,1.619,1.618h13.214V83.625Z"/></g><g class="cls-141"><path class="cls-142" d="M183.365,83.625h-13.1a1.6,1.6,0,0,0-1.6,1.6V100.6a1.6,1.6,0,0,0,1.6,1.6h13.1V83.625Z"/></g><path class="cls-5" d="M183.365,83.625H170.389a1.589,1.589,0,0,0-1.589,1.589v15.231a1.589,1.589,0,0,0,1.589,1.589h12.976V83.625Z"/><rect class="cls-12" x="167.763" y="80.062" width="33.507" height="23.292" rx="2.011" ry="2.011"/><rect class="cls-3" x="170.262" y="82.3" width="28.51" height="17.779"/><polygon class="cls-5" points="174.67 88.84 170.284 95.173 170.262 100.079 181.553 100.079 174.67 88.84"/><polygon class="cls-12" points="175.364 92.139 175.758 92.791 176.454 91.787 174.67 88.84 172.649 91.759 173.273 92.791 173.751 92.101 174.516 93.364 175.364 92.139"/><polygon class="cls-5" points="180.022 97.635 183.358 92.664 187.95 100.079 181.541 100.079 180.022 97.635"/><circle class="cls-4" cx="190.353" cy="88.355" r="3.13"/><polygon class="cls-12" points="184.092 95.963 184.487 96.615 185.182 95.611 183.358 92.664 181.377 95.582 182.001 96.615 182.479 95.924 183.244 97.188 184.092 95.963"/><rect class="cls-12" x="60.546" y="107.534" width="41.923" height="36.584" rx="3.684" ry="3.684"/><path class="cls-13" d="M98.978,107.534H64.037a3.491,3.491,0,0,0-3.491,3.491V115h41.923v-3.975A3.491,3.491,0,0,0,98.978,107.534Z"/><circle class="cls-12" cx="65.26" cy="111.267" r="0.639"/><circle class="cls-12" cx="68.038" cy="111.267" r="0.639"/><circle class="cls-12" cx="68.038" cy="111.267" r="0.639"/><circle class="cls-12" cx="70.816" cy="111.267" r="0.64"/><polygon class="cls-11" points="78.978 128.187 74.15 130.87 75.214 142.737 86.892 142.737 88.672 131.184 83.279 128.187 78.978 128.187"/><polygon class="cls-8" points="83.279 128.32 81.128 132.253 78.978 128.32 78.978 125.528 83.279 125.528 83.279 128.32"/><path class="cls-13" d="M85.132,119.731a2.327,2.327,0,0,0-.216-0.521l-0.527-1.029a1.4,1.4,0,0,0-1.209-.714,6.072,6.072,0,0,0-1.536-.54,1.985,1.985,0,0,0-.992.268,1.836,1.836,0,0,1-.392.177,3.36,3.36,0,0,1-.725.008,1.369,1.369,0,0,0-1.249,1,0.96,0.96,0,0,1-.088.272,0.943,0.943,0,0,1-.167.179c-0.737.705-.3,1.887-0.185,2.754a1.946,1.946,0,0,0,.41,1.354l-0.2-.049a3.464,3.464,0,0,0,1.814.88,10.324,10.324,0,0,0,2.04.113l2.463-.026a0.723,0.723,0,0,0,.447-0.1,0.708,0.708,0,0,0,.2-0.479c0.13-.936.044-1.87,0.123-2.82A2.328,2.328,0,0,0,85.132,119.731Z"/><path class="cls-143" d="M78.978,127.132l0.6,1.046a2.212,2.212,0,0,0,3.7.21v-2.861h-4.3v1.6Z"/><path class="cls-8" d="M78.632,121.216v3.276a4.208,4.208,0,0,0,.563,2.1l0.632,1.095a2.216,2.216,0,0,0,1.92,1.109h0a2.217,2.217,0,0,0,1.894-1.066l0.128-.21a4.208,4.208,0,0,0,.611-2.183V119.3H78.713Z"/><path class="cls-8" d="M78.676,124.977l-0.658-.347a2.156,2.156,0,0,1-.373-1.707s0.24-.587.693-0.32l0.64,0.64Z"/><path class="cls-8" d="M84.221,124.977l0.658-.347a2.156,2.156,0,0,0,.373-1.707s-0.24-.587-0.694-0.32l-0.64.64Z"/><path class="cls-13" d="M78.449,121.745a10.891,10.891,0,0,1,.124,1.54c-0.006.2-.091,0.8,0.344,0.641a0.358,0.358,0,0,0,.187-0.333c0.033-.5-0.379-0.921-0.143-1.379a3.885,3.885,0,0,0,.649-0.929,2.748,2.748,0,0,0-.127-0.824,0.806,0.806,0,0,1,.154-0.609,0.545,0.545,0,0,1,.578-0.185,1.444,1.444,0,0,1,.471.405,1.289,1.289,0,0,0,1.343.269,4.79,4.79,0,0,0,.75-0.467,1.056,1.056,0,0,1,.837-0.191,1.215,1.215,0,0,1,.674,1.008,4.739,4.739,0,0,1,.146,1.4,9.656,9.656,0,0,1-.335,1.059,0.914,0.914,0,0,0-.034.264,0.988,0.988,0,0,0,.181.442,0.1,0.1,0,0,0,.045.047,0.1,0.1,0,0,0,.1-0.033,1.489,1.489,0,0,0,.373-0.88,2.351,2.351,0,0,0,.111-1.136c-0.164-.871.044-1.778-0.1-2.653a0.543,0.543,0,0,0-.09-0.252,0.56,0.56,0,0,0-.27-0.159,10.618,10.618,0,0,0-3.9-.327,2.743,2.743,0,0,0-1.341.285,1.878,1.878,0,0,0-.794,1.37A6.527,6.527,0,0,0,78.449,121.745Z"/><path class="cls-8" d="M67.125,137.9l-0.192-.548-5.788-3.708h0A1.017,1.017,0,0,1,62.4,133.5l1.149,0.715,0.414-.09a1.3,1.3,0,0,1,.975.175l0.568,0.363,1.915,0.577a1.735,1.735,0,0,1,1.12,1.042l0.409,1.069Z"/><path class="cls-8" d="M95.132,137.9l0.192-.548,5.788-3.708h0a1.017,1.017,0,0,0-1.256-.144l-1.149.715-0.414-.09a1.3,1.3,0,0,0-.975.175l-0.567.363-1.915.577a1.735,1.735,0,0,0-1.12,1.042l-0.408,1.069Z"/><path class="cls-11" d="M78.978,128.187l-5.7,3.168a3.432,3.432,0,0,0-1.755,2.74l-0.471,6.2-1.834-3.016-2.446.734,2.178,4.828,4.77-.1,1.326-6.6,3.934-5.839v-2.109Z"/><path class="cls-11" d="M83.279,128.187l5.7,3.168a3.432,3.432,0,0,1,1.755,2.74l0.471,6.2,1.834-3.016,2.446,0.734-2.18,4.833-4.762-.078-1.332-6.63L83.279,130.3v-2.109Z"/><polygon class="cls-12" points="78.978 128.187 77.712 128.89 79.203 134.201 81.128 132.253 78.978 128.187"/><polygon class="cls-12" points="83.279 128.187 84.544 128.89 83.054 134.201 81.128 132.253 83.279 128.187"/><path class="cls-13" d="M80.235,125.815c-0.079.158-.107,0.339-0.191,0.5a0.4,0.4,0,0,1-.428.239,0.548,0.548,0,0,1-.279-0.5,7.862,7.862,0,0,0-.122-1.658,2.1,2.1,0,0,1-.129-0.428c-0.016-.136,0-0.276-0.023-0.41a0.31,0.31,0,0,0-.267-0.269,0.283,0.283,0,0,0-.248.233,0.876,0.876,0,0,0,.022.363,6.335,6.335,0,0,1,.132,1.785,4.282,4.282,0,0,0,.367,1.727,2.72,2.72,0,0,0,.249.565,2.1,2.1,0,0,0,1.275.859,6.25,6.25,0,0,0,1.564.139,2.522,2.522,0,0,0,1.01-.134c0.922-.394,1.214-2.129,1.313-2.983a5.148,5.148,0,0,0-.066-1.077,6.954,6.954,0,0,1,.166-1.36,0.183,0.183,0,0,0-.032-0.165,0.293,0.293,0,0,1-.164-0.108,1.017,1.017,0,0,0-.346.507,1.2,1.2,0,0,0-.018.279,3.731,3.731,0,0,1-.076,1.095,10.535,10.535,0,0,0-.3,1.258,0.53,0.53,0,0,1-.287.493,0.352,0.352,0,0,1-.374-0.237,1.3,1.3,0,0,1-.055-0.476,0.726,0.726,0,0,0-.123-0.457,0.822,0.822,0,0,0-.6-0.213C81.542,125.327,80.629,125.028,80.235,125.815Z"/><path class="cls-8" d="M80.334,126.257h0.447a0.685,0.685,0,0,0,.452-0.17l0.272-.239,0.3,0.249a0.685,0.685,0,0,0,.44.16h0.434a1.211,1.211,0,0,1-1.286,1.236C80.512,127.47,80.627,126.954,80.334,126.257Z"/><polygon class="cls-12" points="66.77 138.01 69.216 137.277 69.83 138.286 67.236 139.044 66.77 138.01"/><polygon class="cls-12" points="95.533 138.01 93.087 137.277 92.473 138.286 95.066 139.044 95.533 138.01"/><circle class="cls-9" cx="66.43" cy="120.593" r="2.307"/><polygon class="cls-12" points="67.059 120.593 65.8 121.32 65.8 119.866 67.059 120.593"/><path id="_Compound_Path_" data-name="&lt;Compound Path&gt;" class="cls-11" d="M88.7,95.989h1.075a0.394,0.394,0,0,0,.393-0.394V94.224a0.394,0.394,0,0,0-.394-0.393H88.936a0.331,0.331,0,0,1-.308-0.22q-0.045-.118-0.1-0.232A0.331,0.331,0,0,1,88.593,93l0.594-.595a0.394,0.394,0,0,0,0-.557l-0.97-.969a0.394,0.394,0,0,0-.557,0l-0.6.6a0.325,0.325,0,0,1-.359.069c-0.086-.037-0.178-0.074-0.257-0.1a0.324,0.324,0,0,1-.206-0.3V90.3a0.394,0.394,0,0,0-.394-0.394h-1.37a0.394,0.394,0,0,0-.394.394v0.841a0.331,0.331,0,0,1-.22.308q-0.123.046-.244,0.1a0.33,0.33,0,0,1-.374-0.06l-0.6-.593a0.394,0.394,0,0,0-.557,0l-0.966.972a0.394,0.394,0,0,0,0,.557l0.6,0.6a0.325,0.325,0,0,1,.07.359c-0.036.086-.073,0.178-0.1,0.258a0.324,0.324,0,0,1-.3.207l-0.85,0a0.394,0.394,0,0,0-.393.395l0,1.371a0.394,0.394,0,0,0,.395.393l0.841,0a0.332,0.332,0,0,1,.308.22q0.045,0.118.1,0.232a0.331,0.331,0,0,1-.061.374l-0.594.6a0.394,0.394,0,0,0,0,.557l0.971,0.967a0.394,0.394,0,0,0,.557,0l0.6-.6a0.325,0.325,0,0,1,.359-0.069c0.085,0.036.178,0.073,0.257,0.1a0.324,0.324,0,0,1,.207.3v0.85a0.394,0.394,0,0,0,.395.393l1.37,0a0.394,0.394,0,0,0,.393-0.394V98.688a0.331,0.331,0,0,1,.22-0.308q0.118-.044.232-0.1a0.331,0.331,0,0,1,.374.061l0.6,0.594a0.394,0.394,0,0,0,.557,0l0.968-.97a0.394,0.394,0,0,0,0-.557l-0.6-.6a0.326,0.326,0,0,1-.069-0.359C88.61,96.248,88.7,96,88.7,95.989ZM83.25,94.563a1.942,1.942,0,1,1,1.209,2.16A1.942,1.942,0,0,1,83.25,94.563Z"/><rect class="cls-12" x="75.938" y="3.813" width="86.357" height="28.158" rx="4.055" ry="4.055"/><path class="cls-13" d="M158.24,3.813H79.993a4.055,4.055,0,0,0-4.055,4.055v2.6H162.3v-2.6A4.055,4.055,0,0,0,158.24,3.813Z"/><circle class="cls-4" cx="88.709" cy="21.568" r="6.596"/><rect class="cls-18" x="98.859" y="15.515" width="56.173" height="1.777"/><rect class="cls-18" x="98.859" y="20.688" width="56.173" height="1.777"/><rect class="cls-61" x="98.859" y="25.861" width="21.065" height="1.777"/><circle class="cls-12" cx="82.956" cy="7.142" r="0.844"/><circle class="cls-12" cx="86.621" cy="7.142" r="0.844"/><circle class="cls-12" cx="90.285" cy="7.142" r="0.844"/><rect class="cls-11" x="175.964" y="5.397" width="12.381" height="12.381" rx="2.612" ry="2.612"/><path class="cls-12" d="M178.911,11.956v0.018l1.677,0.55v0.933L177.9,12.363V11.555l2.685-1.094v0.929Z"/><path class="cls-12" d="M181.882,13.989h-1.036l1.51-4.8h1.036Z"/><path class="cls-12" d="M185.4,11.968V11.95l-1.662-.553v-0.93l2.67,1.094v0.808l-2.67,1.094V12.533Z"/><g id="_Group_9" data-name="&lt;Group&gt;"><path id="_Path_12" data-name="&lt;Path&gt;" class="cls-11" d="M215.663,100.061l-1.255-.836a0.522,0.522,0,0,0-.579,0l-1.255.836a0.242,0.242,0,0,1-.333-0.224v-5.5H216v5.5A0.242,0.242,0,0,1,215.663,100.061Z"/><path id="_Path_13" data-name="&lt;Path&gt;" class="cls-9" d="M218.028,96.887l-3.771-1.921a0.251,0.251,0,0,0-.234,0l-3.72,2.018a0.251,0.251,0,0,1-.368-0.26l0.661-4.18a0.251,0.251,0,0,0-.075-0.221l-3.068-2.914a0.251,0.251,0,0,1,.133-0.43l4.18-.663a0.251,0.251,0,0,0,.187-0.14l1.823-3.819a0.251,0.251,0,0,1,.45-0.006l1.922,3.77a0.252,0.252,0,0,0,.191.135l4.2,0.554a0.251,0.251,0,0,1,.145.427l-2.992,2.993a0.251,0.251,0,0,0-.069.223l0.769,4.162A0.251,0.251,0,0,1,218.028,96.887Z"/></g><circle id="_Path_14" data-name="&lt;Path&gt;" class="cls-11" cx="61.145" cy="54.208" r="6.48"/><g id="_Group_10" data-name="&lt;Group&gt;"><polygon id="_Path_15" data-name="&lt;Path&gt;" class="cls-12" points="60.288 56.834 58.037 54.583 59.323 53.297 60.288 54.262 62.966 51.582 64.252 52.868 60.288 56.834"/></g><g id="_Group_11" data-name="&lt;Group&gt;"><polygon id="_Path_16" data-name="&lt;Path&gt;" class="cls-9" points="164.001 164.871 162.286 162.6 165.716 162.6 164.001 164.871"/><polygon id="_Path_17" data-name="&lt;Path&gt;" class="cls-9" points="160.589 164.871 158.875 162.6 162.304 162.6 160.589 164.871"/><polygon id="_Path_18" data-name="&lt;Path&gt;" class="cls-9" points="162.295 170.667 157.178 164.847 167.413 164.847 162.295 170.667"/><polygon id="_Path_19" data-name="&lt;Path&gt;" class="cls-144" points="162.295 170.667 160.589 164.847 164.019 164.847 162.295 170.667"/><polygon id="_Path_20" data-name="&lt;Path&gt;" class="cls-144" points="158.875 162.6 157.178 164.847 160.572 164.847 158.875 162.6"/><polygon id="_Path_21" data-name="&lt;Path&gt;" class="cls-144" points="162.286 162.6 160.589 164.847 163.983 164.847 162.286 162.6"/><polygon id="_Path_22" data-name="&lt;Path&gt;" class="cls-144" points="165.716 162.6 164.019 164.847 167.413 164.847 165.716 162.6"/></g></g></g></g></svg>