<svg id="text" xmlns="http://www.w3.org/2000/svg" xmlns:xlink="http://www.w3.org/1999/xlink" viewBox="0 0 297.926 189.755"><defs><style>.cls-1{fill:url(#linear-gradient);}.cls-2{fill:#b2b8fa;}.cls-3{fill:#e0e3fd;}.cls-4{fill:#d1d4fc;}.cls-5{fill:#f0f1fe;}.cls-6{fill:#c1c6fb;}.cls-7{fill:#ffcebd;}.cls-8{fill:#536dfe;}.cls-34,.cls-9{fill:#fff;}.cls-10,.cls-11{fill:#191c3c;}.cls-11,.cls-18{opacity:0.3;}.cls-12{fill:#e55151;}.cls-13{opacity:0.14;}.cls-14{opacity:0.27;}.cls-15{fill:#bfbfbf;}.cls-16{fill:#ff5722;}.cls-17{fill:#4d5068;}.cls-19,.cls-29,.cls-30{fill:#231f20;}.cls-20{fill:#5c74fe;}.cls-21{fill:#f7f7f7;}.cls-22{fill:#717386;}.cls-23{opacity:0.29;}.cls-24{fill:#272834;}.cls-25{fill:#3a3c4e;}.cls-26{opacity:0.2;}.cls-27{fill:#474963;}.cls-28{fill:#75778a;}.cls-29,.cls-34{opacity:0.1;}.cls-30{opacity:0.21;}.cls-31{fill:#4c5159;}.cls-32{fill:#393d43;}.cls-33{fill:#dcdefd;}</style><linearGradient id="linear-gradient" x1="16.066" y1="215.833" x2="263.065" y2="55.833" gradientUnits="userSpaceOnUse"><stop offset="0" stop-color="#dfe1fd"/><stop offset="0.454" stop-color="#ebecfe"/><stop offset="1" stop-color="#f4f5fe"/></linearGradient></defs><title>description-icon-2</title><path class="cls-1" d="M292.227,132.588c5.5,8.781,8.206,19.733,2.628,28.063-4.8,7.174-14.327,10.048-19.137,17.218-2.43,3.621-3.709,8.358-7.5,10.507-2.33,1.32-5.145,1.355-7.822,1.355l-242.153.024c-2.706,0-5.518-.022-7.958-1.194-2.927-1.405-4.879-4.26-6.327-7.167a40.233,40.233,0,0,1,5.029-42.707c5.92-7.08,14.329-12.083,18.9-20.1C31.86,111.6,32.4,103.268,33.71,95.339c1.666-10.048,5.79-20.291,15.468-24.616,11.6-5.184,23.242-9.56,32.252-18.972,9.73-10.166,15.217-24.632,27.315-31.82,11.6-6.89,26.347-5.225,39.267-1.353s25.442,9.757,38.892,10.761c16.491,1.231,33.543-4.96,49.327-.024A37.007,37.007,0,0,1,259.75,52.1c5.28,15.178.224,32.69,6.431,47.513,4.646,11.1,14.781,18.742,22.455,28.006A46.526,46.526,0,0,1,292.227,132.588Z"/><g id="Layer_6" data-name="Layer 6"><g id="_Group_" data-name="&lt;Group&gt;"><g id="_Group_2" data-name="&lt;Group&gt;"><rect id="_Rectangle_" data-name="&lt;Rectangle&gt;" class="cls-2" x="37.368" y="45.101" width="18.89" height="23.159"/><rect id="_Rectangle_2" data-name="&lt;Rectangle&gt;" class="cls-3" x="41.167" y="49.759" width="11.292" height="13.843"/><rect id="_Rectangle_3" data-name="&lt;Rectangle&gt;" class="cls-4" x="43.191" y="52.24" width="7.244" height="8.881"/></g><g id="_Group_3" data-name="&lt;Group&gt;"><rect id="_Rectangle_4" data-name="&lt;Rectangle&gt;" class="cls-2" x="83.095" y="45.101" width="18.89" height="23.159"/><rect id="_Rectangle_5" data-name="&lt;Rectangle&gt;" class="cls-3" x="86.894" y="49.759" width="11.292" height="13.843"/><rect id="_Rectangle_6" data-name="&lt;Rectangle&gt;" class="cls-4" x="88.918" y="52.24" width="7.244" height="8.881"/></g><g id="_Group_4" data-name="&lt;Group&gt;"><rect id="_Rectangle_7" data-name="&lt;Rectangle&gt;" class="cls-4" x="60.232" y="45.101" width="18.89" height="23.159"/><rect id="_Rectangle_8" data-name="&lt;Rectangle&gt;" class="cls-2" x="64.031" y="49.759" width="11.292" height="13.843"/><rect id="_Rectangle_9" data-name="&lt;Rectangle&gt;" class="cls-5" x="66.055" y="52.24" width="7.244" height="8.881"/></g></g><g id="_Group_5" data-name="&lt;Group&gt;"><rect id="_Rectangle_10" data-name="&lt;Rectangle&gt;" class="cls-2" x="224.006" y="70.557" width="64.703" height="3.31"/><rect id="_Rectangle_11" data-name="&lt;Rectangle&gt;" class="cls-6" x="224.006" y="70.557" width="64.703" height="1.396"/><rect id="_Rectangle_12" data-name="&lt;Rectangle&gt;" class="cls-6" x="231.858" y="73.576" width="3.627" height="2.323"/><rect id="_Rectangle_13" data-name="&lt;Rectangle&gt;" class="cls-2" x="276.718" y="73.576" width="3.627" height="2.323"/></g><g id="_Group_6" data-name="&lt;Group&gt;"><g id="_Group_7" data-name="&lt;Group&gt;"><rect id="_Rectangle_14" data-name="&lt;Rectangle&gt;" class="cls-2" x="275.749" y="48.424" width="6.888" height="22.133"/><rect id="_Rectangle_15" data-name="&lt;Rectangle&gt;" class="cls-6" x="275.749" y="51.474" width="6.888" height="1.101"/><rect id="_Rectangle_16" data-name="&lt;Rectangle&gt;" class="cls-6" x="275.749" y="64.434" width="6.888" height="1.101"/><rect id="_Rectangle_17" data-name="&lt;Rectangle&gt;" class="cls-6" x="275.749" y="66.128" width="6.888" height="1.101"/><rect id="_Rectangle_18" data-name="&lt;Rectangle&gt;" class="cls-6" x="275.749" y="53.345" width="6.888" height="1.101"/></g><g id="_Group_8" data-name="&lt;Group&gt;"><rect id="_Rectangle_19" data-name="&lt;Rectangle&gt;" class="cls-5" x="265.608" y="47.441" width="4.512" height="23.116"/><rect id="_Rectangle_20" data-name="&lt;Rectangle&gt;" class="cls-2" x="265.608" y="50.626" width="4.512" height="1.15"/><rect id="_Rectangle_21" data-name="&lt;Rectangle&gt;" class="cls-2" x="265.608" y="64.162" width="4.512" height="1.15"/><rect id="_Rectangle_22" data-name="&lt;Rectangle&gt;" class="cls-2" x="265.608" y="65.931" width="4.512" height="1.15"/><rect id="_Rectangle_23" data-name="&lt;Rectangle&gt;" class="cls-2" x="265.608" y="52.58" width="4.512" height="1.15"/></g><g id="_Group_9" data-name="&lt;Group&gt;"><rect id="_Rectangle_24" data-name="&lt;Rectangle&gt;" class="cls-4" x="272.991" y="47.441" width="2.943" height="23.116"/><rect id="_Rectangle_25" data-name="&lt;Rectangle&gt;" class="cls-2" x="272.991" y="50.626" width="2.943" height="1.15"/><rect id="_Rectangle_26" data-name="&lt;Rectangle&gt;" class="cls-2" x="272.991" y="64.162" width="2.943" height="1.15"/><rect id="_Rectangle_27" data-name="&lt;Rectangle&gt;" class="cls-2" x="272.991" y="65.931" width="2.943" height="1.15"/><rect id="_Rectangle_28" data-name="&lt;Rectangle&gt;" class="cls-2" x="272.991" y="52.58" width="2.943" height="1.15"/></g><g id="_Group_10" data-name="&lt;Group&gt;"><rect id="_Rectangle_29" data-name="&lt;Rectangle&gt;" class="cls-6" x="269.943" y="51.776" width="2.976" height="18.781"/><rect id="_Rectangle_30" data-name="&lt;Rectangle&gt;" class="cls-5" x="269.943" y="54.364" width="2.976" height="0.934"/><rect id="_Rectangle_31" data-name="&lt;Rectangle&gt;" class="cls-5" x="269.943" y="65.361" width="2.976" height="0.935"/><rect id="_Rectangle_32" data-name="&lt;Rectangle&gt;" class="cls-5" x="269.943" y="66.799" width="2.976" height="0.934"/><rect id="_Rectangle_33" data-name="&lt;Rectangle&gt;" class="cls-5" x="269.943" y="55.951" width="2.976" height="0.934"/></g></g><g id="_Group_11" data-name="&lt;Group&gt;"><g id="_Group_12" data-name="&lt;Group&gt;"><g id="_Group_13" data-name="&lt;Group&gt;"><rect id="_Rectangle_34" data-name="&lt;Rectangle&gt;" class="cls-2" x="233.758" y="69.105" width="1.017" height="1.497"/></g></g><g id="_Group_14" data-name="&lt;Group&gt;"><g id="_Group_15" data-name="&lt;Group&gt;"><rect id="_Rectangle_35" data-name="&lt;Rectangle&gt;" class="cls-2" x="253.705" y="69.105" width="1.017" height="1.497"/></g></g><g id="_Group_16" data-name="&lt;Group&gt;"><g id="_Group_17" data-name="&lt;Group&gt;"><rect id="_Rectangle_36" data-name="&lt;Rectangle&gt;" class="cls-2" x="231.99" y="58.42" width="24.309" height="11.061"/></g></g><g id="_Group_18" data-name="&lt;Group&gt;"><g id="_Group_19" data-name="&lt;Group&gt;"><rect id="_Rectangle_37" data-name="&lt;Rectangle&gt;" class="cls-3" x="233.327" y="59.779" width="9.177" height="8.418"/></g></g><g id="_Group_20" data-name="&lt;Group&gt;"><g id="_Group_21" data-name="&lt;Group&gt;"><rect id="_Rectangle_38" data-name="&lt;Rectangle&gt;" class="cls-5" x="236.324" y="62.527" width="3.184" height="2.921"/></g></g><g id="_Group_22" data-name="&lt;Group&gt;"><g id="_Group_23" data-name="&lt;Group&gt;"><rect id="_Rectangle_39" data-name="&lt;Rectangle&gt;" class="cls-2" x="237.729" y="60.207" width="0.186" height="0.878"/></g></g><g id="_Group_24" data-name="&lt;Group&gt;"><g id="_Group_25" data-name="&lt;Group&gt;"><rect id="_Rectangle_40" data-name="&lt;Rectangle&gt;" class="cls-2" x="239.414" y="60.609" width="0.186" height="0.878" transform="translate(62.625 -111.588) rotate(30.004)"/></g></g><g id="_Group_26" data-name="&lt;Group&gt;"><g id="_Group_27" data-name="&lt;Group&gt;"><rect id="_Rectangle_41" data-name="&lt;Rectangle&gt;" class="cls-2" x="240.672" y="61.801" width="0.186" height="0.878" transform="translate(174.553 -177.464) rotate(60.064)"/></g></g><g id="_Group_28" data-name="&lt;Group&gt;"><g id="_Group_29" data-name="&lt;Group&gt;"><rect id="_Rectangle_42" data-name="&lt;Rectangle&gt;" class="cls-2" x="241.164" y="63.462" width="0.186" height="0.878" transform="translate(305.676 -177.219) rotate(90.123)"/></g></g><g id="_Group_30" data-name="&lt;Group&gt;"><g id="_Group_31" data-name="&lt;Group&gt;"><rect id="_Rectangle_43" data-name="&lt;Rectangle&gt;" class="cls-2" x="240.759" y="65.146" width="0.186" height="0.878" transform="matrix(-0.502, 0.865, -0.865, -0.502, 418.518, -109.759)"/></g></g><g id="_Group_32" data-name="&lt;Group&gt;"><g id="_Group_33" data-name="&lt;Group&gt;"><rect id="_Rectangle_44" data-name="&lt;Rectangle&gt;" class="cls-2" x="239.565" y="66.402" width="0.186" height="0.878" transform="translate(480.844 5.746) rotate(150.202)"/></g></g><g id="_Group_34" data-name="&lt;Group&gt;"><g id="_Group_35" data-name="&lt;Group&gt;"><rect id="_Rectangle_45" data-name="&lt;Rectangle&gt;" class="cls-2" x="237.902" y="66.89" width="0.186" height="0.878" transform="matrix(-1, -0.004, 0.004, -1, 475.7, 135.679)"/></g></g><g id="_Group_36" data-name="&lt;Group&gt;"><g id="_Group_37" data-name="&lt;Group&gt;"><rect id="_Rectangle_46" data-name="&lt;Rectangle&gt;" class="cls-2" x="236.219" y="66.482" width="0.186" height="0.878" transform="translate(406.68 243.829) rotate(-149.732)"/></g></g><g id="_Group_38" data-name="&lt;Group&gt;"><g id="_Group_39" data-name="&lt;Group&gt;"><rect id="_Rectangle_47" data-name="&lt;Rectangle&gt;" class="cls-2" x="234.966" y="65.285" width="0.186" height="0.878" transform="translate(294.491 302.452) rotate(-119.714)"/></g></g><g id="_Group_40" data-name="&lt;Group&gt;"><g id="_Group_41" data-name="&lt;Group&gt;"><rect id="_Rectangle_48" data-name="&lt;Rectangle&gt;" class="cls-2" x="234.48" y="63.622" width="0.186" height="0.878" transform="translate(168.991 298.214) rotate(-89.628)"/></g></g><g id="_Group_42" data-name="&lt;Group&gt;"><g id="_Group_43" data-name="&lt;Group&gt;"><rect id="_Rectangle_49" data-name="&lt;Rectangle&gt;" class="cls-2" x="234.893" y="61.939" width="0.186" height="0.878" transform="translate(62.305 233.524) rotate(-59.611)"/></g></g><g id="_Group_44" data-name="&lt;Group&gt;"><g id="_Group_45" data-name="&lt;Group&gt;"><rect id="_Rectangle_50" data-name="&lt;Rectangle&gt;" class="cls-2" x="236.092" y="60.689" width="0.186" height="0.878" transform="translate(0.621 124.607) rotate(-29.592)"/></g></g><g id="_Group_46" data-name="&lt;Group&gt;"><g id="_Group_47" data-name="&lt;Group&gt;"><rect id="_Rectangle_51" data-name="&lt;Rectangle&gt;" class="cls-2" x="237.916" y="63.744" width="2.316" height="0.408"/></g></g><g id="_Group_48" data-name="&lt;Group&gt;"><g id="_Group_49" data-name="&lt;Group&gt;"><rect id="_Rectangle_52" data-name="&lt;Rectangle&gt;" class="cls-2" x="236.838" y="62.873" width="2.316" height="0.204" transform="translate(175.021 300.972) rotate(-90)"/></g></g><g id="_Group_50" data-name="&lt;Group&gt;"><g id="_Group_51" data-name="&lt;Group&gt;"><rect id="_Rectangle_53" data-name="&lt;Rectangle&gt;" class="cls-6" x="243.934" y="59.964" width="10.975" height="0.435"/></g></g><g id="_Group_52" data-name="&lt;Group&gt;"><g id="_Group_53" data-name="&lt;Group&gt;"><rect id="_Rectangle_54" data-name="&lt;Rectangle&gt;" class="cls-6" x="243.934" y="61.048" width="10.975" height="0.435"/></g></g><g id="_Group_54" data-name="&lt;Group&gt;"><g id="_Group_55" data-name="&lt;Group&gt;"><rect id="_Rectangle_55" data-name="&lt;Rectangle&gt;" class="cls-6" x="243.934" y="62.132" width="10.975" height="0.435"/></g></g><g id="_Group_56" data-name="&lt;Group&gt;"><g id="_Group_57" data-name="&lt;Group&gt;"><rect id="_Rectangle_56" data-name="&lt;Rectangle&gt;" class="cls-6" x="243.934" y="63.217" width="10.975" height="0.435"/></g></g><g id="_Group_58" data-name="&lt;Group&gt;"><g id="_Group_59" data-name="&lt;Group&gt;"><rect id="_Rectangle_57" data-name="&lt;Rectangle&gt;" class="cls-6" x="243.934" y="64.301" width="10.975" height="0.435"/></g></g><g id="_Group_60" data-name="&lt;Group&gt;"><g id="_Group_61" data-name="&lt;Group&gt;"><rect id="_Rectangle_58" data-name="&lt;Rectangle&gt;" class="cls-6" x="243.934" y="65.385" width="10.975" height="0.434"/></g></g><g id="_Group_62" data-name="&lt;Group&gt;"><g id="_Group_63" data-name="&lt;Group&gt;"><rect id="_Rectangle_59" data-name="&lt;Rectangle&gt;" class="cls-6" x="243.934" y="66.469" width="10.975" height="0.435"/></g></g><g id="_Group_64" data-name="&lt;Group&gt;"><g id="_Group_65" data-name="&lt;Group&gt;"><rect id="_Rectangle_60" data-name="&lt;Rectangle&gt;" class="cls-6" x="243.934" y="67.554" width="10.975" height="0.435"/></g></g></g><rect class="cls-4" x="108.007" y="44.487" width="104.728" height="56.442"/><rect class="cls-6" x="105.46" y="97.731" width="109.822" height="4.756"/><polygon class="cls-2" points="125.666 87.706 125.188 87.075 138.829 76.734 149.273 82.964 168.98 63.051 177.736 73.76 195.829 60.561 196.291 61.204 177.594 74.838 168.925 64.234 149.4 83.962 138.882 77.689 125.666 87.706"/><rect class="cls-2" x="124.627" y="51.671" width="0.792" height="40.649"/><rect class="cls-2" x="117.912" y="87.367" width="89.26" height="0.792"/><circle class="cls-2" cx="196.561" cy="60.49" r="1.82"/><circle class="cls-2" cx="168.894" cy="63.753" r="1.82"/><circle class="cls-2" cx="138.811" cy="77.42" r="1.82"/><circle class="cls-2" cx="149.311" cy="83.113" r="1.82"/><circle class="cls-2" cx="177.505" cy="73.989" r="1.82"/><polygon class="cls-7" points="239.339 73.844 254.152 70.128 251.163 63.49 251.234 57.512 246.479 47.356 242.176 55.683 240.618 65.167 239.339 73.844"/><path class="cls-7" d="M223.24,78.546h-0.386L212.163,64.31l-1.171-3.132a2.074,2.074,0,0,0-1.943-1.348h-1.781l-0.773.451-8.115-.451h0a1.6,1.6,0,0,0,1.545,1.6l4.123,0.15,0.121,3.016a2.8,2.8,0,0,0,1.743,2.48l2.773,1.125,1.095,0.987,10.362,17.029a1.243,1.243,0,0,0,1.47.528l3.882-1.349-1.674-6.827Z"/><rect class="cls-7" x="223.112" y="175.669" width="6.662" height="5.205" transform="translate(452.886 356.543) rotate(180)"/><path class="cls-8" d="M232.361,105.486l-9.249,40.944v30.708h6.662s5.517-21.305,2.706-30.153l11.034-25.538Z"/><polygon class="cls-9" points="231.509 177.138 231.509 184.911 209.718 184.911 209.718 182.204 215.964 180.955 220.614 175.611 221.585 175.611 223.112 178.11 229.774 178.318 230.746 177.138 231.509 177.138"/><rect class="cls-10" x="219.902" y="176.428" width="0.832" height="1.825" transform="translate(-60.076 214.343) rotate(-46.349)"/><rect class="cls-10" x="218.805" y="177.813" width="0.834" height="1.357" transform="translate(-63.448 182.368) rotate(-39.938)"/><polygon class="cls-10" points="218.266 180.146 218.841 179.543 217.967 178.71 217.393 179.313 218.266 180.146"/><rect class="cls-7" x="245.232" y="177.138" width="4.945" height="5.205" transform="translate(495.409 359.481) rotate(180)"/><polygon class="cls-11" points="231.621 108.759 234.786 108.956 243.515 121.447 238.885 132.162 236.332 120.085 230.813 112.337 231.621 108.759"/><path class="cls-8" d="M253.091,110l-0.416,35.288c3.747,7.7-2.5,31.853-2.5,31.853h-5.413l-0.729-28.488L238,120.085l-8.224-11.546Z"/><polygon class="cls-9" points="237.616 184.793 246.247 184.793 251.218 182.482 250.871 178.318 250.177 179.359 248.928 179.428 247.401 177.138 243.237 177.138 237.616 184.793"/><polygon class="cls-10" points="251.218 182.482 251.218 184.078 246.638 186.645 237.616 186.645 237.616 184.793 246.247 184.793 251.218 182.482"/><rect class="cls-10" x="242.421" y="178.595" width="2.811" height="0.833"/><rect class="cls-10" x="241.823" y="180.053" width="2.811" height="0.833"/><rect class="cls-10" x="240.886" y="181.51" width="2.81" height="0.833"/><rect class="cls-10" x="209.718" y="184.793" width="21.791" height="1.852" transform="translate(441.227 371.439) rotate(180)"/><path class="cls-9" d="M240.618,65.167L230.876,70.8a2.969,2.969,0,0,0-.5.365l-7.264,6.558,1.457,9.348,18.368-10.918Z"/><polygon class="cls-9" points="257.975 75.283 254.152 111.019 227.9 111.019 234.875 69.295 240.618 65.167 243.839 70.777 251.163 63.49 257.975 75.283"/><path class="cls-12" d="M247.985,52.673a5.714,5.714,0,0,1,.418,2.384,18.39,18.39,0,0,0,.429,3.927,10.516,10.516,0,0,0,.785,1.788,0.606,0.606,0,0,0,.2.255,0.472,0.472,0,0,0,.246.057,1.52,1.52,0,0,0,1.314-1.095,6.773,6.773,0,0,0,.228-1.8c0.071-1,.643-1.988.782-3,0.049-.355.043-0.715,0.077-1.072a20.489,20.489,0,0,1,.585-2.5c0.374-1.658-.307-3.063-1.108-4.488-0.4-.716-0.776-1.487-1.248-2.161-0.6-.857-1.467-0.839-2.287-1.366-0.634-.408-1.058-1.186-1.8-1.319-0.919-.165-1.849.77-2.711,0.412-0.895-.373-1.718-0.864-2.7-0.313a3.047,3.047,0,0,1-1.015.519,3.389,3.389,0,0,1-.78-0.074,3.783,3.783,0,0,0-1.505.258,1.6,1.6,0,0,0-1.144.808,7.554,7.554,0,0,1-.159.851,1.12,1.12,0,0,1-.922.507,2.782,2.782,0,0,0-1.068.219,2.471,2.471,0,0,0-.419,2.282,1.616,1.616,0,0,0,1.566.725c0.609-.03,1.2-0.238,1.806-0.278a1.658,1.658,0,0,1,1.592.679,2.14,2.14,0,0,1,.182.531l0.74,2.991a5.146,5.146,0,0,0,1.185,2.581,2.834,2.834,0,0,0,2.767.6,3.417,3.417,0,0,0,2.076-1.989,3.843,3.843,0,0,1,.506-1.094,0.792,0.792,0,0,1,1.067-.2A1.553,1.553,0,0,1,247.985,52.673Z"/><path class="cls-7" d="M235.889,48.58v4.788l0.625,0.625a6.97,6.97,0,0,0-1.249,3.851h1.249v2.368a3.669,3.669,0,0,0,3.669,3.669h0.468a5.127,5.127,0,0,0,5.127-5.127V56.7s1.978-.937,1.978-2.706c0,0,.312-2.707-1.353-2.6,0,0-2.186-.1-2.29,1.666l-2.385.208v-1.34a1.792,1.792,0,0,0-1.675-1.788h0l-0.1-2.805S237.139,46.81,235.889,48.58Z"/><path class="cls-12" d="M236.723,61.337c0.365-.2.52,0.346,0.554,0.6a0.653,0.653,0,0,0,.357.607,0.643,0.643,0,0,0,.314-0.026,1.793,1.793,0,0,0,.813-0.376,1.329,1.329,0,0,0,.734-1.124,1.262,1.262,0,0,0-.687-1.258,2.85,2.85,0,0,0-1.383-.133,1.146,1.146,0,0,1-1.119-.148,0.757,0.757,0,0,1,0-.658,1.072,1.072,0,0,1,.157-0.348,3.313,3.313,0,0,1,1.658-.22,7.267,7.267,0,0,1,1.285-.042,1.6,1.6,0,0,1,1.062.535,2.005,2.005,0,0,0,.666.786,0.858,0.858,0,0,0,.428.025,1.15,1.15,0,0,0,.83-0.468,1.755,1.755,0,0,0-.04-1.385c-0.289-1.024-.165-2.093-0.443-3.092-0.152-.547-0.436-1.884.02-2.352h2.429a8.587,8.587,0,0,0-.1,4.2c0.775,1.864,2.321,4.523.506,6.273a5.763,5.763,0,0,1-1.74,1.023,4.514,4.514,0,0,1-1.229.4c-0.494.063-1-.04-1.493-0.017a8.008,8.008,0,0,1-1.866.135,3.414,3.414,0,0,1-1.123-.523,0.647,0.647,0,0,1-.2-0.164,1.79,1.79,0,0,1-.126-0.353A1.391,1.391,0,0,0,236.848,63a1.877,1.877,0,0,1-.308-1.133A0.59,0.59,0,0,1,236.723,61.337Z"/><g class="cls-13"><path class="cls-10" d="M231.735,156.842a2.328,2.328,0,0,0,.57-1.258c0-.251-0.808-1.608-0.72-1.715a0.8,0.8,0,0,1,.587-0.288,1.36,1.36,0,0,0-.646-0.654,0.557,0.557,0,0,1-.206-0.794,2.118,2.118,0,0,1,1.049-.207c-0.071-.847-0.3-1.706-0.455-2.543a5.188,5.188,0,0,0-.82-2.152c-0.416-.553-1.161-0.633-1.445-1.275a0.31,0.31,0,0,1-.035-0.178,0.355,0.355,0,0,1,.369-0.2,15.149,15.149,0,0,0,1.873-.112c0.347-.063,1.213-0.566,1.37-0.265a5.517,5.517,0,0,1-.743,1.786,25.794,25.794,0,0,1,.742,8.919c-0.082,1.778-.246,3.552-0.458,5.319a24,24,0,0,1-.747,4.942,4.479,4.479,0,0,0-.363-2.086,9.391,9.391,0,0,0-1.232-1.851,1.218,1.218,0,0,1-.209-0.329,1.079,1.079,0,0,1-.05-0.347,5.06,5.06,0,0,1,.053-0.865c0.712,0.394,1.409.694,2.139,1.012a5.7,5.7,0,0,0-.884-3.009,1.106,1.106,0,0,1-.384-0.681,0.844,0.844,0,0,1,.1-0.318A5.608,5.608,0,0,1,231.735,156.842Zm6.988-24.305c0.238-.55-1.109-0.059-1.187,0a2.789,2.789,0,0,0-.939,1.313,22.839,22.839,0,0,0-.543,2.484,6.709,6.709,0,0,1-1.774,3.134,0.663,0.663,0,0,1,.515.856,2.656,2.656,0,0,1-.629.954c-0.433.529-.62,1.5-1.083,1.938a2.36,2.36,0,0,1-.833.315,16.15,16.15,0,0,1,1.179,1.26Z"/></g><g class="cls-14"><path class="cls-15" d="M254.852,104.475L254.71,105.8a0.434,0.434,0,0,1-.089-0.45A7.865,7.865,0,0,0,254.852,104.475Z"/><path class="cls-15" d="M254.967,89.084c0.8-.2-0.763-0.846-1.341-1.508-0.082-.216,1.723-0.257,1.9-0.371-0.109-.792,0-1.508-0.105-2.3-0.417-.217-1.95-0.387-1.553-0.52,1.976-.664.354-9.26-0.224-10.541a36.372,36.372,0,0,1,2.288,3.731,24.874,24.874,0,0,1,1.288,4.72l-0.236,2.2c-0.1.019-.193,0.034-0.288,0.055a2.687,2.687,0,0,1,.257.237l-0.551,5.155c-0.156.019-.035,0.48-0.191,0.5a0.6,0.6,0,0,1,.114.225l-1.293,12.087c-0.884,5.1-1.008-3.284-.884-4.733,0.252-2.943,1.787-6.387-.279-6.87C253.4,91.041,254.533,89.137,254.967,89.084Z"/></g><polygon class="cls-7" points="264.854 87.075 265.375 93.027 260.066 118.012 260.69 121.239 260.066 125.507 258.529 126.86 256.422 127.484 254.152 128.317 253.196 128.317 251.163 127.484 252.467 125.819 252.987 123.167 252.155 124.57 250.575 124.986 252.571 120.085 255.841 116.696 257.975 95.056 257.151 87.075 264.854 87.075"/><polygon class="cls-11" points="265 88.74 257.323 88.74 257.151 87.075 264.854 87.075 265 88.74"/><path class="cls-9" d="M251.163,63.49l11.895,6.788a4.414,4.414,0,0,1,2.222,3.628L265.9,87.075h-9.473l-0.582-9.036Z"/><path class="cls-16" d="M17.678,113.175c10.106,6.258,6.962,20.891,6.826,31q-0.225,16.727-.451,33.453a0.522,0.522,0,0,0,1.043,0q0.269-19.99.539-39.981c0.127-9.41,1.737-19.7-7.43-25.379a0.522,0.522,0,0,0-.527.9h0Z"/><path class="cls-12" d="M23.29,118.265a12.743,12.743,0,0,0-1.63-2.769,13.556,13.556,0,0,0-3.947-2.888l-0.21.112a12.525,12.525,0,0,0-.825,6.77,7.519,7.519,0,0,0,3.887,5.408c1.522,0.732,3.322.828,4.742,1.742C25.707,123.753,24.538,120.9,23.29,118.265Z"/><path class="cls-12" d="M33.876,100.516C23.839,104.5,26,119.723,25.594,128.3c-0.686,14.551-1.057,29.1-.961,43.669a0.522,0.522,0,0,0,1.043,0q-0.119-18.169.627-36.327c0.23-5.469.5-10.936,0.763-16.4,0.3-6.348.008-14.912,7.087-17.72,0.617-.245.348-1.254-0.277-1.006h0Z"/><path class="cls-16" d="M27,118.028c-0.018-.05-0.031-0.1-0.049-0.153a4.724,4.724,0,0,0-.406.767Z"/><path class="cls-12" d="M34.447,101.4a0.515,0.515,0,0,0-.766-0.347,10.964,10.964,0,0,0-6.96,6.955,15.106,15.106,0,0,0,.235,9.865c1.248-1.97,3.782-2.955,5.556-4.588C35.662,110.387,36.145,105.332,34.447,101.4Z"/><path class="cls-17" d="M16.69,171.985h17.3a0,0,0,0,1,0,0v11.628a5.822,5.822,0,0,1-5.822,5.822H22.512a5.822,5.822,0,0,1-5.822-5.822V171.985A0,0,0,0,1,16.69,171.985Z"/><path class="cls-12" d="M25.794,151.267c-0.157-4.032-.34-8.807,2.655-11.968,2.338-2.467,8.333-4.167,11.694-4.254a0.522,0.522,0,0,0,0-1.043c-2.563.066-5.236,1.083-7.65,1.9a11.188,11.188,0,0,0-4.781,2.658c-3.217,3.37-3.129,8.377-2.96,12.706a0.522,0.522,0,0,0,1.043,0h0Z"/><path class="cls-12" d="M41.267,133.582a0.326,0.326,0,0,0-.256-0.072l-3.785.032a13.345,13.345,0,0,0-3.255.3,10.153,10.153,0,0,0-5.21,3.873l-0.393.06a30.266,30.266,0,0,0,5.957,1.666,6.311,6.311,0,0,0,5.62-1.923,7.828,7.828,0,0,0,1.356-3.661A0.325,0.325,0,0,0,41.267,133.582Z"/><g class="cls-18"><path class="cls-19" d="M22.178,171.969H16.69V183.8a5.552,5.552,0,0,0,2.5,4.638c0.005-.017.017-0.031,0.022-0.048l4-15.082A1.063,1.063,0,0,0,22.178,171.969Z"/><path class="cls-19" d="M24.435,149.149q-0.049,3.6-.1,7.2a20.366,20.366,0,0,0,1.425-1.833q0.043-2.694.105-5.387A10.683,10.683,0,0,0,24.435,149.149Z"/></g><rect class="cls-7" x="168.605" y="172.471" width="5.081" height="8.519" transform="translate(-74.868 175.479) rotate(-45.628)"/><rect class="cls-7" x="139.768" y="173.201" width="5.081" height="8.519" transform="translate(58.331 -33.944) rotate(17.062)"/><polygon class="cls-17" points="113.17 153.327 108.509 186.602 110.15 186.645 118.843 152.283 113.268 152.283 113.17 153.327"/><polygon class="cls-17" points="147.637 153.327 152.297 186.602 150.657 186.645 141.963 152.283 147.539 152.283 147.637 153.327"/><path class="cls-17" d="M114.069,148.419h32.619a4.763,4.763,0,0,1,4.763,4.763v0.145a0,0,0,0,1,0,0H109.306a0,0,0,0,1,0,0v-0.145A4.763,4.763,0,0,1,114.069,148.419Z"/><polygon class="cls-8" points="111.053 140.545 142.613 155.071 169.685 179.444 174.747 174.409 151.452 148.419 127.995 131.741 111.053 140.545"/><path class="cls-20" d="M109.16,133.428v5.942a9.317,9.317,0,0,0,9.317,9.317H147.9c-5.282,6.383-8.309,26.963-8.309,26.963l6.626,1.81,11.7-29.941a8.444,8.444,0,0,0-7.89-11.451H128.963l0.151-2.641H109.16Z"/><path class="cls-9" d="M121.764,104.911l5.491,1.035a10.888,10.888,0,0,1,7.751,5.891l4.493,9.13L135,131.082l-0.457,4.547s-21.8,9.661-27.149,5.282l-0.248-23.245,8.228-12.033Z"/><path class="cls-7" d="M114.135,98.179s1.741,7.822,1.374,12.37h6.383s-0.659-7.763.66-9.042Z"/><path class="cls-7" d="M125.345,91.725a11.857,11.857,0,0,0-1.257-4.078l-0.238.116a5.81,5.81,0,0,0-5.475-1.261,7.77,7.77,0,0,0-4.488,3.567,9.334,9.334,0,0,0-.7,8.041,9.118,9.118,0,0,0,5.968,5.413,3.625,3.625,0,0,0,3.195-.336,4.387,4.387,0,0,0,.864-1.03,8.608,8.608,0,0,0,1.509-3.089,19.7,19.7,0,0,0,.11-2.735C124.913,94.786,125.433,93.27,125.345,91.725Z"/><path class="cls-17" d="M122.61,85.767a17.99,17.99,0,0,0-2.361-1.724,8.746,8.746,0,0,0-2.151-.738c-1.873-.43-3.136-0.309-4.567,1.083a6,6,0,0,0-1.841,4.02,3.828,3.828,0,0,1-.1,1.022,3.7,3.7,0,0,1-.638,1.024,6.843,6.843,0,0,0-.793,6.308,4.572,4.572,0,0,0,1.737,2.454c0.7,0.4,2.5.7,2.846,1.544a8.648,8.648,0,0,1-.6-4.047,2.175,2.175,0,0,1,.292-1.019,0.889,0.889,0,0,1,.914-0.415,1.95,1.95,0,0,1,.635.416,2.154,2.154,0,0,0,1.278.438,0.894,0.894,0,0,0,.517-0.125,0.952,0.952,0,0,0,.336-0.627,7.364,7.364,0,0,0-.543-3.6c-0.319-.928-0.38-2.142.855-2.063,1.11,0.07,2.246.751,3.431,0.816a9.91,9.91,0,0,0,6.764-2.125A14.08,14.08,0,0,1,122.61,85.767Z"/><polygon class="cls-8" points="119.911 110.55 121.764 104.471 122.86 104.677 124.019 114.438 119.911 110.55"/><path class="cls-7" d="M115.285,104.911l-5.839,1.1a8.67,8.67,0,0,0-6.38,5.158l-6.521,15.512a3.334,3.334,0,0,0,3.073,4.626l23.325-1.165,1.076-3.3-2.568.873-14.6-1.237a1.539,1.539,0,0,1-1.116-2.436l9.773-13.494S117.262,105.728,115.285,104.911Z"/><path class="cls-9" d="M115.285,104.911l-5.839,1.1a8.669,8.669,0,0,0-6.38,5.158l-4.5,9.574c3.521-.367,7.174,3.3,9.684,1.32l7.263-11.518S117.262,105.728,115.285,104.911Z"/><polygon class="cls-8" points="115.233 104.531 119.911 110.55 116.609 114.878 113.614 104.911 115.233 104.531"/><path class="cls-17" d="M137.708,179.281l-1.625,4.115v3.249h19.927v-0.9a1.741,1.741,0,0,0-1.338-1.694l-3.211-.765-6.714-4.007h-1.191l-0.541,1.191H139.55l-0.325-1.191h-1.516Z"/><path class="cls-9" d="M136.084,184.913v1.733h19.927v-0.9a1.735,1.735,0,0,0-.213-0.834H136.084Z"/><path class="cls-17" d="M170.74,180.9l2.328,3.762,2.6,1.942,12.368-15.974-0.721-.537a1.741,1.741,0,0,0-2.158.06l-2.532,2.117-7.682,2.987-0.712.955,0.631,1.146-2.072,2.778-1.149-.452Z"/><path class="cls-9" d="M174.284,185.566l1.389,1.036,12.368-15.974-0.721-.538a1.735,1.735,0,0,0-.8-0.327Z"/><polygon class="cls-17" points="95.727 133.255 85.8 189.435 87.522 189.435 101.608 132.854 95.727 133.255"/><polygon class="cls-17" points="251.69 133.255 261.618 189.435 259.895 189.435 245.809 132.854 251.69 133.255"/><rect class="cls-21" x="75.136" y="136.425" width="197.239" height="2.667"/><polygon class="cls-9" points="75.136 136.425 86.073 130.619 276.325 130.619 272.421 136.425 75.136 136.425"/><polygon class="cls-21" points="272.375 139.092 276.325 133.522 276.325 130.619 272.421 136.425 272.375 139.092"/><rect class="cls-17" x="106.628" y="131.271" width="14.269" height="1.871"/><path class="cls-17" d="M145.279,133.143H115.907l6.923-17.921a1.117,1.117,0,0,1,1.042-.715h26.977a1.117,1.117,0,0,1,1.042,1.519Z"/><circle class="cls-22" cx="134.193" cy="123.825" r="1.831"/><g id="_Group_66" data-name="&lt;Group&gt;"><g id="_Group_67" data-name="&lt;Group&gt;"><g id="_Group_68" data-name="&lt;Group&gt;"><g id="_Group_69" data-name="&lt;Group&gt;"><path id="_Path_" data-name="&lt;Path&gt;" class="cls-12" d="M156.607,129.7h-1.285a2.12,2.12,0,1,1,0-4.24h0.826v0.9h-0.826a1.222,1.222,0,1,0,0,2.443h1.285v0.9Z"/></g></g></g><g id="_Group_70" data-name="&lt;Group&gt;"><g id="_Group_71" data-name="&lt;Group&gt;"><path id="_Path_2" data-name="&lt;Path&gt;" class="cls-12" d="M163.576,124.756h-7.815v2.376a6.735,6.735,0,0,0,1.779,4.56h0v1.186H161.8v-1.186h0a6.735,6.735,0,0,0,1.778-4.56v-2.376Z"/></g></g><g id="_Group_72" data-name="&lt;Group&gt;" class="cls-23"><g id="_Group_73" data-name="&lt;Group&gt;"><path id="_Path_3" data-name="&lt;Path&gt;" class="cls-9" d="M161.969,124.756v2.376a6.735,6.735,0,0,1-1.779,4.56h0v1.186h0.919v-1.186h0a6.736,6.736,0,0,0,1.779-4.56v-2.376h-0.919Z"/></g></g></g><g id="_Group_74" data-name="&lt;Group&gt;"><g id="_Group_75" data-name="&lt;Group&gt;"><g id="_Group_76" data-name="&lt;Group&gt;"><polygon id="_Path_4" data-name="&lt;Path&gt;" class="cls-24" points="222.674 134.609 224.48 134.609 222.674 126.89 216.003 134.609 222.674 134.609"/></g></g><g id="_Group_77" data-name="&lt;Group&gt;"><g id="_Group_78" data-name="&lt;Group&gt;"><polygon id="_Path_5" data-name="&lt;Path&gt;" class="cls-25" points="220.64 134.609 210.258 134.609 214.692 120.246 225.074 120.246 220.64 134.609"/></g></g><g id="_Group_79" data-name="&lt;Group&gt;"><g id="_Group_80" data-name="&lt;Group&gt;"><polygon id="_Path_6" data-name="&lt;Path&gt;" class="cls-17" points="219.532 134.609 209.15 134.609 213.583 120.246 223.966 120.246 219.532 134.609"/></g></g><g id="_Group_81" data-name="&lt;Group&gt;"><g id="_Group_82" data-name="&lt;Group&gt;"><polygon id="_Path_7" data-name="&lt;Path&gt;" class="cls-12" points="218.752 132.726 211.092 132.726 214.363 122.129 222.024 122.129 218.752 132.726"/></g></g><g id="_Group_83" data-name="&lt;Group&gt;" class="cls-26"><g id="_Group_84" data-name="&lt;Group&gt;"><polygon id="_Path_8" data-name="&lt;Path&gt;" class="cls-9" points="211.646 132.449 214.832 122.129 214.363 122.129 211.092 132.726 218.752 132.726 218.838 132.449 211.646 132.449"/></g></g></g><path class="cls-10" d="M244.058,132.964l-0.006,0a0.346,0.346,0,0,1-.47-0.132l-10.928-19.461a0.346,0.346,0,0,1,.132-0.471l0.006,0a0.345,0.345,0,0,1,.47.132l10.928,19.462A0.345,0.345,0,0,1,244.058,132.964Z"/><path class="cls-27" d="M242.528,132.806h27.66a0.889,0.889,0,0,1,.889.889v0.547a0.89,0.89,0,0,1-.89.89H242.527a0.889,0.889,0,0,1-.889-0.889V133.7a0.89,0.89,0,0,1,.89-0.89Z"/><path class="cls-10" d="M271.077,133.881a1.064,1.064,0,0,0-.263-0.684,1.082,1.082,0,0,1-1.081,1.078l-27.274.015a1.065,1.065,0,0,1-.82-0.4v0.166a1.083,1.083,0,0,0,1.083,1.082L270,135.125a1.082,1.082,0,0,0,1.082-1.083v-0.161Z"/><rect class="cls-28" x="261.316" y="133.424" width="2.14" height="0.82"/><rect class="cls-28" x="263.851" y="133.423" width="2.14" height="0.82"/><rect class="cls-28" x="245.848" y="133.433" width="2.14" height="0.82"/><rect class="cls-7" x="42.013" y="174.582" width="6.655" height="6.873" transform="translate(12.932 358.839) rotate(-155.55)"/><polygon class="cls-17" points="70.474 139.289 64.189 154.73 49.277 178.617 42.012 175.336 56.982 147.182 58.404 112.861 70.474 139.289"/><polygon class="cls-10" points="49.218 178.408 49.725 178.632 52.097 184.394 53.414 186.412 57.54 187.544 57.533 189.235 52.666 189.328 37.681 183.012 37.368 180.988 39.434 176.31 40.743 176.079 41.762 176.53 43.084 179.942 47.787 181.952 49.218 178.408"/><polygon class="cls-12" points="37.373 180.976 39.434 176.31 40.743 176.079 41.762 176.53 43.084 179.942 47.787 181.952 49.218 178.408 49.725 178.632 52.097 184.394 53.414 186.412 57.54 187.544 57.539 187.973 53.96 187.973 37.373 180.976"/><rect class="cls-7" x="64.808" y="178.888" width="6.206" height="6.41" transform="translate(135.821 364.186) rotate(180)"/><polygon class="cls-10" points="71.875 181.161 72.392 181.161 76.587 185.183 83.252 187.711 83.252 189.435 63.768 189.435 62.739 187.826 62.739 183.057 63.768 182.367 64.808 182.367 67.221 184.781 71.99 184.723 71.875 181.161"/><polygon class="cls-12" points="64.808 182.367 67.221 184.781 71.99 184.723 71.875 181.161 72.392 181.161 76.587 185.183 83.138 187.668 62.739 187.668 62.739 183.057 63.768 182.367 64.808 182.367"/><path class="cls-17" d="M103.162,89.1c-0.86-1.555-1.884-3.025-2.593-4.654-1.587-3.648-1.472-7.779-1.33-11.755l-0.535-1.5a11.1,11.1,0,0,0-5.186.008A3.981,3.981,0,0,0,90,73.576a16.554,16.554,0,0,0-1.539,2.8c-0.995,2.533-.047,4.982-0.343,7.542a74.949,74.949,0,0,1-1.9,8.127,22.639,22.639,0,0,0-.654,3.732,11.515,11.515,0,0,0,2.292,7.514,26.974,26.974,0,0,0,2.52,2.561,1.38,1.38,0,0,0,2.286-.572c0.754-2.292,2.154-4.587,3.814-5.008-0.245-1.627.878-2.852,1.654-4.162a10.193,10.193,0,0,0,1.135-5.246c1.719,0.018,4.2,2.188,5.454,3.27A10.468,10.468,0,0,0,103.162,89.1Z"/><path class="cls-29" d="M57.806,127.3c0.069,0.2.141,0.389,0.208,0.59l5.176,20.671v7.772l1-1.6,6.285-15.441L58.4,112.861Z"/><path class="cls-17" d="M56.456,107.11l-2.078,5.262c0,6.127,3.066,9.7,5,15.515l5.176,20.671v33.064h7.3l2.762-33.507-0.457-33.5Z"/><path class="cls-7" d="M88.976,84.513l9,12.679a5.037,5.037,0,0,0,.483.545l6.758,5.681,3.174-1.134a2.593,2.593,0,0,1,2.007.11l4.2,2.975-1.281.3-1.723.611,0.259,0.544,1.575-.09a1.319,1.319,0,0,1,1.351.981l0.068,0.258-3.316.432c-1.329.645-2.847-.284-4.12-0.457l-2.4-.175-0.6-.2-8.178-5.288a9.154,9.154,0,0,1-2.3-1.851l-6.914-6.785Z"/><path class="cls-12" d="M85.131,79.822L82.449,91.781l8.809,8.067c2.66-.565,3.024-8.86,3.024-8.86Z"/><path class="cls-7" d="M95.46,78.533s-4.838,2.363-5.513,4.388L87.809,75.27l6.751-4.613Z"/><path class="cls-12" d="M84.037,73.524L84,73.546A58.539,58.539,0,0,0,65.663,90.46L54,107.11c-1.519,11.616,11.536,16.84,21.266,13.5L79.184,107.5a7.972,7.972,0,0,1,3.435-4.491l2.171-1.347a9.975,9.975,0,0,0,3.868-4.31,21.468,21.468,0,0,0,1.634-12.316l-0.345-2.117L87.809,71.894Z"/><path class="cls-29" d="M81.295,84.393c-2.32.106-3.419,1.849-3.419,4.171l-0.727,18.675a3,3,0,0,0,.057.58l0.748,3.8,1.231-4.12a7.972,7.972,0,0,1,3.435-4.49l0.431-.268,2.735-13.354A4.343,4.343,0,0,0,81.295,84.393Z"/><path class="cls-7" d="M77.908,86.6v19.416a3.146,3.146,0,0,0,.059.608l6.506,18.047a3.95,3.95,0,0,1-.257,2.346l-1.867,4.268-0.417,1.186a0.865,0.865,0,0,0,.884,1.148l5.036-.4a1.232,1.232,0,0,0,1.112-1l0.922-4.872-6.712-21.539,3.793-18.52a4.557,4.557,0,0,0-4.711-5.241h0A4.557,4.557,0,0,0,77.908,86.6Z"/><path class="cls-12" d="M82.258,81.592c-2.434.111-4.382,1.121-4.382,3.558L76.708,99.038s7.831,3.682,9.266.84l1.834-13.625C88.243,83.411,85.13,81.461,82.258,81.592Z"/><polygon class="cls-7" points="89.218 125.707 92.256 132.848 90.201 132.86 88.099 128.895 89.218 125.707"/><path class="cls-7" d="M93.867,68.605c1.946-1.57,6.908-2.477,8.74-.14,1.046,1.334.7,3.243-.09,5.06a5.448,5.448,0,0,0-.334,3.16c0.048,0.209-1.5.091-1.61,0.263-0.363.556-.35,0.492-0.637,0.886a5.093,5.093,0,0,1-2.356,2.037,3.692,3.692,0,0,1-3.727-1.253A9.1,9.1,0,0,1,92.1,74.889a8.687,8.687,0,0,1-.333-1.678A5.56,5.56,0,0,1,93.867,68.605Z"/><path class="cls-17" d="M96.292,71.468c-1.247.835-1.52,2.574-2.562,3.653a5.785,5.785,0,0,1-4.245,1.331,6.642,6.642,0,0,1-4.017-1.014,4.858,4.858,0,0,1-1.794-3.352,8.73,8.73,0,0,1,.545-3.838,14.687,14.687,0,0,1,3.113-5.161,6.448,6.448,0,0,1,2.448-1.775,8.265,8.265,0,0,1,3.737-.143,19.969,19.969,0,0,1,6.376,1.456,9.088,9.088,0,0,1,2.751,1.88l1.187,1.408c0.178,0.211.356,0.422,0.512,0.649a3.173,3.173,0,0,1,.589,1.667,2.149,2.149,0,0,1-.624,1.623,2.784,2.784,0,0,1-1.209.611,17.281,17.281,0,0,1-3.248.464C98.639,71,97.369,70.747,96.292,71.468Z"/><polygon class="cls-30" points="122.735 65.054 110.067 64.637 110.483 51.588 122.318 51.171 122.735 65.054"/><rect class="cls-9" x="110.067" y="51.171" width="12.252" height="13.466"/><path class="cls-2" d="M116.47,52.068a3.161,3.161,0,1,0,3.161,3.161H116.47V52.068Z"/><rect class="cls-2" x="112.145" y="59.085" width="8.649" height="0.834"/><rect class="cls-2" x="112.145" y="60.753" width="8.649" height="0.834"/><rect class="cls-2" x="112.145" y="62.42" width="5.521" height="0.834"/><polygon class="cls-30" points="122.527 81.36 109.858 80.943 110.275 67.894 122.11 67.477 122.527 81.36"/><rect class="cls-9" x="109.858" y="67.477" width="12.251" height="13.466"/><rect class="cls-2" x="110.613" y="78.726" width="11.15" height="0.834"/><rect class="cls-2" x="111.065" y="75.388" width="1.476" height="2.799"/><rect class="cls-2" x="113.242" y="73.047" width="1.476" height="5.141"/><rect class="cls-2" x="115.42" y="69.816" width="1.476" height="8.372"/><rect class="cls-2" x="117.597" y="71.897" width="1.476" height="6.29"/><rect class="cls-2" x="119.775" y="69.816" width="1.476" height="8.372"/><path class="cls-17" d="M174.064,136.052c-1.133,0-1.242-.435-0.241-0.966l5.892-3.128a9.84,9.84,0,0,1,3.881-.966h15.433c1.133,0,1.241.433,0.238,0.962l-5.944,3.137a9.894,9.894,0,0,1-3.883.962H174.064Z"/><path class="cls-12" d="M176.654,135.528c-0.9,0-.984-0.345-0.191-0.766l4.913-2.638a7.8,7.8,0,0,1,3.076-.766h12.231c0.9,0,.983.343,0.189,0.762l-4.955,2.645a7.839,7.839,0,0,1-3.078.762H176.654Z"/><path class="cls-25" d="M177.73,133.651a0.129,0.129,0,0,1-.06-0.243l1.541-.817a0.129,0.129,0,0,1,.121.227l-1.541.817A0.131,0.131,0,0,1,177.73,133.651Z"/><g id="_Group_85" data-name="&lt;Group&gt;"><path id="_Path_9" data-name="&lt;Path&gt;" class="cls-8" d="M269.873,143.708a4.728,4.728,0,0,1,.5.105l0.571,0.2,0.72,0.35,0.811,0.526c0.279,0.205.543,0.457,0.848,0.71a11.476,11.476,0,0,1,1.649,1.939,18.28,18.28,0,0,1,1.463,2.512,29.156,29.156,0,0,1,1.988,6.169c0.208,1.106.49,2.23,0.59,3.363,0.121,1.131.318,2.265,0.373,3.382s0.123,2.218.182,3.282,0.012,2.093.024,3.07c-0.005.977-.011,1.9-0.015,2.752l-0.308,5.672-2.925-.212,0.757-5.568c0.073-.837.152-1.744,0.235-2.7,0.066-.959.2-1.973,0.223-3.02s0.055-2.132.084-3.233-0.068-2.215-.1-3.334c-0.007-1.122-.194-2.226-0.309-3.324a27.844,27.844,0,0,0-1.45-6.128,17.2,17.2,0,0,0-1.226-2.518,10.685,10.685,0,0,0-1.453-1.97c-0.275-.26-0.515-0.521-0.771-0.735l-0.752-.555-0.679-.38-0.548-.225A4.639,4.639,0,0,0,269.873,143.708Z"/><path id="_Path_10" data-name="&lt;Path&gt;" class="cls-8" d="M276.6,174.44s-0.291-1.359-.824-3.412-1.3-4.77-2.238-7.458c-0.47-1.344-.988-2.675-1.524-3.911-0.291-.609-0.547-1.21-0.837-1.762-0.308-.544-0.555-1.081-0.863-1.541a14.177,14.177,0,0,0-.858-1.252c-0.3-.348-0.541-0.673-0.786-0.907l-0.842-.7,0.936,0.633c0.28,0.218.559,0.522,0.915,0.853a15.574,15.574,0,0,1,1.037,1.2c0.376,0.444.693,0.96,1.079,1.49,0.368,0.536.7,1.118,1.081,1.713,0.7,1.2,1.405,2.506,2.057,3.823a110.866,110.866,0,0,1,4.533,10.727Z"/><path id="_Path_11" data-name="&lt;Path&gt;" class="cls-8" d="M277.614,175.32s0.127-1,.434-2.427a34.461,34.461,0,0,1,1.521-5.206,19.354,19.354,0,0,1,1.291-2.68,10.5,10.5,0,0,1,.792-1.169,6.487,6.487,0,0,1,.871-0.972,4.208,4.208,0,0,1,.9-0.712,3.2,3.2,0,0,1,.805-0.429l0.771-.258-0.686.363a2.656,2.656,0,0,0-.652.515,3.35,3.35,0,0,0-.66.777,5.238,5.238,0,0,0-.576,1.009,8.709,8.709,0,0,0-.462,1.185,16.815,16.815,0,0,0-.583,2.667,31.457,31.457,0,0,0-.221,5.086c0.044,1.4.151,2.29,0.151,2.29Z"/><path id="_Path_12" data-name="&lt;Path&gt;" class="cls-31" d="M269.531,173.325l2.291,13.97a2.553,2.553,0,0,0,2.52,2.14h7.711a2.553,2.553,0,0,0,2.52-2.14l2.291-13.97H269.531Z"/><polygon id="_Path_13" data-name="&lt;Path&gt;" class="cls-32" points="269.531 173.325 286.864 173.325 285.035 184.475 270.017 176.288 269.531 173.325"/><rect id="_Rectangle_61" data-name="&lt;Rectangle&gt;" class="cls-31" x="267.379" y="169.605" width="21.637" height="3.99" rx="0.307" ry="0.307"/></g><circle class="cls-2" cx="179.399" cy="17.813" r="17.812"/><circle class="cls-3" cx="179.399" cy="17.813" r="15.734"/><rect class="cls-2" x="178.805" y="3.015" width="1.392" height="15.4" rx="0.519" ry="0.519"/><rect class="cls-2" x="182.166" y="10.626" width="1.392" height="9.556" rx="0.519" ry="0.519" transform="translate(91.779 -143.906) rotate(55.427)"/><rect class="cls-33" x="188.562" y="145.868" width="17.625" height="7.056"/><rect class="cls-33" x="178.904" y="154.128" width="17.625" height="7.056"/><rect class="cls-33" x="169.106" y="145.868" width="17.625" height="7.056"/><g id="_Group_86" data-name="&lt;Group&gt;"><path id="_Path_14" data-name="&lt;Path&gt;" class="cls-12" d="M241.466,38.716l2.912-4.233a10.184,10.184,0,1,0-5.9.408l2.639,3.825A0.211,0.211,0,0,0,241.466,38.716Z"/><circle id="_Path_15" data-name="&lt;Path&gt;" class="cls-34" cx="240.788" cy="25.04" r="7.227" transform="translate(52.819 177.597) rotate(-45)"/></g><path id="_Compound_Path_" data-name="&lt;Compound Path&gt;" class="cls-9" d="M243.89,25.982h0.941a0.345,0.345,0,0,0,.344-0.345v-1.2a0.345,0.345,0,0,0-.345-0.344h-0.736a0.29,0.29,0,0,1-.27-0.193q-0.039-.1-0.085-0.2a0.29,0.29,0,0,1,.054-0.327l0.52-.521a0.345,0.345,0,0,0,0-.488l-0.849-.848a0.345,0.345,0,0,0-.487,0l-0.524.525a0.285,0.285,0,0,1-.314.06c-0.075-.032-0.156-0.064-0.225-0.092a0.283,0.283,0,0,1-.18-0.265V21a0.345,0.345,0,0,0-.345-0.345h-1.2a0.345,0.345,0,0,0-.345.345v0.736a0.289,0.289,0,0,1-.193.269q-0.108.041-.213,0.089a0.289,0.289,0,0,1-.327-0.053l-0.522-.519a0.345,0.345,0,0,0-.487,0l-0.846.851a0.345,0.345,0,0,0,0,.488l0.526,0.523a0.285,0.285,0,0,1,.061.314c-0.032.075-.064,0.156-0.091,0.225a0.283,0.283,0,0,1-.264.181l-0.744,0a0.345,0.345,0,0,0-.344.346l0,1.2a0.345,0.345,0,0,0,.346.344l0.736,0a0.29,0.29,0,0,1,.27.192q0.039,0.1.085,0.2a0.29,0.29,0,0,1-.053.327l-0.52.522a0.345,0.345,0,0,0,0,.488l0.85,0.846a0.345,0.345,0,0,0,.487,0l0.524-.526a0.285,0.285,0,0,1,.314-0.061c0.075,0.032.156,0.064,0.225,0.091a0.284,0.284,0,0,1,.181.265v0.744a0.345,0.345,0,0,0,.345.344l1.2,0a0.345,0.345,0,0,0,.344-0.345V28.343a0.29,0.29,0,0,1,.192-0.27q0.1-.039.2-0.085a0.29,0.29,0,0,1,.327.053l0.521,0.52a0.345,0.345,0,0,0,.487,0l0.847-.849a0.345,0.345,0,0,0,0-.488l-0.525-.524a0.285,0.285,0,0,1-.06-0.314C243.807,26.208,243.886,25.994,243.89,25.982Zm-4.773-1.248a1.7,1.7,0,1,1,1.058,1.891A1.7,1.7,0,0,1,239.116,24.733Z"/></g></svg>