<svg id="Layer_1" data-name="Layer 1" xmlns="http://www.w3.org/2000/svg" viewBox="0 0 279.243 198.901"><defs><style>.cls-1,.cls-3{fill:#fff;}.cls-1{stroke:#e5e7fd;stroke-miterlimit:10;}.cls-2{fill:#4d5068;}.cls-4{fill:#e5e7fd;}</style></defs><title>details-app</title><rect class="cls-1" x="0.5" y="0.5" width="278.243" height="197.901" rx="6" ry="6"/><path class="cls-2" d="M273.181,1.463H8.017A6.446,6.446,0,0,0,1.477,7.812V17.43H279.721V7.812A6.446,6.446,0,0,0,273.181,1.463Z" transform="translate(-0.977 -0.963)"/><circle class="cls-3" cx="264.183" cy="9.483" r="2.758"/><circle class="cls-3" cx="253.46" cy="9.483" r="2.758"/><path class="cls-3" d="M238.7,9.51h6.036a0.94,0.94,0,0,1,.937.937h0a0.94,0.94,0,0,1-.937.937H238.7a0.94,0.94,0,0,1-.937-0.937h0A0.94,0.94,0,0,1,238.7,9.51Z" transform="translate(-0.977 -0.963)"/><circle class="cls-3" cx="47.437" cy="40.259" r="7.441"/><circle class="cls-3" cx="237.02" cy="40.259" r="7.441"/><circle class="cls-3" cx="47.764" cy="36.464" r="7.441"/><circle class="cls-3" cx="237.347" cy="36.464" r="7.441"/><rect class="cls-4" x="128.729" y="148.023" width="131.632" height="34.633" rx="1.477" ry="1.477"/><rect class="cls-4" x="128.729" y="112.738" width="131.632" height="29.976" rx="1.094" ry="1.094"/><path class="cls-4" d="M131.038,29.023H258.052a2.309,2.309,0,0,1,2.309,2.309v74.6a2.309,2.309,0,0,1-2.309,2.309H131.038a2.31,2.31,0,0,1-2.31-2.31v-74.6A2.309,2.309,0,0,1,131.038,29.023Z"/><path class="cls-4" d="M110.674,41.869h-84.8A5.97,5.97,0,0,1,20.167,35.7h0a5.97,5.97,0,0,1,5.712-6.167h84.8a5.97,5.97,0,0,1,5.712,6.167h0A5.97,5.97,0,0,1,110.674,41.869Z" transform="translate(-0.977 -0.963)"/><rect class="cls-4" x="19.189" y="148.023" width="96.219" height="34.633" rx="2.135" ry="2.135"/><circle class="cls-3" cx="45.323" cy="165.34" r="7.628"/><path class="cls-4" d="M110.674,58.7h-84.8a5.97,5.97,0,0,1-5.712-6.167h0a5.97,5.97,0,0,1,5.712-6.167h84.8a5.97,5.97,0,0,1,5.712,6.167h0A5.97,5.97,0,0,1,110.674,58.7Z" transform="translate(-0.977 -0.963)"/><rect class="cls-3" x="182.291" y="55.138" width="24.507" height="22.398" rx="1.094" ry="1.094"/><path class="cls-4" d="M110.674,75.535h-84.8a5.97,5.97,0,0,1-5.712-6.167h0A5.97,5.97,0,0,1,25.879,63.2h84.8a5.97,5.97,0,0,1,5.712,6.167h0A5.97,5.97,0,0,1,110.674,75.535Z" transform="translate(-0.977 -0.963)"/><path class="cls-4" d="M110.674,92.369h-84.8A5.97,5.97,0,0,1,20.167,86.2h0a5.97,5.97,0,0,1,5.712-6.167h84.8a5.97,5.97,0,0,1,5.712,6.167h0A5.97,5.97,0,0,1,110.674,92.369Z" transform="translate(-0.977 -0.963)"/><path class="cls-4" d="M110.674,109.2h-84.8a5.97,5.97,0,0,1-5.712-6.167h0a5.97,5.97,0,0,1,5.712-6.167h84.8a5.97,5.97,0,0,1,5.712,6.167h0A5.97,5.97,0,0,1,110.674,109.2Z" transform="translate(-0.977 -0.963)"/><path class="cls-4" d="M110.674,126.035h-84.8a5.97,5.97,0,0,1-5.712-6.167h0a5.97,5.97,0,0,1,5.712-6.167h84.8a5.97,5.97,0,0,1,5.712,6.167h0A5.97,5.97,0,0,1,110.674,126.035Z" transform="translate(-0.977 -0.963)"/><circle class="cls-3" cx="67.833" cy="165.34" r="7.628"/><circle class="cls-3" cx="89.333" cy="165.34" r="7.628"/><path class="cls-4" d="M110.674,143.678h-84.8a5.97,5.97,0,0,1-5.712-6.167h0a5.97,5.97,0,0,1,5.712-6.167h84.8a5.97,5.97,0,0,1,5.712,6.167h0A5.97,5.97,0,0,1,110.674,143.678Z" transform="translate(-0.977 -0.963)"/></svg>