<svg id="Layer_1" data-name="Layer 1" xmlns="http://www.w3.org/2000/svg" viewBox="0 0 279.243 198.901"><defs><style>.cls-1,.cls-3{fill:#fff;}.cls-1{stroke:#e5e7fd;stroke-miterlimit:10;}.cls-2{fill:#4d5068;}.cls-4{fill:#e5e7fd;}</style></defs><title>feature-app-3</title><rect class="cls-1" x="0.5" y="0.5" width="278.243" height="197.901" rx="6" ry="6"/><path class="cls-2" d="M273.181,1.463H8.017A6.446,6.446,0,0,0,1.477,7.812V17.43H279.721V7.812A6.446,6.446,0,0,0,273.181,1.463Z" transform="translate(-0.977 -0.963)"/><circle class="cls-3" cx="264.183" cy="9.483" r="2.758"/><circle class="cls-3" cx="253.46" cy="9.483" r="2.758"/><path class="cls-3" d="M238.7,9.51h6.036a0.94,0.94,0,0,1,.937.937h0a0.94,0.94,0,0,1-.937.937H238.7a0.94,0.94,0,0,1-.937-0.937h0A0.94,0.94,0,0,1,238.7,9.51Z" transform="translate(-0.977 -0.963)"/><circle class="cls-3" cx="237.02" cy="40.259" r="7.441"/><circle class="cls-3" cx="237.347" cy="36.464" r="7.441"/><path class="cls-4" d="M21.5,29.023H148.512a2.309,2.309,0,0,1,2.309,2.309v74.6a2.309,2.309,0,0,1-2.309,2.309H21.5a2.31,2.31,0,0,1-2.31-2.31v-74.6A2.309,2.309,0,0,1,21.5,29.023Z"/><rect class="cls-4" x="19.189" y="115.659" width="60.75" height="34.633" rx="2.135" ry="2.135"/><circle class="cls-3" cx="49.564" cy="132.975" r="7.628"/><rect class="cls-3" x="72.752" y="55.138" width="24.507" height="22.398" rx="1.094" ry="1.094"/><rect class="cls-4" x="90.072" y="115.659" width="60.75" height="34.633" rx="2.135" ry="2.135"/><circle class="cls-3" cx="120.447" cy="132.975" r="7.628"/><rect class="cls-4" x="19.189" y="158.667" width="131.632" height="24.119" rx="1.094" ry="1.094"/><path class="cls-4" d="M165.58,29.023h93.3a2.309,2.309,0,0,1,2.309,2.309V82.227a2.309,2.309,0,0,1-2.309,2.309h-93.3a2.31,2.31,0,0,1-2.31-2.31V31.333A2.309,2.309,0,0,1,165.58,29.023Z"/><path class="cls-3" d="M237.86,56.471L195.37,40.685a1.357,1.357,0,0,0-1.83,1.272V73.529a1.357,1.357,0,0,0,1.83,1.272L237.86,59.016A1.357,1.357,0,0,0,237.86,56.471Z" transform="translate(-0.977 -0.963)"/><rect class="cls-4" x="163.27" y="91.539" width="97.919" height="16.699" rx="1.094" ry="1.094"/><rect class="cls-4" x="163.27" y="116.159" width="97.919" height="16.699" rx="1.094" ry="1.094"/><rect class="cls-4" x="163.27" y="141.103" width="97.919" height="16.699" rx="1.094" ry="1.094"/><rect class="cls-4" x="163.27" y="166.087" width="97.919" height="16.699" rx="1.094" ry="1.094"/></svg>