<svg xmlns="http://www.w3.org/2000/svg" id="Layer_1" data-name="Layer 1" viewBox="0 0 279.243 198.901"><defs><style>.cls-1,.cls-3{fill:#fff}.cls-1{stroke:#e5e7fd;stroke-miterlimit:10}.cls-2{fill:#4d5068}.cls-4{fill:#e5e7fd}</style></defs><title>feature-app-1</title><rect width="278.243" height="197.901" x=".5" y=".5" class="cls-1" rx="6" ry="6"/><path d="M273.181,1.463H8.017A6.446,6.446,0,0,0,1.477,7.812V17.43H279.721V7.812A6.446,6.446,0,0,0,273.181,1.463Z" class="cls-2" transform="translate(-0.977 -0.963)"/><circle cx="264.183" cy="9.483" r="2.758" class="cls-3"/><circle cx="253.46" cy="9.483" r="2.758" class="cls-3"/><path d="M238.7,9.51h6.036a0.94,0.94,0,0,1,.937.937h0a0.94,0.94,0,0,1-.937.937H238.7a0.94,0.94,0,0,1-.937-0.937h0A0.94,0.94,0,0,1,238.7,9.51Z" class="cls-3" transform="translate(-0.977 -0.963)"/><circle cx="47.437" cy="40.259" r="7.441" class="cls-3"/><circle cx="237.02" cy="40.259" r="7.441" class="cls-3"/><rect width="80.651" height="41.116" x="180.774" y="28.572" class="cls-4" rx="1.333" ry="1.333"/><rect width="149.351" height="41.116" x="18.862" y="28.572" class="cls-4" rx="1.814" ry="1.814"/><path d="M255.874,96.75H25.552c-3.141,0-5.712-3.385-5.712-7.521h0c0-4.137,2.57-7.521,5.712-7.521H255.874c3.141,0,5.712,3.384,5.712,7.521h0C261.585,93.365,259.015,96.75,255.874,96.75Z" class="cls-4" transform="translate(-0.977 -0.963)"/><rect width="98.341" height="40.847" x="161.801" y="108.254" class="cls-4" rx="1.477" ry="1.477"/><rect width="98.341" height="22.398" x="161.801" y="160.482" class="cls-4" rx="1.094" ry="1.094"/><path d="M21.172,108.254H148.185a2.309,2.309,0,0,1,2.309,2.309v70.007a2.309,2.309,0,0,1-2.309,2.309H21.172a2.31,2.31,0,0,1-2.31-2.31V110.563A2.309,2.309,0,0,1,21.172,108.254Z" class="cls-4"/><path d="M118.8,144.82L61.677,123.6a1.825,1.825,0,0,0-2.46,1.71v42.441a1.825,1.825,0,0,0,2.46,1.71l57.12-21.221A1.825,1.825,0,0,0,118.8,144.82Z" class="cls-3" transform="translate(-0.977 -0.963)"/></svg>