<svg xmlns="http://www.w3.org/2000/svg" id="Layer_1" data-name="Layer 1" viewBox="0 0 279.243 198.901"><defs><style>.cls-1,.cls-3{fill:#fff}.cls-1{stroke:#e5e7fd;stroke-miterlimit:10}.cls-2{fill:#4d5068}.cls-4{fill:#e5e7fd}</style></defs><title>feature-app-3</title><rect width="278.243" height="197.901" x=".5" y=".5" class="cls-1" rx="6" ry="6"/><path d="M273.181,1.463H8.017A6.446,6.446,0,0,0,1.477,7.812V17.43H279.721V7.812A6.446,6.446,0,0,0,273.181,1.463Z" class="cls-2" transform="translate(-0.977 -0.963)"/><circle cx="264.183" cy="9.483" r="2.758" class="cls-3"/><circle cx="253.46" cy="9.483" r="2.758" class="cls-3"/><path d="M238.7,9.51h6.036a0.94,0.94,0,0,1,.937.937h0a0.94,0.94,0,0,1-.937.937H238.7a0.94,0.94,0,0,1-.937-0.937h0A0.94,0.94,0,0,1,238.7,9.51Z" class="cls-3" transform="translate(-0.977 -0.963)"/><circle cx="237.02" cy="40.259" r="7.441" class="cls-3"/><circle cx="237.347" cy="36.464" r="7.441" class="cls-3"/><path d="M21.5,29.023H148.512a2.309,2.309,0,0,1,2.309,2.309v74.6a2.309,2.309,0,0,1-2.309,2.309H21.5a2.31,2.31,0,0,1-2.31-2.31v-74.6A2.309,2.309,0,0,1,21.5,29.023Z" class="cls-4"/><rect width="60.75" height="34.633" x="19.189" y="115.659" class="cls-4" rx="2.135" ry="2.135"/><circle cx="49.564" cy="132.975" r="7.628" class="cls-3"/><rect width="24.507" height="22.398" x="72.752" y="55.138" class="cls-3" rx="1.094" ry="1.094"/><rect width="60.75" height="34.633" x="90.072" y="115.659" class="cls-4" rx="2.135" ry="2.135"/><circle cx="120.447" cy="132.975" r="7.628" class="cls-3"/><rect width="131.632" height="24.119" x="19.189" y="158.667" class="cls-4" rx="1.094" ry="1.094"/><path d="M165.58,29.023h93.3a2.309,2.309,0,0,1,2.309,2.309V82.227a2.309,2.309,0,0,1-2.309,2.309h-93.3a2.31,2.31,0,0,1-2.31-2.31V31.333A2.309,2.309,0,0,1,165.58,29.023Z" class="cls-4"/><path d="M237.86,56.471L195.37,40.685a1.357,1.357,0,0,0-1.83,1.272V73.529a1.357,1.357,0,0,0,1.83,1.272L237.86,59.016A1.357,1.357,0,0,0,237.86,56.471Z" class="cls-3" transform="translate(-0.977 -0.963)"/><rect width="97.919" height="16.699" x="163.27" y="91.539" class="cls-4" rx="1.094" ry="1.094"/><rect width="97.919" height="16.699" x="163.27" y="116.159" class="cls-4" rx="1.094" ry="1.094"/><rect width="97.919" height="16.699" x="163.27" y="141.103" class="cls-4" rx="1.094" ry="1.094"/><rect width="97.919" height="16.699" x="163.27" y="166.087" class="cls-4" rx="1.094" ry="1.094"/></svg>