<svg xmlns="http://www.w3.org/2000/svg" id="Layer_1" data-name="Layer 1" viewBox="0 0 279.243 198.901"><defs><style>.cls-1,.cls-3{fill:#fff}.cls-1{stroke:#e5e7fd;stroke-miterlimit:10}.cls-2{fill:#4d5068}.cls-4{fill:#e5e7fd}</style></defs><title>feature-app-2</title><rect width="278.243" height="197.901" x=".5" y=".5" class="cls-1" rx="6" ry="6"/><path d="M273.181,1.463H8.017A6.446,6.446,0,0,0,1.477,7.812V17.43H279.721V7.812A6.446,6.446,0,0,0,273.181,1.463Z" class="cls-2" transform="translate(-0.977 -0.963)"/><circle cx="264.183" cy="9.483" r="2.758" class="cls-3"/><circle cx="253.46" cy="9.483" r="2.758" class="cls-3"/><path d="M238.7,9.51h6.036a0.94,0.94,0,0,1,.937.937h0a0.94,0.94,0,0,1-.937.937H238.7a0.94,0.94,0,0,1-.937-0.937h0A0.94,0.94,0,0,1,238.7,9.51Z" class="cls-3" transform="translate(-0.977 -0.963)"/><circle cx="47.437" cy="40.259" r="7.441" class="cls-3"/><circle cx="237.02" cy="40.259" r="7.441" class="cls-3"/><circle cx="47.764" cy="36.464" r="7.441" class="cls-3"/><circle cx="237.347" cy="36.464" r="7.441" class="cls-3"/><rect width="131.632" height="34.633" x="128.729" y="148.023" class="cls-4" rx="1.477" ry="1.477"/><rect width="131.632" height="29.976" x="128.729" y="112.738" class="cls-4" rx="1.094" ry="1.094"/><path d="M131.038,29.023H258.052a2.309,2.309,0,0,1,2.309,2.309v74.6a2.309,2.309,0,0,1-2.309,2.309H131.038a2.31,2.31,0,0,1-2.31-2.31v-74.6A2.309,2.309,0,0,1,131.038,29.023Z" class="cls-4"/><path d="M110.674,41.869h-84.8A5.97,5.97,0,0,1,20.167,35.7h0a5.97,5.97,0,0,1,5.712-6.167h84.8a5.97,5.97,0,0,1,5.712,6.167h0A5.97,5.97,0,0,1,110.674,41.869Z" class="cls-4" transform="translate(-0.977 -0.963)"/><rect width="96.219" height="34.633" x="19.189" y="148.023" class="cls-4" rx="2.135" ry="2.135"/><circle cx="45.323" cy="165.34" r="7.628" class="cls-3"/><path d="M110.674,58.7h-84.8a5.97,5.97,0,0,1-5.712-6.167h0a5.97,5.97,0,0,1,5.712-6.167h84.8a5.97,5.97,0,0,1,5.712,6.167h0A5.97,5.97,0,0,1,110.674,58.7Z" class="cls-4" transform="translate(-0.977 -0.963)"/><rect width="24.507" height="22.398" x="182.291" y="55.138" class="cls-3" rx="1.094" ry="1.094"/><path d="M110.674,75.535h-84.8a5.97,5.97,0,0,1-5.712-6.167h0A5.97,5.97,0,0,1,25.879,63.2h84.8a5.97,5.97,0,0,1,5.712,6.167h0A5.97,5.97,0,0,1,110.674,75.535Z" class="cls-4" transform="translate(-0.977 -0.963)"/><path d="M110.674,92.369h-84.8A5.97,5.97,0,0,1,20.167,86.2h0a5.97,5.97,0,0,1,5.712-6.167h84.8a5.97,5.97,0,0,1,5.712,6.167h0A5.97,5.97,0,0,1,110.674,92.369Z" class="cls-4" transform="translate(-0.977 -0.963)"/><path d="M110.674,109.2h-84.8a5.97,5.97,0,0,1-5.712-6.167h0a5.97,5.97,0,0,1,5.712-6.167h84.8a5.97,5.97,0,0,1,5.712,6.167h0A5.97,5.97,0,0,1,110.674,109.2Z" class="cls-4" transform="translate(-0.977 -0.963)"/><path d="M110.674,126.035h-84.8a5.97,5.97,0,0,1-5.712-6.167h0a5.97,5.97,0,0,1,5.712-6.167h84.8a5.97,5.97,0,0,1,5.712,6.167h0A5.97,5.97,0,0,1,110.674,126.035Z" class="cls-4" transform="translate(-0.977 -0.963)"/><circle cx="67.833" cy="165.34" r="7.628" class="cls-3"/><circle cx="89.333" cy="165.34" r="7.628" class="cls-3"/><path d="M110.674,143.678h-84.8a5.97,5.97,0,0,1-5.712-6.167h0a5.97,5.97,0,0,1,5.712-6.167h84.8a5.97,5.97,0,0,1,5.712,6.167h0A5.97,5.97,0,0,1,110.674,143.678Z" class="cls-4" transform="translate(-0.977 -0.963)"/></svg>