<svg id="Layer_1" data-name="Layer 1" xmlns="http://www.w3.org/2000/svg" viewBox="0 0 279.25 197.959"><defs><style>.cls-1{fill:#fff;}.cls-2{fill:#e5e7fd;}.cls-3{fill:#4d5068;}.cls-4{fill:#e45151;}.cls-5{fill:#5f4ded;}</style></defs><title>header-app</title><path class="cls-1" d="M8,2.761H270.741a8,8,0,0,1,8,8v179.2a8,8,0,0,1-8,8H8.5a8,8,0,0,1-8-8V10.261A7.5,7.5,0,0,1,8,2.761Z"/><path class="cls-2" d="M258.516,161.264H21.19a2.8,2.8,0,0,0-2.836,2.747v23.083h243V164.011A2.8,2.8,0,0,0,258.516,161.264Z"/><path class="cls-3" d="M272.687,0H6.563A6.469,6.469,0,0,0,0,6.371v9.653H279.25V6.371A6.469,6.469,0,0,0,272.687,0Z"/><circle class="cls-1" cx="264.181" cy="9.041" r="2.758"/><circle class="cls-1" cx="251.459" cy="9.041" r="2.758"/><path class="cls-1" d="M235.718,8.1h6.036a0.94,0.94,0,0,1,.937.937h0a0.94,0.94,0,0,1-.937.937h-6.036a0.94,0.94,0,0,1-.937-0.937h0A0.94,0.94,0,0,1,235.718,8.1Z"/><rect class="cls-2" x="18.507" y="27.412" width="56.847" height="24.81" rx="2.135" ry="2.135"/><circle class="cls-1" cx="47.436" cy="39.817" r="7.441"/><rect class="cls-2" x="212.686" y="27.412" width="48.665" height="24.81" rx="2.135" ry="2.135"/><circle class="cls-1" cx="237.019" cy="39.817" r="7.441"/><rect class="cls-2" x="82.261" y="27.412" width="122.846" height="24.81" rx="2.135" ry="2.135"/><path class="cls-2" d="M257.778,67.453H21.928a3.529,3.529,0,0,1-3.574-3.462h0a3.529,3.529,0,0,1,3.574-3.462h235.85a3.529,3.529,0,0,1,3.574,3.462h0A3.529,3.529,0,0,1,257.778,67.453Z"/><path class="cls-2" d="M257.778,154.913H21.928a3.529,3.529,0,0,1-3.574-3.462h0a3.529,3.529,0,0,1,3.574-3.462h235.85a3.529,3.529,0,0,1,3.574,3.462h0A3.529,3.529,0,0,1,257.778,154.913Z"/><path class="cls-1" d="M245.088,175.112H42.219a3.472,3.472,0,0,1-3.462-3.462h0a3.472,3.472,0,0,1,3.462-3.462H245.088a3.472,3.472,0,0,1,3.462,3.462h0A3.472,3.472,0,0,1,245.088,175.112Z"/><path class="cls-2" d="M257.862,130.172H99.951a3.5,3.5,0,0,1-3.523-3.462h0a3.5,3.5,0,0,1,3.523-3.462H257.862a3.5,3.5,0,0,1,3.523,3.462h0A3.5,3.5,0,0,1,257.862,130.172Z"/><path class="cls-2" d="M98.085,136.283H246.759a1.662,1.662,0,0,1,1.662,1.662v0.139a1.662,1.662,0,0,1-1.662,1.662H98.085a1.661,1.661,0,0,1-1.661-1.661v-0.139A1.661,1.661,0,0,1,98.085,136.283Z"/><path class="cls-2" d="M179.14,74.636h79.017a3.194,3.194,0,0,1,3.194,3.194V112.87a3.195,3.195,0,0,1-3.195,3.195H179.14a3.195,3.195,0,0,1-3.195-3.195V77.831A3.195,3.195,0,0,1,179.14,74.636Z"/><rect class="cls-2" x="96.354" y="74.636" width="69.812" height="41.429" rx="2.863" ry="2.863"/><path class="cls-3" d="M52.331,75.846a32.375,32.375,0,1,0,32.375,32.375A32.375,32.375,0,0,0,52.331,75.846Zm0,48.813a16.438,16.438,0,1,1,16.438-16.438A16.438,16.438,0,0,1,52.331,124.659Z"/><path class="cls-4" d="M52.331,75.846a32.271,32.271,0,0,0-12.473,2.493L46,93.051a16.428,16.428,0,0,1,22.751,14.794l15.938-.365A32.369,32.369,0,0,0,52.331,75.846Z"/><path class="cls-5" d="M68.768,108.221A16.439,16.439,0,0,1,38.7,117.407l-13.218,8.906a32.378,32.378,0,0,0,59.227-18.092c0-.249-0.013-0.494-0.019-0.741l-15.938.365C68.752,107.971,68.768,108.094,68.768,108.221Z"/><circle class="cls-1" cx="108.823" cy="84.224" r="3.695"/><circle class="cls-1" cx="108.823" cy="95.351" r="3.695"/><circle class="cls-1" cx="108.823" cy="106.477" r="3.695"/><path class="cls-1" d="M156.649,85.457H117.838a1.236,1.236,0,0,1-1.233-1.233h0a1.236,1.236,0,0,1,1.233-1.233h38.811a1.236,1.236,0,0,1,1.233,1.233h0A1.236,1.236,0,0,1,156.649,85.457Z"/><path class="cls-1" d="M156.649,96.583H117.838a1.236,1.236,0,0,1-1.233-1.233h0a1.236,1.236,0,0,1,1.233-1.233h38.811a1.236,1.236,0,0,1,1.233,1.233h0A1.236,1.236,0,0,1,156.649,96.583Z"/><path class="cls-1" d="M156.649,107.71H117.838a1.236,1.236,0,0,1-1.233-1.233h0a1.236,1.236,0,0,1,1.233-1.233h38.811a1.236,1.236,0,0,1,1.233,1.233h0A1.236,1.236,0,0,1,156.649,107.71Z"/></svg>