<svg id="Layer_3" data-name="Layer 3" xmlns="http://www.w3.org/2000/svg" viewBox="0 0 106 42"><defs><style>.cls-1{fill:#fff;}</style></defs><title>logo</title><path class="cls-1" d="M31.069,9.28H20.049l-6.764,32.1H4.419l6.738-32.1H0L1.555,2.07H32.624Z" transform="translate(0 -0.068)"/><path class="cls-1" d="M42.907,41.136q-0.49.138-1.13,0.274t-1.365.26q-0.723.124-1.5,0.192t-1.541.069a9.017,9.017,0,0,1-3.123-.48,5.726,5.726,0,0,1-2.141-1.343,5.267,5.267,0,0,1-1.241-2.056,8.291,8.291,0,0,1-.4-2.619q0-.6.068-1.343t0.178-1.549q0.108-.809.259-1.645t0.314-1.6q0.108-.465.368-1.713t0.6-2.866Q32.6,23.1,32.979,21.3T33.7,17.888q0.341-1.617.6-2.866T34.67,13.31H43.4L40.071,29.1q-0.219.96-.464,2.152a10.5,10.5,0,0,0-.245,2.07,1.579,1.579,0,0,0,.654,1.453,2.757,2.757,0,0,0,1.5.411,7.018,7.018,0,0,0,1.433-.151,7.285,7.285,0,0,0,1.321-.4q-0.354,1.646-.682,3.249T42.907,41.136ZM45.744,4.262a4.383,4.383,0,0,1-.408,1.919A4.635,4.635,0,0,1,44.23,7.649a4.835,4.835,0,0,1-1.635.945,6.125,6.125,0,0,1-2.033.329,5.678,5.678,0,0,1-1.923-.316,4.63,4.63,0,0,1-1.527-.877A4.1,4.1,0,0,1,36.1,6.4a3.813,3.813,0,0,1-.368-1.672,4.374,4.374,0,0,1,1.487-3.385A4.819,4.819,0,0,1,38.871.4,6.291,6.291,0,0,1,40.944.068a5.592,5.592,0,0,1,1.908.315,4.716,4.716,0,0,1,1.516.877,4.134,4.134,0,0,1,1.008,1.33A3.819,3.819,0,0,1,45.744,4.262Z" transform="translate(0 -0.068)"/><path class="cls-1" d="M62.466,41.383h-9.6L49.182,13.31h8.592l1.119,15.545q0.054,0.521.1,1.26t0.068,1.536q0.027,0.8.041,1.577a12.4,12.4,0,0,1-.041,1.357h0.108c0.145-.385.318-0.809,0.519-1.276s0.41-.95.628-1.452,0.44-1.005.667-1.508,0.441-.982.641-1.439l7.5-15.6h9.493Z" transform="translate(0 -0.068)"/><path class="cls-1" d="M106,24.44a21.95,21.95,0,0,1-.381,4,19.769,19.769,0,0,1-1.2,4.017,17.731,17.731,0,0,1-2.115,3.715,13.717,13.717,0,0,1-3.136,3.057A15.409,15.409,0,0,1,94.912,41.3a18.139,18.139,0,0,1-5.5.768,14.788,14.788,0,0,1-5.414-.9,10.322,10.322,0,0,1-3.806-2.5A10.139,10.139,0,0,1,77.959,34.9a14.594,14.594,0,0,1-.737-4.7,21.5,21.5,0,0,1,.409-4.126A19.056,19.056,0,0,1,78.9,22.027a17.3,17.3,0,0,1,2.2-3.66,14.224,14.224,0,0,1,3.191-2.988,15.579,15.579,0,0,1,4.242-2.015,18.047,18.047,0,0,1,5.359-.74,14.8,14.8,0,0,1,5.17.836,10.351,10.351,0,0,1,3.792,2.385,10.229,10.229,0,0,1,2.346,3.728A13.969,13.969,0,0,1,106,24.44Zm-8.7.11a7.884,7.884,0,0,0-.273-2.125,4.93,4.93,0,0,0-.8-1.672,3.831,3.831,0,0,0-1.3-1.1,3.789,3.789,0,0,0-1.772-.4,5.07,5.07,0,0,0-3.069.987A8.458,8.458,0,0,0,87.806,22.8,13.132,13.132,0,0,0,86.387,26.3,15.909,15.909,0,0,0,85.9,30.2a5.811,5.811,0,0,0,1.16,3.866,3.759,3.759,0,0,0,3.014,1.37,5.254,5.254,0,0,0,3.123-.96,8.028,8.028,0,0,0,2.264-2.509,12.582,12.582,0,0,0,1.378-3.5A16.881,16.881,0,0,0,97.3,24.55Z" transform="translate(0 -0.068)"/></svg>